<svg xmlns="http://www.w3.org/2000/svg" width="29" height="15" viewBox="0 0 29 15">
  <path fill="#FFF" fill-rule="evenodd" d="M6.49609375,7.00216574 C6.50530089,7.2428984 6.6052795,7.52179321 6.76971483,7.69674232 L12.1579453,13.4217372 C12.5236378,13.7492944 13.2235015,13.8847882 13.6312896,13.5059283 C14.033824,13.1323219 14.0206566,12.4075038 13.6207657,12.032584 L9.83216612,8.01229057 L23.6711625,8.01229057 C24.2289117,8.01229057 24.6814557,7.55974656 24.6814557,7.00199735 C24.6814557,6.44424815 24.2289117,5.99170414 23.6711625,5.99170414 L9.83216612,5.99170414 L13.6207657,1.97141069 C13.9654104,1.62545262 14.0298671,0.875613 13.6312896,0.498066427 C13.2340086,0.120519854 12.5078772,0.240232864 12.1579453,0.582257528 L6.76971483,6.30725239 C6.58554511,6.50325938 6.49609375,6.73346142 6.49609375,7.00182897 L6.49609375,7.00216574 Z" transform="matrix(-1 0 0 1 31.178 0)"/>
</svg>
