<svg xmlns="http://www.w3.org/2000/svg" width="29" height="15" viewBox="0 0 29 15">
  <path fill="currentColor" d="M6.49609375,7.50216574 C6.50530089,7.7428984 6.6052795,8.02179321 6.76971483,8.19674232 L12.1579453,13.9217372 C12.5236378,14.2492944 13.2235015,14.3847882 13.6312896,14.0059283 C14.033824,13.6323219 14.0206566,12.9075038 13.6207657,12.532584 L9.83216612,8.51229057 L23.6711625,8.51229057 C24.2289117,8.51229057 24.6814557,8.05974656 24.6814557,7.50199735 C24.6814557,6.94424815 24.2289117,6.49170414 23.6711625,6.49170414 L9.83216612,6.49170414 L13.6207657,2.47141069 C13.9654104,2.12545262 14.0298671,1.375613 13.6312896,0.998066427 C13.2340086,0.620519854 12.5078772,0.740232864 12.1579453,1.08225753 L6.76971483,6.80725239 C6.58554511,7.00325938 6.49609375,7.23346142 6.49609375,7.50182897 L6.49609375,7.50216574 Z" transform="matrix(-1 0 0 1 31.178 0)"/>
</svg>
