<svg xmlns="http://www.w3.org/2000/svg" width="117" height="76" viewBox="0 0 117 76">
  <g fill="none" fill-rule="evenodd">
    <path fill="#5D2359" stroke="#5D2359" stroke-width=".5" d="M11.4789375,0.581353623 C7.6078897,0.581353623 4.77296673,3.65707262 4.45953516,7.08559287 C2.14319342,7.95349619 0.492046875,10.1793182 0.492046875,12.7890099 C0.492046875,16.1497776 3.23519879,18.892838 6.595875,18.892838 L21.2450625,18.892838 C24.7486598,18.892838 27.3488906,16.4417848 27.3488906,13.3993927 C27.3488906,11.0699277 25.875396,8.8178593 23.600835,8.096692 C23.3922092,6.34541216 22.4957064,4.95901915 21.254676,4.21496251 C20.0756301,3.50682689 18.6545978,3.36735441 17.3347976,3.76669737 C16.1557516,1.9772686 14.1101452,0.58110947 11.4787849,0.58110947 L11.4789375,0.581353623 Z M11.4789375,2.41250206 C13.7309144,2.41250206 15.3808096,3.72030828 16.1520283,5.26414952 C16.3809219,5.71360491 16.9317008,5.8936068 17.3823159,5.66471324 C18.3169646,5.19740416 19.4423579,5.26176903 20.3197832,5.78869725 C21.1972085,6.31562547 21.8552622,7.27055413 21.8552622,8.82153685 C21.858839,9.26501048 22.1795281,9.64411925 22.6182407,9.71803661 C24.2860507,9.99819316 25.5175591,11.702971 25.5175591,13.3992553 C25.5175591,15.4414131 23.9475019,17.0615522 21.2448794,17.0615522 L6.59569189,17.0615522 C4.22450725,17.0615522 2.3230122,15.1588669 2.3230122,12.7888725 C2.3230122,10.7824832 3.69756377,9.11833549 5.54644383,8.64986669 C5.95414903,8.54376384 6.23788548,8.17419536 6.23312449,7.75336693 C6.20689635,5.05431517 8.38734855,2.41251732 11.4787544,2.41251732 L11.4789375,2.41250206 Z" transform="matrix(-1 0 0 1 27.84 0)"/>
    <path fill="#5D2359" d="M64.2406842,25.6624295 C61.8417325,25.6624295 59.6813946,24.2178666 58.7633223,22.003087 C57.8452501,19.7883074 58.3535559,17.2363216 60.0470832,15.5427877 C61.7432064,13.8466645 64.2925365,13.3383653 66.5073825,14.2564376 C68.7247513,15.1745098 70.1667249,17.337437 70.1667249,19.7337994 C70.164129,23.0067389 67.5110343,25.6572509 64.2406842,25.6624295 Z M64.2406842,16.1782944 C62.8012999,16.1782944 61.5045926,17.0445143 60.9547982,18.3723596 C60.4023946,19.7027942 60.7084232,21.2329367 61.7250813,22.2495351 C62.7417394,23.2661335 64.2718221,23.5696125 65.6022567,23.0198181 C66.930102,22.4700105 67.7963219,21.1733165 67.7963219,19.7339322 C67.793726,17.7707129 66.2039698,16.1782944 64.2406842,16.1782944 Z" transform="scale(-1 1) rotate(2 0 -3660.53)"/>
    <path fill="#5D2359" d="M63.9067037,12.6254987 C63.5903047,12.6254987 63.2894615,12.5010132 63.0664432,12.277975 C62.846001,12.0575328 62.7215155,11.7541002 62.7215155,11.4403038 L62.7215155,9.06990081 C62.7215155,8.41375933 63.2505821,7.8846661 63.9067502,7.8846661 C64.5602957,7.8846661 65.0919849,8.41373277 65.0919849,9.06990081 L65.0919849,11.4403038 C65.0919849,11.7541135 64.9674994,12.0575461 64.7444612,12.277975 C64.521423,12.5010132 64.2205864,12.6254987 63.90679,12.6254987 L63.9067037,12.6254987 Z" transform="scale(-1 1) rotate(2 0 -3650.96)"/>
    <path fill="#5D2359" d="M55.7329611,15.7472339 C55.2531708,15.7472339 54.8226568,15.4567678 54.6385511,15.0132674 C54.4544188,14.572383 54.5555607,14.0614679 54.8953032,13.7217387 L56.5732349,12.0463963 C57.034867,11.5899495 57.7817733,11.5925454 58.2408094,12.0541775 C58.6998522,12.5132202 58.7050374,13.2575373 58.2485906,13.721752 L56.5732482,15.3996837 C56.35021,15.6227219 56.0493734,15.7472074 55.7329877,15.7472074 L55.7329611,15.7472339 Z" transform="scale(-1 1) rotate(2 0 -3227.046)"/>
    <path fill="#5D2359" d="M55.9447344,21.2497407 L53.5743314,21.2497407 C52.9181899,21.2497407 52.3890967,20.7180847 52.3890967,20.064506 C52.3890967,19.4109273 52.9181634,18.8792713 53.5743314,18.8792713 L55.9447344,18.8792713 C56.5982866,18.8792713 57.1299692,19.4109273 57.1299692,20.064506 C57.1299692,20.7180847 56.5983132,21.2497407 55.9447344,21.2497407 Z" transform="scale(-1 1) rotate(2 0 -3117.107)"/>
    <path fill="#5D2359" d="M58.5440969,28.7547692 C58.2302873,28.7547692 57.9268547,28.6302837 57.7064257,28.4072455 L56.028494,26.7319031 C55.5720472,26.2676751 55.5772325,25.5233647 56.0362752,25.0617393 C56.4979073,24.6026966 57.2422243,24.6001073 57.706439,25.0565541 L59.3817814,26.7318965 C59.7215239,27.071639 59.8226659,27.5799249 59.6385336,28.0234252 C59.4544013,28.4669255 59.0238873,28.7548024 58.5441235,28.7548024 L58.5440969,28.7547692 Z" transform="scale(-1 1) rotate(2 0 -3279.422)"/>
    <path fill="#5D2359" d="M70.4067053,28.2822486 C69.926915,28.2822486 69.4938117,27.9943784 69.3097059,27.5508714 C69.1281629,27.107391 69.2293115,26.5990719 69.5664581,26.2593427 L71.2443898,24.5840003 C71.7086178,24.1275535 72.4529282,24.1301494 72.9119643,24.5891855 C73.3735964,25.0508176 73.3761923,25.7951346 72.9197455,26.2593493 L71.2444031,27.9346918 C71.0213649,28.1577299 70.7205283,28.2822154 70.4067305,28.2822154 L70.4067053,28.2822486 Z" transform="scale(-1 1) rotate(2 0 -4055.097)"/>
    <path fill="#5D2359" d="M64.5686869,31.5822138 C64.2522879,31.5822138 63.9514447,31.4577283 63.7284264,31.237286 C63.5079842,31.0142479 63.3834987,30.7134112 63.3834987,30.3970255 L63.3834987,28.0266225 C63.3834987,27.3730703 63.9125653,26.8413878 64.5687334,26.8413878 C65.2222789,26.8413878 65.7539681,27.3730438 65.7539681,28.0266225 L65.7539681,30.3970255 C65.7539681,30.7134245 65.6294826,31.0142678 65.4064444,31.237286 C65.1834062,31.4577283 64.8825696,31.5822138 64.5687732,31.5822138 L64.5686869,31.5822138 Z" transform="scale(-1 1) rotate(2 0 -3669.928)"/>
    <path fill="#5D2359" d="M74.9042371,20.5877055 L72.5312448,20.5877055 C71.8776926,20.5877055 71.3460101,20.0560495 71.3460101,19.4024708 C71.3460101,18.7488921 71.877666,18.2172361 72.5312448,18.2172361 L74.9042371,18.2172361 C75.5577826,18.2172361 76.0894718,18.7488921 76.0894718,19.4024708 C76.0894718,20.0560495 75.5578158,20.5877055 74.9042371,20.5877055 Z" transform="scale(-1 1) rotate(2 0 -4203.884)"/>
    <path fill="#5D2359" d="M72.3068844,15.2267498 C71.9930747,15.2267498 71.6922381,15.1022643 71.4692132,14.8792261 L69.7938708,13.2012944 C69.3374239,12.7370664 69.3400199,11.992756 69.7990573,11.5337199 C70.2606894,11.0720879 71.0050064,11.0694919 71.4692198,11.5259387 L73.1445622,13.2012811 C73.4843047,13.5410236 73.5854467,14.0518988 73.4013144,14.4928099 C73.2197714,14.9362903 72.7866681,15.2267764 72.3069043,15.2267764 L72.3068844,15.2267498 Z" transform="scale(-1 1) rotate(2 0 -4081.457)"/>
    <path fill="#5D2359" d="M75.7075912,61.2175175 L50.8104919,13.8067946 C50.8234583,13.7938282 50.8104919,13.7938282 50.8104919,13.7938282 C50.7534344,13.6978714 50.6911917,13.6070999 50.6211677,13.5215137 C50.5381774,13.4488938 50.4525911,13.3814658 50.3592303,13.3192231 C50.2736441,13.2673574 50.1828792,13.2284516 50.0869158,13.2025187 C49.8742548,13.1428719 49.6486207,13.1428719 49.4359596,13.2025187 C49.3400029,13.2284516 49.2466354,13.2673574 49.1636451,13.3192231 C49.0702843,13.3814658 48.984698,13.4488938 48.9017077,13.5215137 C48.8290878,13.604504 48.7642558,13.6952755 48.7123835,13.7938282 L48.7123835,13.8067946 L35.361563,39.2356959 L31.8396525,32.73908 C31.8396525,32.7261136 31.8266861,32.7261136 31.816309,32.7157431 L31.8189049,32.7157431 C31.7722245,32.6275676 31.7125711,32.5471665 31.6399579,32.4797385 C31.5699339,32.4097146 31.4895395,32.3500678 31.4039533,32.3007915 C31.3546769,32.2670708 31.3028113,32.2385487 31.2483431,32.2178011 C31.1964775,32.1944576 31.1394199,32.17371 31.0823624,32.1581477 C30.8956342,32.1114673 30.7011248,32.1114673 30.5143965,32.1581477 C30.4547497,32.1711141 30.4002815,32.1918617 30.3484159,32.2178011 C30.3043248,32.2255757 30.2654255,32.243734 30.2291156,32.2644815 C30.026825,32.3734047 29.8608443,32.5367961 29.7545171,32.73908 L14.3415535,61.1914851 L14.3415535,61.1940744 C14.0329357,61.7698214 14.2455968,62.4881957 14.8187479,62.7994426 C15.394495,63.1132523 16.112866,62.9031805 16.4292915,62.3326253 L30.7972408,35.7989534 L34.3087941,42.2825564 L34.378818,42.4122272 L45.1675611,62.3325656 C45.48396,62.9031274 46.2023509,63.1106165 46.7755153,62.7993829 C47.3486665,62.4855732 47.5639235,61.7697683 47.2553057,61.1940146 L36.7155336,41.7377614 L40.4008355,34.720099 L44.5737221,38.8929857 C45.0431353,39.3520284 45.7900284,39.3520284 46.2594881,38.8929857 L50.1600336,34.9924401 L54.0605792,38.8929857 C54.5273965,39.3520284 55.2742962,39.3520284 55.7437559,38.8929857 L59.3953304,35.2414111 L73.6099143,62.3068837 C73.8122049,62.7036844 74.2193754,62.9500588 74.6654185,62.9474629 C74.8547427,62.9448696 75.038875,62.9007811 75.2100409,62.8177921 C75.4875407,62.672559 75.6976124,62.4209921 75.7909732,62.1201402 C75.8843341,61.8192903 75.853216,61.4951168 75.7079829,61.2176038 L75.7075912,61.2175175 Z M54.9002554,36.3668928 L50.9997099,32.4663472 C50.5354819,32.0047152 49.7834036,32.0047152 49.3165332,32.4663472 L45.4159876,36.3668928 L41.5621158,32.513021 L49.7648802,16.8876015 L58.2431724,33.0242414 L54.9002554,36.3668928 Z" transform="scale(-1 1) rotate(-2 0 2617.364)"/>
    <polygon fill="#5D2359" points="28.632 36.041 14.592 64.537 73.468 59.979 57.132 33.041 52.132 37.041 47.632 33.041 42.632 37.041 37.132 34.041 33.132 43.041" transform="scale(-1 1) rotate(2 0 -2473.684)"/>
    <path fill="#5D2359" d="M113.164659,73.8399764 L114.0499,73.8399764 L114.0499,58.0646696 L114.638868,57.8490803 C115.213376,57.6383102 115.507244,57.0023801 115.297673,56.4290746 C115.107376,55.9111756 114.571406,55.6245229 114.0499,55.7257162 L114.0499,54.3093179 L113.164659,54.3093179 L113.164659,56.0316087 L110.848589,56.8807138 C110.848589,56.8807138 109.091365,52.1306088 106.575468,51.8740797 C103.788458,51.5898381 103.828202,53.1700142 103.654767,54.5044897 L102.65751,62.0560651 L101.348318,66.0196248 L98.1398539,71.1779564 C97.7520386,71.8006253 97.9435351,72.6208394 98.5662102,73.008655 C98.7842075,73.1447542 99.8705928,73.3699849 100.396909,72.5822987 L103.689855,67.290153 C103.745258,67.1998221 103.789821,67.104675 103.823543,67.0035033 L104.665433,64.1779524 L105.797584,67.0865978 L105.834919,73.0243828 C105.839735,73.75546 106.433508,74.3456311 107.163382,74.3456311 L107.171812,74.3456311 C107.905294,74.3408134 108.496668,73.7422327 108.491827,73.0087506 L108.453286,66.8724021 C108.45208,66.7411221 108.43281,66.6110446 108.393066,66.4857893 L107.406662,63.3217248 L108.236497,56.9599881 L109.493891,58.836443 C109.875693,59.5385989 110.669392,59.3049478 110.794666,59.2591918 L113.164939,58.3908162 L113.164659,73.8399764 Z" transform="scale(-1 1) rotate(-3 0 4135.977)"/>
    <path fill="#5D2359" d="M103.156388,48.7169619 C103.156388,50.1321269 104.301765,51.2775355 105.716961,51.2775355 C107.130924,51.2775355 108.276332,50.1333602 108.276332,48.7169619 C108.276332,48.6687856 110.027544,48.5712275 110.003464,48.3279442 C109.94806,47.7739091 108.2944,47.6739491 108.2944,47.6643293 C108.2944,46.4262064 107.104438,45.4217346 105.637474,45.4217346 C104.169308,45.4217346 103.15278,46.438262 102.979346,47.6643293 C102.854087,48.5495705 103.156394,48.6411132 103.156394,48.7169927 L103.156388,48.7169619 Z" transform="scale(-1 1) rotate(-3 0 4114.517)"/>
    <path fill="#5D2359" d="M110.826594,55.7382045 L110.409857,58.6865934 C110.385771,58.8564144 110.517051,59.0141922 110.701323,59.0406776 L113.127003,59.3839394 C113.312481,59.4104371 113.481087,59.2936085 113.506401,59.124993 L113.927948,56.1404681 L110.826594,55.7382045 Z" transform="scale(-1 1) rotate(-3 0 4341.066)"/>
    <path fill="#5D2359" d="M113.739534,55.9440148 L114.073145,53.3232247 C114.083986,53.242529 113.917775,53.1558117 113.703398,53.129314 L110.882688,52.7703891 C110.667098,52.7426889 110.485222,52.786046 110.474399,52.8655361 L110.140788,55.4863262 L113.739534,55.9440148 Z" transform="scale(-1 1) rotate(-3 0 4335.555)"/>
  </g>
</svg>
