<svg xmlns="http://www.w3.org/2000/svg" width="115" height="75" viewBox="0 0 115 75">
  <g fill="#5D2359" fill-rule="evenodd" transform="matrix(-1 0 0 1 117 0)">
    <path stroke="#5D2359" stroke-width=".5" d="M100.638,0.581353623 C96.7669522,0.581353623 93.9320292,3.65707262 93.6185977,7.08559287 C91.3022559,7.95349619 89.6511094,10.1793182 89.6511094,12.7890099 C89.6511094,16.1497776 92.3942613,18.892838 95.7549375,18.892838 L110.404125,18.892838 C113.907722,18.892838 116.507953,16.4417848 116.507953,13.3993927 C116.507953,11.0699277 115.034458,8.8178593 112.759897,8.096692 C112.551272,6.34541216 111.654769,4.95901915 110.413739,4.21496251 C109.234693,3.50682689 107.81366,3.36735441 106.49386,3.76669737 C105.314814,1.9772686 103.269208,0.58110947 100.637847,0.58110947 L100.638,0.581353623 Z M100.638,2.41250206 C102.889977,2.41250206 104.539872,3.72030828 105.311091,5.26414952 C105.539984,5.71360491 106.090763,5.8936068 106.541378,5.66471324 C107.476027,5.19740416 108.60142,5.26176903 109.478846,5.78869725 C110.356271,6.31562547 111.014325,7.27055413 111.014325,8.82153685 C111.017902,9.26501048 111.338591,9.64411925 111.777303,9.71803661 C113.445113,9.99819316 114.676622,11.702971 114.676622,13.3992553 C114.676622,15.4414131 113.106564,17.0615522 110.403942,17.0615522 L95.7547544,17.0615522 C93.3835698,17.0615522 91.4820747,15.1588669 91.4820747,12.7888725 C91.4820747,10.7824832 92.8566263,9.11833549 94.7055063,8.64986669 C95.1132115,8.54376384 95.396948,8.17419536 95.392187,7.75336693 C95.3659588,5.05431517 97.5464111,2.41251732 100.637817,2.41251732 L100.638,2.41250206 Z"/>
    <g transform="rotate(2 -61.58 1123.01)">
      <g transform="rotate(-4 64.274 -3.673)">
        <g transform="rotate(4 -.76 25.855)">
          <path d="M11.9706026 17.8794369C9.57165087 17.8794369 7.41131297 16.434874 6.49324074 14.2200944 5.5751685 12.0053149 6.08347432 9.45332901 7.77700157 7.75979512 9.47312475 6.06367193 12.0224549 5.55537275 14.2373009 6.47344499 16.4546697 7.39151722 17.8966433 9.55444442 17.8966433 11.9508068 17.8940474 15.2237463 15.2409528 17.8742583 11.9706026 17.8794369zM11.9706026 8.39530187C10.5312183 8.39530187 9.23451095 9.26152175 8.68471661 10.589367 8.13231305 11.9198016 8.43834155 13.4499442 9.45499967 14.4665425 10.4716578 15.4831409 12.0017405 15.7866199 13.3321751 15.2368256 14.6600204 14.687018 15.5262403 13.3903239 15.5262403 11.9509396 15.5236444 9.98772034 13.9338882 8.39530187 11.9706026 8.39530187zM11.9706026 4.83667649C11.6542036 4.83667649 11.3533603 4.71219099 11.1303421 4.48915281 10.9098998 4.26871058 10.7854143 3.96527801 10.7854143 3.65148161L10.7854143 1.28107858C10.7854143.624937109 11.314481.0958438734 11.9706491.0958438734 12.6241946.0958438734 13.1558838.624910553 13.1558838 1.28107858L13.1558838 3.65148161C13.1558838 3.96529129 13.0313983 4.26872386 12.8083601 4.48915281 12.5853219 4.71219099 12.2844853 4.83667649 11.9706889 4.83667649L11.9706026 4.83667649zM18.5912392 7.70017486C18.1114489 7.70017486 17.6809349 7.4097087 17.4968291 6.96620838 17.3126968 6.5253239 17.4138388 6.01440887 17.7535813 5.67467965L19.431513 3.99933724C19.8931451 3.54289042 20.6400514 3.54548636 21.0990875 4.00711842 21.5581303 4.46616117 21.5633155 5.21047821 21.1068687 5.67469293L19.4315263 7.35262464C19.2084881 7.57566281 18.9076515 7.70014831 18.5912658 7.70014831L18.5912392 7.70017486zM22.6398395 13.1357096L20.2694365 13.1357096C19.613295 13.1357096 19.0842018 12.6040536 19.0842018 11.9504749 19.0842018 11.2968961 19.6132685 10.7652402 20.2694365 10.7652402L22.6398395 10.7652402C23.2933917 10.7652402 23.8250742 11.2968961 23.8250742 11.9504749 23.8250742 12.6040536 23.2934182 13.1357096 22.6398395 13.1357096zM19.5745087 20.7396157C19.260699 20.7396157 18.9572664 20.6151302 18.7368375 20.392092L17.0589057 18.7167496C16.6024589 18.2525216 16.6076442 17.5082112 17.0666869 17.0465858 17.528319 16.587543 18.272636 16.5849537 18.7368507 17.0414005L20.4121931 18.7167429C20.7519356 19.0564854 20.8530776 19.5647713 20.6689453 20.0082717 20.484813 20.451772 20.054299 20.7396489 19.5745352 20.7396489L19.5745087 20.7396157zM4.36643093 20.7396157C3.88664059 20.7396157 3.45353729 20.4517454 3.26943154 20.0082385 3.08788853 19.5647581 3.18903714 19.056439 3.5261837 18.7167097L5.20411541 17.0413673C5.6683434 16.5849205 6.4126538 16.5875165 6.87168992 17.0465526 7.33332198 17.5081846 7.33591792 18.2525017 6.8794711 18.7167164L5.20412869 20.3920588C4.98109051 20.615097 4.68025388 20.7395825 4.36645616 20.7395825L4.36643093 20.7396157zM11.9706026 23.8049465C11.6542036 23.8049465 11.3533603 23.680461 11.1303421 23.4600188 10.9098998 23.2369806 10.7854143 22.936144 10.7854143 22.6197583L10.7854143 20.2493553C10.7854143 19.5958031 11.314481 19.0641205 11.9706491 19.0641205 12.6241946 19.0641205 13.1558838 19.5957765 13.1558838 20.2493553L13.1558838 22.6197583C13.1558838 22.9361573 13.0313983 23.2370005 12.8083601 23.4600188 12.5853219 23.680461 12.2844853 23.8049465 11.9706889 23.8049465L11.9706026 23.8049465zM3.67137031 13.1357096L1.29837798 13.1357096C.644825806 13.1357096.113143272 12.6040536.113143272 11.9504749.113143272 11.2968961.64479925 10.7652402 1.29837798 10.7652402L3.67137031 10.7652402C4.32491584 10.7652402 4.85660502 11.2968961 4.85660502 11.9504749 4.85660502 12.6040536 4.32494904 13.1357096 3.67137031 13.1357096zM5.34664632 7.70017486C5.03283665 7.70017486 4.73200002 7.57568937 4.50897512 7.35265119L2.83363271 5.67471949C2.37718589 5.21049149 2.37978183 4.46618109 2.83881928 4.00714497 3.30045133 3.54551292 4.04476837 3.54291698 4.50898176 3.9993638L6.18432417 5.67470621C6.52406666 6.0144487 6.62520864 6.5253239 6.44107633 6.96623493 6.25953332 7.40971534 5.82643002 7.70020142 5.34666624 7.70020142L5.34664632 7.70017486z"/>
        </g>
        <path d="M62.1597579,55.0158729 L37.2626586,7.60515004 C37.275625,7.59218363 37.2626586,7.59218363 37.2626586,7.59218363 C37.2056011,7.49622689 37.1433583,7.40545539 37.0733344,7.31986912 C36.9903441,7.24724926 36.9047578,7.17982127 36.811397,7.11757853 C36.7258107,7.06571289 36.6350459,7.02680702 36.5390825,7.0008742 C36.3264214,6.94122739 36.1007873,6.94122739 35.8881262,7.0008742 C35.7921695,7.02680702 35.6988021,7.06571289 35.6158117,7.11757853 C35.5224509,7.17982127 35.4368647,7.24724926 35.3538743,7.31986912 C35.2812545,7.40285945 35.2164224,7.49363095 35.1645501,7.59218363 L35.1645501,7.60515004 L21.8137296,33.0340514 L18.2918192,26.5374355 C18.2918192,26.5244691 18.2788528,26.5244691 18.2684756,26.5140986 L18.2710716,26.5140986 C18.2243912,26.425923 18.1647377,26.345522 18.0921245,26.278094 C18.0221006,26.2080701 17.9417062,26.1484233 17.8561199,26.0991469 C17.8068436,26.0654263 17.754978,26.0369042 17.7005097,26.0161566 C17.6486441,25.9928131 17.5915866,25.9720655 17.5345291,25.9565031 C17.3478008,25.9098227 17.1532914,25.9098227 16.9665632,25.9565031 C16.9069164,25.9694696 16.8524481,25.9902171 16.8005825,26.0161566 C16.7564914,26.0239311 16.7175922,26.0420894 16.6812822,26.062837 C16.4789917,26.1717601 16.313011,26.3351515 16.2066838,26.5374355 L0.793720189,54.9898405 L0.793720189,54.9924298 C0.485102385,55.5681769 0.697763449,56.2865512 1.27091459,56.5977981 C1.84666167,56.9116078 2.56503262,56.701536 2.88145815,56.1309808 L17.2494075,29.5973089 L20.7609608,36.0809119 L20.8309847,36.2105826 L31.6197277,56.130921 C31.9361267,56.7014829 32.6545175,56.908972 33.227682,56.5977383 C33.8008331,56.2839287 34.0160901,55.5681238 33.7074723,54.9923701 L23.1677003,35.5361169 L26.8530021,28.5184545 L31.0258887,32.6913411 C31.495302,33.1503839 32.242195,33.1503839 32.7116547,32.6913411 L36.6122003,28.7907956 L40.5127458,32.6913411 C40.9795631,33.1503839 41.7264628,33.1503839 42.1959225,32.6913411 L45.8474971,29.0397666 L60.062081,56.1052392 C60.2643716,56.5020399 60.671542,56.7484143 61.1175852,56.7458183 C61.3069094,56.743225 61.4910417,56.6991366 61.6622076,56.6161476 C61.9397073,56.4709145 62.1497791,56.2193476 62.2431399,55.9184957 C62.3365007,55.6176458 62.3053826,55.2934723 62.1601496,55.0159592 L62.1597579,55.0158729 Z M41.3524221,30.1652482 L37.4518765,26.2647027 C36.9876485,25.8030706 36.2355702,25.8030706 35.7686998,26.2647027 L31.8681543,30.1652482 L28.0142825,26.3113764 L36.2170468,10.6859569 L44.695339,26.8225969 L41.3524221,30.1652482 Z"/>
      </g>
      <polygon points="20 32 4 64.5 61 49.75 48.5 29 43.5 33 39 29 34 33 28.5 30 24.5 39"/>
    </g>
    <g transform="rotate(-3 877.297 13.818)">
      <path d="M15.4694449 28.3998069L16.3546861 28.3998069 16.3546861 12.6245001 16.9436547 12.4089108C17.5181628 12.1981407 17.8120304 11.5622106 17.6024597 10.9889051 17.4121626 10.4710061 16.8761925 10.1843534 16.3546861 10.2855467L16.3546861 8.86914839 15.4694449 8.86914839 15.4694449 10.5914392 13.1533756 11.4405443C13.1533756 11.4405443 11.3961512 6.69043933 8.88025438 6.43391022 6.09324451 6.14966858 6.13298802 7.72984468 5.95955338 9.06432017L4.96229649 16.6158956 3.65310392 20.5794553.444640167 25.7377869C.0568248962 26.3604558.248321405 27.1806699.870996469 27.5684855 1.08899379 27.7045847 2.17537912 27.9298154 2.70169544 27.1421292L5.99464113 21.8499835C6.05004464 21.7596525 6.09460732 21.6645055 6.12832918 21.5633338L6.97021946 18.7377829 8.10236996 21.6464283 8.13970542 27.5842133C8.14452151 28.3152905 8.73829389 28.9054616 9.46816851 28.9054616L9.47659821 28.9054616C10.2100803 28.9006439 10.8014539 28.3020632 10.7966131 27.5685811L10.7580721 21.4322326C10.7568665 21.3009526 10.737596 21.1708751 10.6978525 21.0456198L9.71144875 17.8815553 10.5412834 11.5198186 11.7986768 13.3962735C12.1804797 14.0984294 12.9741783 13.8647783 13.099452 13.8190223L15.4697255 12.9506467 15.4694449 28.3998069zM6.58434974 3.30620381C6.58434974 4.7213688 7.72972752 5.86677741 9.14492335 5.86677741 10.5588859 5.86677741 11.7042945 4.72260211 11.7042945 3.30620381 11.7042945 3.25802752 13.4555064 3.16046938 13.431426 2.91718606 13.3760225 2.36315103 11.7223625 2.26319101 11.7223625 2.25357117 11.7223625 1.01544825 10.5324005.0109764856 9.06543632.0109764856 7.5972697.0109764856 6.5807423 1.02750389 6.40730766 2.25357117 6.28204931 3.1388124 6.58435591 3.23035506 6.58435591 3.30623464L6.58434974 3.30620381z"/>
      <path d="M2.39786879 10.0169681L1.98113233 12.965357C1.95704572 13.135178 2.08832573 13.2929558 2.2725981 13.3194412L4.6982781 13.662703C4.88375604 13.6892007 5.05236226 13.5723721 5.07767601 13.4037566L5.49922239 10.4192317 2.39786879 10.0169681zM5.59924099 10.2303313L5.93285215 7.60954117C5.94369297 7.5288455 5.77748247 7.44212818 5.56310492 7.41563045L2.74239477 7.05670554C2.52680549 7.02900533 2.34492883 7.07236244 2.33410651 7.15185255L2.00049534 9.77264266 5.59924099 10.2303313z"/>
    </g>
  </g>
</svg>
