<svg xmlns="http://www.w3.org/2000/svg" width="222" height="91" viewBox="0 0 222 91">
  <g fill="none" fill-rule="evenodd" opacity=".713" transform="translate(.848 .03)">
    <polygon fill="#B0AEA6" points="165.582 45.738 123.23 59.603 172.993 73.557 166.216 46.625"/>
    <polygon fill="#ACAAA3" points="122.814 59.602 122.814 59.959 122.173 78.267 172.565 73.823 172.993 73.558 123.23 59.602"/>
    <polygon fill="#D1CAC0" points="172.992 73.558 173.627 73.558 190.995 64.667 166.215 46.626"/>
    <polygon fill="#DFD7D0" points="103.752 76.487 104.495 76.846 122.174 78.268 122.814 59.957"/>
    <polygon fill="#A0ABA4" points="200.093 56.932 201.152 43.603 200.836 42.451 195.225 35.962"/>
    <polygon fill="#DED6CF" points="122.814 59.602 106.932 57.559 103.751 76.486 122.814 59.959"/>
    <polygon fill="#DAD6CC" points="190.994 64.667 199.777 59.602 199.777 59.339 166.217 46.627"/>
    <polygon fill="#9AA6A7" points="195.224 35.962 200.835 42.451 197.973 28.498 194.48 34.717"/>
    <polygon fill="#E4E4E0" points="193.743 34.717 194.48 34.717 197.973 28.498 198.398 27.96 196.601 27.076 170.872 19.609 170.872 19.963"/>
    <polygon fill="#D8D7D0" points="194.48 34.717 193.743 34.717 166.216 45.117 165.582 45.738 166.216 46.627 199.776 59.338 200.52 58.446 200.092 56.933 195.224 35.963"/>
    <polygon fill="#9A9A94" points="62.147 51.34 60.351 51.605 68.499 54.27 63.95 51.962 63.525 51.605"/>
    <polygon fill="#CFCECA" points="62.147 51.067 61.401 50.713 60.77 50.448 58.973 49.826 56.857 49.291 55.798 52.226 56.857 53.38 60.351 51.607 62.147 51.339"/>
    <polygon fill="#E9E7E2" points="60.77 50.448 61.401 50.713 62.148 51.067 62.886 51.067 62.886 50.713 63.526 40.937 62.148 42.18 62.148 42.45 59.711 47.513 58.973 49.826"/>
    <polygon fill="#CEC8C2" points="76.225 52.225 62.886 51.066 63.524 51.606 64.58 51.963 78.022 55.514 77.29 53.734"/>
    <polygon fill="#E0DBD3" points="62.147 51.066 62.147 51.341 63.525 51.606 62.885 51.066"/>
    <polygon fill="#EDE7DF" points="77.291 53.735 78.022 55.515 79.082 56.67 81.203 59.602 89.673 71.51 93.167 72.929 103.118 76.221 100.578 73.291"/>
    <polygon fill="#F2ECE5" points="75.911 45.738 75.911 46.271 100.575 73.289 103.119 76.222 103.753 76.487 106.933 57.557"/>
    <polygon fill="#ABA7A1" points="63.95 51.962 64.579 51.962 63.525 51.605"/>
    <polygon fill="#BFBCB9" points="61.087 41.559 51.56 32.94 58.228 44.494 60.034 43.067"/>
    <polygon fill="#E6E4DF" points="59.71 47.514 62.147 42.451 60.031 43.068 58.229 44.492 57.913 45.116 58.229 46.27"/>
    <polygon fill="#AFACAA" points="62.147 42.452 62.147 42.182 63.525 40.938 63.525 40.673 63.95 40.049 61.088 41.56 60.032 43.068"/>
    <polygon fill="#EFEDE8" points="63.525 40.938 62.884 50.713 74.11 39.516 65.64 38.899 64.262 38.899 63.952 39.162 63.525 39.516 63.952 40.051 63.525 40.675"/>
    <polygon fill="#E6E2DB" points="63.525 39.515 63.95 39.163 64.26 38.898 63.525 38.628"/>
    <polygon fill="#DBD7D1" points="16.939 60.487 15.883 60.842 14.82 61.736 15.248 62.271 32.505 61.114 34.299 33.561"/>
    <polygon fill="#DED9D3" points="34.298 33.561 34.619 32.674 34.619 32.407 24.352 33.561 24.352 34.182 15.882 60.842 16.938 60.487"/>
    <polygon fill="#C7C2BE" points="55.797 52.225 56.856 49.291 57.594 46.898 58.228 46.271 57.913 45.117 35.685 32.939 54.42 54.893"/>
    <polygon fill="#DEDEDB" points="137.629 32.673 168.336 31.786 130.223 4.501 128.84 3.966 128.524 4.238 136.57 32.673"/>
    <polygon fill="#FEFEFA" points="135.94 32.673 136.569 32.673 95.282 21.741 95.282 22.006 102.064 34.181"/>
    <polygon fill="#FBFCF9" points="102.063 34.182 95.28 22.007 93.593 23.787 75.59 45.117"/>
    <polygon fill="#FAFBF7" points="128.524 4.237 96.761 20.853 95.28 21.74 136.57 32.672"/>
    <polygon fill="#D8D6D5" points="170.872 19.963 170.872 19.609 169.819 19.079 166.216 17.563 130.225 4.501 168.338 31.784"/>
    <polygon fill="#E3E1E3" points="74.11 36.49 74.535 38.003 75.91 37.116 85.439 22.9 80.887 28.23 79.084 30.632 75.163 35.61"/>
    <polygon fill="#F9F9F8" points="74.533 38.272 74.109 39.515 75.59 45.118 93.593 23.786 75.911 37.116 74.533 38.005"/>
    <polygon fill="#FAFBFB" points="67.12 37.116 67.754 37.116 75.166 35.61 79.084 30.632 64.261 35.34 63.524 38.627 66.067 37.384"/>
    <polygon fill="#EFEDE8" points="67.755 37.117 67.121 37.117 66.068 37.384 63.525 38.627 64.262 38.897 65.64 38.897 72.735 36.849"/>
    <polygon fill="#C1BEB7" points="57.596 46.898 56.859 49.293 58.971 49.827 59.709 47.512 58.228 46.271"/>
    <polygon fill="#C1BCB7" points="24.032 69.736 52.937 56.045 32.506 61.115"/>
    <polygon fill="#C2BAB1" points="93.904 80.042 106.298 79.507 102.064 77.377 94.647 79.507"/>
    <polygon fill="#F0EBE2" points="107.353 56.668 106.931 57.557 122.813 59.603 117.511 42.18"/>
    <polygon fill="#E5E1DB" points="166.216 45.117 168.337 31.785 137.63 32.674 165.582 45.739"/>
    <polygon fill="#E6E3DC" points="165.582 45.738 137.628 32.674 136.568 32.674 135.94 32.674 117.94 41.825"/>
    <polygon fill="#FCF8EF" points="117.939 41.825 102.382 34.45 107.353 56.668 117.511 42.182"/>
    <polygon fill="#D3CEC4" points="117.512 42.181 122.814 59.602 123.227 59.602 165.582 45.74 117.94 41.824"/>
    <polygon fill="#D0CBC8" points="35.684 32.939 34.622 32.674 34.297 33.561 32.506 61.114 52.937 56.044 54.421 55.514 54.421 54.893"/>
    <polygon fill="#F8F5EF" points="117.939 41.825 135.942 32.674 102.063 34.182 102.382 34.45"/>
    <polygon fill="#E9E1E0" points="14.506 62.001 15.246 62.271 14.822 61.736"/>
    <polygon fill="#FEFCF4" points="106.933 57.558 107.354 56.669 102.38 34.451 102.064 34.183 75.591 45.118 75.91 45.74"/>
    <polygon fill="#F2F0E8" points="193.743 34.717 168.337 31.784 166.216 45.117"/>
    <polygon fill="#BAB2A9" points="102.063 77.377 100.576 76.488 94.646 79.507"/>
    <polygon fill="#B6B5B6" points="54.42 54.893 56.857 53.38 55.798 52.226"/>
    <polygon fill="#ADA9A3" points="154.253 83.6 169.816 75.955 169.816 75.6 170.872 75.331 172.566 73.825 122.174 78.268"/>
    <polygon fill="#DCD6CD" points="77.291 53.735 100.578 73.291 75.91 46.27 76.226 52.226"/>
    <polygon fill="#EEEEEA" points="170.872 19.963 168.338 31.784 193.743 34.717"/>
    <polygon fill="#FEFEFE" points="67.755 37.117 72.735 36.849 74.11 36.49 75.164 35.611"/>
    <polygon fill="#FEFCFB" points="74.533 38.004 74.109 36.49 72.737 36.85 65.638 38.898 74.109 39.514 74.533 38.271"/>
    <polygon fill="#F6F5F0" points="75.591 45.117 74.11 39.515 62.884 50.714 75.909 45.739"/>
    <polygon fill="#F2F1EB" points="76.225 52.225 75.912 46.271 75.912 45.739 62.886 50.715 62.886 51.066"/>
    <polygon fill="#AFACA7" points="60.349 51.606 56.856 53.38 54.419 54.893 54.419 55.514 71.994 56.044 68.501 54.269"/>
    <polygon fill="#B3B0AF" points="121.119 85.997 128.102 89.553 122.172 78.267 104.494 76.846"/>
    <polygon fill="#F0ECE7" points="5.72 35.34 2.123 43.956 24.351 34.183"/>
    <polygon fill="#D5CFC9" points="3.595 53.734 3.92 52.226 2.858 49.291"/>
    <polygon fill="#E4DDD5" points="14.821 61.735 14.508 61.114 3.92 52.225 3.595 53.736 3.182 57.29 3.595 58.446 4.66 59.957 14.508 62"/>
    <polygon fill="#DFDEDC" points="0 51.962 3.18 57.289 3.596 53.733 2.856 49.292 2.121 47.16 1.803 46.003 1.487 45.384"/>
    <polygon fill="#C7C3BF" points="61.087 41.559 63.952 40.051 63.524 39.516 63.524 38.627 64.262 35.34 63.524 35.073 51.879 31.786 50.82 31.786 51.56 32.94"/>
    <polygon fill="#C8C4C1" points="34.62 32.673 35.683 32.938 57.913 45.116 58.229 44.492 51.561 32.938 50.818 31.786 49.759 31.519 34.62 32.408"/>
    <polygon fill="#BDBABB" points="49.758 31.519 35.998 27.076 34.62 32.406"/>
    <polygon fill="#F3F3EE" points="35.998 27.076 17.685 22.898 24.353 33.56"/>
    <polygon fill="#F2F1ED" points="34.62 32.407 35.998 27.077 24.353 33.561"/>
    <polygon fill="#E6E5E4" points="24.352 33.561 17.684 22.899 5.721 35.342 24.352 34.182"/>
    <polygon fill="#E5DED7" points="1.487 45.384 1.803 46.003 2.121 47.16 2.856 49.292 3.918 52.225 14.507 61.114 1.803 45.117"/>
    <polygon fill="#CDC6BE" points="74.533 58.18 73.049 57.558 78.767 74.712 80.885 76.22 92.106 79.774"/>
    <polygon fill="#B9B4AF" points="73.05 56.668 72.737 56.406 69.557 57.29 61.086 60.487 78.765 74.711 73.05 57.557"/>
    <polygon fill="#B9B5B0" points="24.032 70.266 40.233 67.958 61.088 60.488 69.559 57.291"/>
    <polygon fill="#C5C0BC" points="15.247 62.27 14.507 62.003 4.659 59.957 6.355 61.379 21.178 69.376"/>
    <polygon fill="#B5B1AE" points="130.224 89.817 129.159 90.174 139.432 90.174 148.959 88.401"/>
    <polygon fill="#B4B2B1" points="72.736 56.405 71.995 56.043 54.42 55.516 52.936 56.043 24.032 69.737 23.288 70.267 24.032 70.267 69.558 57.289"/>
    <polygon fill="#C4C0BE" points="6.356 61.378 13.127 67.601 21.597 70.266 21.175 69.375"/>
    <polygon fill="#BCB7B1" points="32.506 61.114 15.246 62.271 21.176 69.376 21.598 70.265 22.979 70.622 23.289 70.265 24.032 69.735"/>
    <polygon fill="#EAE3DC" points="2.122 43.957 1.803 45.117 14.507 61.114 14.823 61.735 15.882 60.841 24.352 34.182"/>
    <polygon fill="#909893" points="200.093 56.933 200.521 58.446 199.777 59.337 199.777 59.603 200.521 67.065 220.636 51.962 220.952 50.714 201.152 43.603"/>
    <polygon fill="#B7B6B7" points="198.399 27.961 199.777 28.229 211.427 30.631 185.692 21.74 196.602 27.077"/>
    <polygon fill="#C9C6BF" points="190.994 64.667 199.777 67.602 200.521 67.067 199.777 59.602"/>
    <polygon fill="#9FAAAC" points="198.399 27.961 197.971 28.499 200.836 42.453 201.154 43.602 214.915 35.34 214.596 34.718 199.777 28.229"/>
    <polygon fill="#A3ACAE" points="214.597 34.717 213.219 31.16 211.428 30.633 199.777 28.23"/>
    <polygon fill="#96A09D" points="201.152 43.603 220.952 50.714 214.916 35.341"/>
    <polygon fill="#B9B5AD" points="173.626 73.558 178.604 72.669 199.775 67.601 190.995 64.667"/>
    <polygon fill="#ADAAAB" points="172.992 73.558 172.565 73.823 170.871 75.331 169.818 75.599 169.818 75.955 157.745 84.483 178.604 72.669 173.627 73.558"/>
    <polygon fill="#D9D2CB" points="94.647 79.508 100.577 76.486 93.166 72.93 89.673 71.51 81.202 59.603 73.051 56.668 73.051 57.559 74.535 58.181 92.107 79.773 92.85 80.043 93.904 80.043"/>
    <polygon fill="#DEDEDB" points="128.525 .057 128.84 3.967 130.224 4.502 166.215 17.565 130.962 .946"/>
    <polygon fill="#E6E6E3" points="196.601 27.076 185.693 21.741 181.781 20.228 170.871 19.609"/>
    <polygon fill="#F3F3F3" points="86.182 21.741 86.182 22.006 85.439 22.63 85.439 22.9 75.912 37.116 93.593 23.786 95.281 22.006 95.281 21.741 91.472 15.168 89.991 16.676 89.357 17.295 86.811 20.854"/>
    <polygon fill="#C9C9CB" points="96.762 20.853 114.021 2.724 91.472 15.167 95.281 21.74"/>
    <polygon fill="#C9C9CB" points="85.439 22.899 85.439 22.632 86.182 22.008 86.182 21.74 86.811 20.854 89.357 17.295 61.402 32.407 80.886 28.229"/>
    <polygon fill="#E6E6E5" points="64.262 35.341 79.082 30.633 80.887 28.23 61.4 32.406 60.769 32.673 60.35 32.938 63.525 35.073"/>
    <polygon fill="#F2F2F0" points="128.524 4.237 115.823 1.832 114.02 2.724 96.761 20.853"/>
    <polygon fill="#C7C5C6" points="166.217 17.564 169.816 19.077 159.555 10.72 130.963 .945"/>
    <polygon fill="#EBEAE8" points="128.525 .057 115.823 1.833 128.525 4.235 128.84 3.967"/>
    <polygon fill="#BFBEBF" points="170.872 19.61 181.779 20.229 159.554 10.721 169.819 19.077"/>
    <polygon fill="#CBCAC6" points="60.349 32.939 51.879 31.785 63.524 35.072"/>
    <polygon fill="#B0ABA6" points="130.224 89.817 148.959 88.401 149.702 88.401 150.755 88.042 152.455 87.772 154.254 83.601"/>
    <polygon fill="#B8B5AE" points="93.905 80.043 92.851 80.043 101.638 80.662 106.93 79.773 106.299 79.508"/>
    <polygon fill="#BFB9B7" points="103.752 76.487 103.117 76.222 93.166 72.928 100.577 76.487 102.064 77.376 106.298 79.508 106.932 79.773 121.12 85.997 104.495 76.846"/>
    <polygon fill="#BAB5AD" points="78.023 55.515 64.578 51.961 63.95 51.961 68.499 54.269 71.995 56.045 72.736 56.404 79.082 56.669"/>
    <polygon fill="#B2ADAA" points="128.102 89.554 129.159 90.174 130.224 89.817 154.254 83.6 122.172 78.266"/>
    <polygon fill="#ACA89E" points="154.254 83.601 152.455 87.771 156.686 85.107 157.748 84.846 157.748 84.482 169.817 75.955"/>
    <polygon fill="#BBB4AF" points="79.083 56.668 72.737 56.406 73.049 56.668 81.204 59.603"/>
  </g>
</svg>
