<svg xmlns="http://www.w3.org/2000/svg" width="182" height="92" viewBox="0 0 182 92">
  <g fill="none" fill-rule="evenodd">
    <g transform="matrix(-1 0 0 1 181.876 29.215)">
      <polygon fill="#D3CECA" points="42.59 52.205 42.867 52.413 47.192 50.832 59.349 46.024 57.015 40.734 45.133 40.253"/>
      <polygon fill="#D8D1C6" points="46.711 38.469 45.133 40.253 57.015 40.735 53.373 32.286 52.893 32.009 51.108 33.659"/>
      <polygon fill="#E5DFD9" points="33.453 44.857 42.59 52.205 45.133 40.254"/>
      <polygon fill="#DAD4D0" points="30.913 36.818 27.476 42.999 28.162 43.277 33.453 44.856 33.661 44.169"/>
      <polygon fill="#F5EFE8" points="44.237 39.36 38.95 36.405 37.781 35.721 37.369 35.721 33.661 44.169 33.453 44.857 45.134 40.254"/>
      <polygon fill="#FBF9F3" points="46.3 31.322 47.88 35.445 48.565 35.033 49.46 33.66 51.793 29.539 50.628 26.309 46.507 30.636"/>
      <polygon fill="#FEFEFA" points="5.084 35.722 5.084 34.345 3.918 35.722 3.711 36.405 4.81 38.675 5.293 38.879 4.81 36.614"/>
      <polygon fill="#FEFDF8" points="52.688 31.322 52.481 30.432 50.146 33.385"/>
      <polygon fill="#F9F8EE" points="49.459 33.659 48.565 35.033 47.88 35.444 47.88 35.722 47.88 35.927 51.108 33.659 52.893 32.009 52.893 31.322 52.687 31.322 50.146 33.384"/>
      <polygon fill="#E4DED8" points="12.16 37.988 16.968 43.689 17.86 44.649 18.821 41.904"/>
      <polygon fill="#FEFDF8" points="7.35 34.071 8.517 37.779 11.267 37.297"/>
      <polygon fill="#E5DFDA" points="11.267 37.298 8.516 37.778 8.516 37.988 9.892 39.153 16.968 43.689 12.16 37.988"/>
      <polygon fill="#FEFDF8" points="7.146 33.864 5.084 35.721 4.81 36.613 8.518 37.778 7.35 34.071"/>
      <polygon fill="#FEFDF8" points="5.77 33.178 5.084 34.071 5.084 34.345 5.084 35.721 7.146 33.864"/>
      <polygon fill="#F2F2F1" points="5.77 33.178 5.98 32.698 9.892 26.101 3.917 29.743 3.435 30.637 3.917 35.721 5.084 34.345 5.084 34.071"/>
      <polygon fill="#B9B4B2" points="27.477 42.999 17.86 44.651 28.163 48.772 28.163 43.277"/>
      <polygon fill="#EEE9DF" points="50.627 26.31 48.772 21.98 48.565 21.98 46.506 30.636"/>
      <polygon fill="#C9C4C2" points="28.163 48.771 33.453 44.857 28.163 43.277"/>
      <polygon fill="#CBC6C5" points="18.821 41.904 17.859 44.65 27.477 42.999"/>
      <polygon fill="#BAB9BD" points="5.98 23.354 5.98 23.562 5.77 23.766 5.77 24.046 5.5 24.25 5.292 24.729 1.17 32.697 3.434 30.636 3.917 29.743 6.665 22.669"/>
      <polygon fill="#F3F2F2" points="11.474 23.082 12.16 22.876 24.73 2.471 20.196 2.06 19.028 2.954 18.342 3.846 18.342 4.535"/>
      <polygon fill="#CDCDCD" points="7.558 20.815 8.245 19.919 9.412 17.859 10.992 14.149 9.617 15.525 7.558 19.919 7.558 20.127 7.35 21.019"/>
      <polygon fill="#D9D8D9" points="18.342 4.534 18.342 3.847 13.535 8.93 10.992 14.148 9.412 17.859"/>
      <polygon fill="#F6F1E8" points="37.576 35.445 46.299 31.322 46.507 30.636 48.565 21.98 48.361 21.019 48.084 21.019 38.263 34.346"/>
      <polygon fill="#F7F7F5" points="3.435 36.405 .483 37.506 4.81 38.674 3.711 36.405"/>
      <polygon fill="#E9E8E7" points=".482 37.505 3.434 36.405 0 34.552"/>
      <polygon fill="#DBDADA" points="1.17 32.698 .001 34.553 3.434 36.406 3.917 35.721 3.434 30.637"/>
      <polygon fill="#A7A5AA" points="7.146 21.981 7.146 21.502 7.35 21.296 7.35 21.018 7.557 20.128 5.981 23.354 6.665 22.668"/>
      <polygon fill="#D6CFC4" points="47.192 18.754 45.338 14.149 34.619 16.006"/>
      <polygon fill="#9B9897" points="33.935 15.798 34.621 16.007 45.338 14.148 41.216 5.015 40.803 4.809 40.324 5.495"/>
      <polygon fill="#E5DED4" points="43.273 21.296 47.672 19.919 47.192 18.754 34.62 16.007"/>
      <polygon fill="#AAA9AB" points="20.195 2.06 24.729 2.473 27.476 1.374"/>
      <polygon fill="#F8F3E9" points="43.551 21.501 38.264 34.346 48.085 21.019 47.879 19.919 47.672 19.919 43.274 21.296"/>
      <polygon fill="#E9E7E3" points="28.646 1.099 28.163 1.099 27.753 1.374 27.477 1.374 24.73 2.471 27.957 4.809 31.875 .205"/>
      <polygon fill="#B5B3B2" points="32.973 0 31.875 .205 27.957 4.808 40.531 3.847 40.324 3.161 40.117 2.954"/>
      <polygon fill="#FDFBF2" points="27.958 5.015 30.223 15.524 40.323 5.494 40.804 4.808 40.804 3.847 40.531 3.847 27.958 4.808"/>
      <polygon fill="#E8E3D8" points="50.146 33.385 52.482 30.432 52.001 29.537 51.793 29.537 49.46 33.66"/>
      <polygon fill="#FCFDF9" points="21.98 20.608 22.944 20.33 23.63 20.128 23.63 19.919"/>
      <polygon fill="#FBF7EE" points="37.78 35.722 47.881 35.722 47.881 35.444 46.3 31.322 37.576 35.444 37.37 35.722"/>
      <polygon fill="#E1D9D1" points="25.416 26.515 25.692 26.515 25.692 26.309"/>
      <polygon fill="#FEFEFC" points="20.883 21.296 21.778 21.296 21.98 20.815"/>
      <polygon fill="#DED8D1" points="18.821 28.85 18.137 28.85 17.859 29.262 17.859 29.538 19.028 41.626 25.416 26.515"/>
      <polygon fill="#FCFBF9" points="20.883 21.981 21.776 21.296 20.883 21.296 12.16 26.31 8.726 30.637 9.618 29.949 19.921 22.668 20.404 22.393"/>
      <polygon fill="#DAD4CF" points="19.029 41.626 30.912 36.613 26.105 26.996 25.691 26.516 25.415 26.516"/>
      <polygon fill="#EEE7E1" points="44.237 39.36 45.134 40.254 46.71 38.469 47.879 35.927 43.274 37.988"/>
      <polygon fill="#F9F8F5" points="18.137 28.85 22.944 20.331 21.981 20.609 21.981 20.814 21.776 21.296 20.883 21.981 20.404 22.394 19.921 22.668 7.831 33.179 17.448 29.744 17.86 29.538 17.86 29.262"/>
      <polygon fill="#FCFBF4" points="38.949 36.405 43.273 37.989 47.88 35.928 47.88 35.722 37.78 35.722"/>
      <polygon fill="#A29F9C" points="32.973 0 40.117 2.954 39.432 .894"/>
      <polygon fill="#C7C2BE" points="59.763 46.918 59.349 46.023 47.192 50.832"/>
      <polygon fill="#FEFEFE" points="3.435 36.405 3.711 36.405 3.916 35.722"/>
      <polygon fill="#DFDAD7" points="9.207 43.963 15.593 46.435 6.46 40.939"/>
      <polygon fill="#F6F6F4" points="27.958 4.809 24.73 2.471 12.16 22.876 27.958 5.016"/>
      <polygon fill="#F3F2EC" points="51.108 33.659 47.88 35.927 46.711 38.469"/>
      <polygon fill="#F1EEE5" points="40.324 5.495 30.224 15.524 33.935 15.798"/>
      <polygon fill="#D4D3D5" points="10.787 24.454 11.474 23.082 18.342 4.534 9.411 17.859 8.246 19.918 7.557 20.815 7.35 21.019 7.35 21.295 7.146 21.501 7.146 21.981 10.302 24.936"/>
      <polygon fill="#E9E2DB" points="30.913 36.818 33.661 44.169 37.369 35.723 30.913 36.613"/>
      <polygon fill="#E3DDD4" points="25.691 26.515 26.105 26.995 37.576 35.444 38.264 34.345 43.551 21.501 25.691 26.309"/>
      <polygon fill="#EAE2D8" points="28.85 21.501 25.692 26.31 43.551 21.501 43.273 21.296 29.54 20.608"/>
      <polygon fill="#DED6CE" points="30.913 36.613 37.369 35.721 37.575 35.445 26.106 26.996"/>
      <polygon fill="#F8F1E6" points="29.54 20.608 43.273 21.296 34.62 16.007 33.935 15.798 33.453 16.211"/>
      <polygon fill="#FCF8F3" points="27.753 17.173 27.477 17.173 26.791 17.585 24.32 19.644 33.453 16.211 33.935 15.798 30.224 15.523 28.439 16.694"/>
      <polygon fill="#F0EFEF" points="10.58 25.417 10.58 25.142 10.302 24.937 7.145 21.981 6.666 22.668 3.917 29.744 9.892 26.102"/>
      <polygon fill="#F6F5F2" points="10.302 24.936 10.58 25.143 26.792 17.586 27.476 17.173 27.754 17.173 28.44 16.694 30.224 15.523 27.958 5.015 12.159 22.876 11.475 23.082 10.787 24.454"/>
      <polygon fill="#FEFEFB" points="20.883 21.296 21.981 20.815 21.981 20.608 23.631 19.919 23.631 19.644 24.321 19.644 26.792 17.585 10.58 25.143 10.58 25.417 12.16 26.31"/>
      <polygon fill="#FEFEFC" points="8.727 30.636 12.16 26.309 10.579 25.416 9.892 26.101 5.979 32.697 8.036 31.322"/>
      <polygon fill="#FEFAF4" points="23.63 19.919 23.63 20.128 29.54 20.608 33.453 16.211 24.32 19.644 23.63 19.644"/>
      <polygon fill="#F9F7F1" points="25.415 26.515 25.692 26.309 28.85 21.501 18.821 28.851"/>
      <polygon fill="#D0CAC7" points="19.029 41.626 18.821 41.905 27.476 42.999 30.912 36.819 30.912 36.613"/>
      <polygon fill="#F6F3EB" points="22.944 20.331 18.137 28.851 18.821 28.851 28.851 21.501 29.54 20.609 23.63 20.127"/>
      <polygon fill="#EDEBEA" points="19.922 22.668 9.617 29.949 8.727 30.637 8.036 31.323 5.98 32.698 5.769 33.178 7.146 33.864 7.832 33.178"/>
      <polygon fill="#EEE9E3" points="17.859 29.538 17.448 29.744 11.266 37.298 12.159 37.989 18.822 41.904 19.029 41.626"/>
      <polygon fill="#F9F8F4" points="7.832 33.178 7.146 33.864 7.35 34.071 11.266 37.298 17.449 29.743"/>
      <polygon fill="#FAF8F3" points="38.949 36.405 44.237 39.361 43.273 37.989"/>
      <polygon fill="#AFA8A2" points="58.868 50.145 61.135 49.87 60.449 48.292"/>
      <polygon fill="#E0DBD7" points="16.968 43.688 9.893 39.153 16.761 47.123 17.86 44.651"/>
      <polygon fill="#B9B5B3" points="17.859 44.65 16.761 47.123 28.162 48.978 28.162 48.771"/>
      <polygon fill="#BBB7B6" points="50.421 53.786 58.868 50.144 60.449 48.293 60.038 47.604"/>
      <polygon fill="#DAD6D3" points="8.517 37.988 5.98 40.254 6.459 40.94 15.594 46.436 16.76 47.123 9.892 39.153"/>
      <polygon fill="#D6D2CD" points="33.453 44.857 28.163 48.771 28.163 48.978 28.439 48.978 29.127 49.183 42.59 52.205"/>
      <polygon fill="#C7C3C2" points="47.192 50.832 42.867 52.413 48.085 54.953 50.421 53.785 60.038 47.603 59.763 46.919"/>
      <polygon fill="#D0CAC7" points="42.867 55.365 42.867 52.413 42.589 52.205 29.126 49.183"/>
      <polygon fill="#BBB5B4" points="42.867 55.365 48.085 54.953 42.867 52.413"/>
      <polygon fill="#FAF8F4" points="8.517 37.779 4.811 36.614 5.292 38.878 5.98 40.253 8.517 37.989"/>
    </g>
    <g transform="translate(.137 .879)">
      <polygon fill="#F2F0EB" points="87.622 27.082 86.406 29.717 86.89 29.717 104.241 29.717 107.514 29.717 97.807 15.518"/>
      <polygon fill="#D8D6D3" points="97.808 15.518 107.515 29.718 116.372 16.231 116.006 15.217 97.808 15.217"/>
      <polygon fill="#F1EDE6" points="88.832 30.735 106.664 38.242 107.88 31.446 107.88 30.434 107.514 29.716 104.241 29.716"/>
      <polygon fill="#E2DFDB" points="116.007 15.217 114.791 13.894 100.598 6.797 97.809 15.217"/>
      <polygon fill="#F9FAF6" points="79.98 30.434 80.83 30.434 82.04 30.126 83.622 30.126 86.405 29.716 87.621 27.081 94.539 11.159 69.424 31.446 78.399 30.434"/>
      <polygon fill="#F5F3EF" points="100.599 6.797 100.233 6.797 94.897 10.447 97.807 15.217"/>
      <polygon fill="#D2D1D0" points="107.881 31.446 109.091 32.154 116.732 40.268 117.948 41.892 119.158 42.299 121.224 31.142 121.224 30.126 107.515 29.716 107.881 30.434"/>
      <polygon fill="#FEFCF7" points="70.273 35.808 77.914 31.445 78.398 30.737 78.398 30.435 69.423 31.445 69.057 32.153 69.423 33.779"/>
      <polygon fill="#F6F5EE" points="97.808 15.518 97.808 15.217 94.898 10.447 94.538 11.158 87.623 27.082"/>
      <polygon fill="#C1BFB9" points="137.363 50.72 136.997 50.72 136.631 50.72 136.631 51.021 138.21 51.021 138.57 50.72 137.363 50.412"/>
      <polygon fill="#979BA1" points="136.632 51.022 136.632 52.036 138.211 51.426 138.211 51.022"/>
      <polygon fill="#C1BFB9" points="136.996 50.721 137.362 50.721 137.362 50.413 136.996 50.413"/>
      <polygon fill="#D5D4D2" points="129.72 45.95 130.931 46.355 141.853 44.934 144.273 44.633 143.429 43.312 123.656 31.445 121.224 30.127 121.224 31.144"/>
      <polygon fill="#979BA1" points="136.632 52.036 136.998 53.051 137.364 53.764 137.845 54.062 137.845 54.472 139.055 55.079 138.211 51.427"/>
      <polygon fill="#FEFEFB" points="65.422 39.257 68.208 37.226 69.424 33.781 69.058 32.155 51.713 44.326"/>
      <polygon fill="#99A1A9" points="137.363 53.763 136.997 53.05 135.787 53.457 134.565 55.486 134.565 56.5 137.363 57.818 137.847 54.472 137.847 54.065"/>
      <polygon fill="#F8F3EB" points="132.512 47.371 141.853 44.933 130.93 46.355"/>
      <polygon fill="#F9F3EE" points="129.72 45.95 125.229 44.633 115.522 41.891 114.79 41.891 115.156 42.604 130.931 51.022 131.781 51.426 132.512 49.398 132.512 47.372 130.931 46.355"/>
      <polygon fill="#BEBFC3" points="132.99 53.458 134.566 55.486 135.788 53.458 136.632 52.036 136.632 51.022 136.632 50.719 136.998 50.413 132.512 47.372 132.512 49.396"/>
      <polygon fill="#C1BFB9" points="136.632 50.72 136.998 50.72 136.998 50.412"/>
      <polygon fill="#EBE4DE" points="14.827 63.908 14.101 62.889 9.609 58.837 6.336 61.571 5.61 62.586 5.976 62.889 14.827 64.617"/>
      <polygon fill="#EEE9E3" points="9.976 56.095 14.102 62.889 14.828 63.908 16.531 62.585 22.593 48.995 8.4 54.471 8.034 55.485 8.76 55.791"/>
      <polygon fill="#FFFDF3" points="8.76 55.791 8.034 55.485 6.334 61.571 9.61 58.837"/>
      <polygon fill="#FCFBF7" points="22.592 48.691 8.4 48.995 8.034 50.007 8.4 54.471 22.592 48.995"/>
      <polygon fill="#E3DFDC" points="16.532 62.586 27.815 49.396 28.665 47.979 28.665 47.678 23.807 48.386 22.594 48.69 22.594 48.994"/>
      <polygon fill="#D3CFCA" points="18.957 69.282 16.531 67.961 14.465 68.672 14.826 80.848 16.041 79.427 18.107 73.339"/>
      <polygon fill="#FEFAF3" points="16.043 79.428 18.106 77.093 18.106 76.38 18.106 73.337"/>
      <polygon fill="#C1BDBA" points="16.897 67.658 19.318 66.644 24.533 63.907 14.826 64.616 13.616 68.268 14.466 68.673 16.531 67.962"/>
      <polygon fill="#B3B0AF" points="5.975 62.89 6.335 63.6 12.884 68.267 13.616 68.267 14.826 64.617"/>
      <polygon fill="#F9F9F6" points="32.299 45.95 32.671 46.355 33.509 46.661 37.151 47.979 43.216 45.647"/>
      <polygon fill="#FBF7EF" points="86.406 29.717 86.89 30.434 86.89 29.717"/>
      <polygon fill="#D5D4D4" points="42.367 41.591 33.51 44.935 32.672 45.648 43.217 43.923"/>
      <polygon fill="#F8F5EF" points="43.217 43.922 47.585 36.823 43.583 39.559 42.367 40.574 42.367 41.59"/>
      <polygon fill="#E1E0DA" points="43.583 43.922 49.285 45.341 50.008 45.341 50.008 44.633 48.8 35.199 47.585 36.823 43.217 43.922"/>
      <polygon fill="#EAE8E7" points="32.67 46.661 33.511 46.661 32.67 46.355"/>
      <polygon fill="#FEFEFA" points="51.714 44.325 69.059 32.154 49.282 34.488 48.798 35.199 50.008 44.633"/>
      <polygon fill="#C8C6C3" points="43.216 43.923 32.671 45.645 32.299 45.949 43.216 45.645 43.948 45.645 43.582 43.923"/>
      <polygon fill="#FCFDF7" points="77.915 31.446 70.274 35.809 68.208 37.225 65.422 39.256 72.703 43.313"/>
      <polygon fill="#A7A6AA" points="134.931 57.109 136.997 59.547 137.847 58.53 137.363 57.817 134.566 56.499"/>
      <polygon fill="#CDCDCD" points="37.516 58.53 38.732 55.078 39.092 54.471 37.882 53.762 37.516 53.052 28.665 47.978 36.306 59.547"/>
      <polygon fill="#DCDAD4" points="39.092 54.472 41.158 50.718 37.516 52.441 37.516 53.05 37.882 53.763"/>
      <polygon fill="#F8F9F6" points="41.517 50.413 42.367 50.006 43.583 49.397 43.583 48.994 37.149 47.978 37.515 52.442 41.157 50.719"/>
      <polygon fill="#DBD7D4" points="24.534 63.908 19.316 66.645 32.299 61.875"/>
      <polygon fill="#B4B2B0" points="16.899 67.658 16.533 67.962 18.959 69.282 19.685 68.673 21.382 66.948"/>
      <polygon fill="#ABA8AA" points="35.935 63.908 19.682 68.674 18.956 69.281 40.796 75.067 40.796 73.745"/>
      <polygon fill="#FCFDFC" points="43.948 48.691 43.948 45.646 43.216 45.646 37.151 47.978 43.582 48.995"/>
      <polygon fill="#C0BCBB" points="22.592 66.237 34.241 62.889 39.946 61.166 42.006 60.559 42.006 60.152 36.307 60.559 32.299 61.875 19.316 66.645 16.896 67.659 21.382 66.948"/>
      <polygon fill="#FCF9F2" points="89.316 32.763 86.89 30.434 86.406 29.716 83.62 30.125 82.041 30.125 80.831 30.434 79.981 30.434 79.131 30.735"/>
      <polygon fill="#FEFEFA" points="89.316 32.763 79.131 30.735 78.399 30.735 77.915 31.446 72.703 43.313"/>
      <polygon fill="#FEFCF4" points="78.399 30.434 78.399 30.735 79.131 30.735 79.981 30.434"/>
      <polygon fill="#FFFDF4" points="46.858 47.677 48.8 45.95 49.65 45.646 49.284 45.34 43.948 45.646 43.948 48.691"/>
      <polygon fill="#D4D0CB" points="56.565 65.63 56.081 65.223 55.349 64.922 53.283 64.209 52.439 63.908 52.073 63.908 51.713 63.908 51.22 63.599 50.86 63.599 42.006 61.164 42.006 61.571 40.796 73.744 40.796 75.067 41.156 75.067 55.715 66.645 55.715 66.237"/>
      <polygon fill="#BEB9B8" points="18.107 77.093 21.383 86.223 22.109 86.524 45.159 80.441 45.159 80.14 18.107 76.382"/>
      <polygon fill="#FEFDF7" points="50.859 46.661 53.285 48.692 54.141 48.692 55.717 47.979 58.5 44.324 50.009 45.341 49.283 45.341 49.649 45.647"/>
      <polygon fill="#FEFEFB" points="56.081 51.427 71.118 44.633 72.706 43.619 72.706 43.313 65.422 39.256 64.566 40.268"/>
      <polygon fill="#FEFDF7" points="64.567 40.269 65.423 39.257 51.714 44.326 50.008 44.634 50.008 45.34 58.502 44.326"/>
      <polygon fill="#CFCBCB" points="36.306 60.558 36.306 59.546 28.665 47.977 27.815 49.396 24.534 63.909 32.299 61.876"/>
      <polygon fill="#ADAAA9" points="112.732 72.731 128.506 75.068 117.95 71.717 113.948 72.02"/>
      <polygon fill="#DED6CE" points="76.7 73.745 75.484 74.759 76.339 74.759 86.89 75.776 87.256 75.776 92.114 66.238"/>
      <polygon fill="#C4BFC0" points="113.947 72.02 117.949 71.717 126.924 70.295 129.35 69.994 131.292 69.281 127.656 67.961"/>
      <polygon fill="#B5B2B2" points="92.113 66.237 87.255 75.775 112.371 72.73 112.731 72.73 92.473 65.63"/>
      <polygon fill="#B9B7B8" points="116.007 58.53 115.523 57.817 92.473 65.63 112.731 72.732 113.947 72.021"/>
      <polygon fill="#979EA6" points="136.998 59.547 139.424 59.135 139.787 59.135 137.845 58.53"/>
      <polygon fill="#E2DCD6" points="57.775 66.948 56.925 65.934 56.564 65.63 55.715 66.237 55.715 66.644 47.584 77.804 58.14 69.282 58.501 69.282 58.14 67.962"/>
      <polygon fill="#DDD9D3" points="127.656 67.962 131.292 69.282 133.72 66.237 133.72 65.933 133.352 65.223"/>
      <polygon fill="#A4A4A8" points="136.997 59.546 134.931 57.108 133.721 60.862 133.349 65.222 133.721 65.933 136.997 60.862 137.363 60.151"/>
      <polygon fill="#9D9EA2" points="139.422 59.135 137.362 60.152 136.996 60.86 139.788 65.223 139.788 59.135"/>
      <polygon fill="#E5DDD5" points="59.355 70.295 61.781 73.745 60.199 70.702 59.715 70.295"/>
      <polygon fill="#E9E1D8" points="62.143 74.759 62.63 75.068 62.63 74.759"/>
      <polygon fill="#E5DDD5" points="60.201 70.703 61.782 73.745 61.782 74.051 62.143 74.355 62.143 74.76 62.629 74.76 60.927 71.009 60.566 70.703"/>
      <polygon fill="#EBE3DB" points="60.566 70.703 75.125 74.355 72.339 71.31 56.08 60.558 56.08 62.89 56.564 63.196 56.08 63.909 56.924 65.224 57.774 66.947 58.14 67.961 58.5 69.281 59.356 70.296 59.716 70.296"/>
      <polygon fill="#E5DCD4" points="61.416 71.009 60.926 71.009 62.631 74.76 62.631 75.068 63.842 76.788 66.268 80.44 66.633 79.426 66.633 73.745"/>
      <polygon fill="#D5CECD" points="69.424 74.759 75.123 74.759 75.483 74.759 75.123 74.355 67.482 73.745"/>
      <polygon fill="#D1CAC7" points="66.631 73.745 66.631 79.428 69.423 74.759 67.481 73.745"/>
      <polygon fill="#F1EAE1" points="82.766 64.616 82.766 64.209 57.29 56.806 72.339 71.309 75.125 74.354 75.485 74.759 76.701 73.745"/>
      <polygon fill="#B2B3B5" points="42.367 40.574 42.007 38.242 37.515 41.283 33.51 44.935 42.367 41.591"/>
      <polygon fill="#DEDBD9" points="2.694 62.89 5.609 62.587 .273 57.817"/>
      <polygon fill="#E2E1E0" points=".759 56.095 8.034 50.007 8.4 48.995 4.395 45.647"/>
      <polygon fill="#E0DBD3" points="2.694 62.89 7.191 66.239 6.335 63.599 5.972 62.89 5.609 62.587"/>
      <polygon fill="#E8E9E6" points=".759 56.095 .275 56.806 7.55 54.775 8.4 54.471 8.034 50.007"/>
      <polygon fill="#ECE5E0" points="18.107 77.093 16.042 79.427 14.826 80.848 14.466 82.164 14.1 83.178 16.042 84.496 21.383 86.223"/>
      <polygon fill="#B6B3B3" points="6.335 63.6 7.191 66.238 9.977 67.659 12.884 68.266"/>
      <polygon fill="#B6B2B4" points="14.101 82.875 14.101 83.179 14.467 82.167"/>
      <polygon fill="#E3E0DC" points="14.827 80.848 14.467 68.672 13.617 68.267 12.885 68.267 9.249 72.731 9.609 75.369 14.101 82.876 14.467 82.165"/>
      <polygon fill="#ADABB1" points="9.976 67.658 9.25 72.73 12.886 68.268"/>
      <polygon fill="#F2EFE7" points="7.55 54.775 .275 56.806 .275 57.818 5.609 62.588 6.335 61.571 8.034 55.485 8.034 54.775"/>
      <polygon fill="#B8B8B8" points="10.831 41.591 4.395 45.648 8.4 48.994"/>
      <polygon fill="#AEADB0" points="32.671 45.647 33.51 44.934 37.517 41.281 40.796 37.533 29.874 44.934 32.299 45.95"/>
      <polygon fill="#C0BEBD" points="42.007 38.243 42.367 40.575 43.583 39.561 47.585 31.75 44.799 34.183 43.949 35.198 43.583 35.504"/>
      <polygon fill="#C1C0BC" points="32.671 46.355 32.299 45.95 29.874 44.933 27.45 44.324 28.663 47.677"/>
      <polygon fill="#AAAAAC" points="42.007 38.243 43.583 35.504 43.949 35.198 40.797 37.532 37.515 41.283"/>
      <polygon fill="#F2F0E6" points="28.664 47.677 27.448 44.324 23.807 48.388"/>
      <polygon fill="#E0E1DF" points="22.592 48.691 12.041 40.878 10.831 41.591 8.4 48.995"/>
      <polygon fill="#DEDEDB" points="23.808 48.388 27.45 44.323 12.041 40.878 22.592 48.691"/>
      <polygon fill="#B2ADAF" points="23.324 89.265 30.239 90.585 22.592 87.236"/>
      <polygon fill="#B0AFAF" points="139.788 67.658 131.291 74.758 145.853 67.962 145.853 67.658 147.063 67.254 150.345 64.922 140.272 67.658"/>
      <polygon fill="#A8A6A7" points="126.924 76.789 103.03 85.513 132.144 76.789 130.571 75.368"/>
      <polygon fill="#AAA8AA" points="129.348 75.369 106.307 75.773 100.233 78.11 96.963 79.83 92.114 80.44 77.913 89.975 126.922 76.788 130.57 75.369"/>
      <polygon fill="#AEA9AA" points="77.914 89.976 94.539 88.253 103.029 85.514 126.923 76.788"/>
      <polygon fill="#ADABAC" points="130.081 75.067 130.57 75.368 132.146 76.79 145.855 67.962 131.291 74.759"/>
      <polygon fill="#B1B1B4" points="144.274 45.95 140.272 58.837 140.998 58.837 153.981 55.791 153.131 54.471 153.131 53.765 144.274 44.933"/>
      <polygon fill="#A7A9AE" points="140.272 67.658 150.345 64.922 152.405 64.209 151.915 63.194 151.915 62.891 150.699 60.152"/>
      <polygon fill="#ADADB2" points="140.999 58.836 150.7 60.151 153.613 57.111 153.979 55.791"/>
      <polygon fill="#B6B7BE" points="150.699 60.152 151.915 62.891 153.615 57.109"/>
      <polygon fill="#BBB8B8" points="23.324 89.265 22.592 87.236 22.108 86.523 21.382 86.222 16.043 84.497"/>
      <polygon fill="#D8D2CE" points="45.158 80.139 45.158 80.441 48.44 83.483 66.266 81.154"/>
      <polygon fill="#B3AFAD" points="32.67 89.571 48.439 83.483 45.157 80.44"/>
      <polygon fill="#B5B1B0" points="22.108 86.524 22.592 87.237 30.239 90.586 32.671 89.569 45.158 80.441"/>
      <polygon fill="#AAA5A5" points="87.257 80.848 86.891 80.848 85.681 81.154 80.336 86.524 77.913 89.976 92.115 80.441"/>
      <polygon fill="#C9C7C8" points="47.583 36.822 48.799 35.198 49.283 34.487 50.009 33.473 50.499 27.39 47.583 31.751 43.581 39.561"/>
      <polygon fill="#B0ABAA" points="77.183 89.976 77.915 89.976 80.335 86.524 83.622 81.154 82.767 80.139 76.341 78.109"/>
      <polygon fill="#B3B0AF" points="48.438 83.482 77.184 89.975 66.264 81.153"/>
      <polygon fill="#B8B2AE" points="68.698 79.831 66.632 80.44 66.266 81.153 77.183 89.976 76.339 78.108"/>
      <polygon fill="#E6E5E1" points="77.915 6.086 69.058 15.217 69.908 28.708"/>
      <polygon fill="#D7D5D3" points="138.212 51.023 138.212 51.427 139.056 55.08 140.272 58.835 144.274 45.951 138.572 50.719"/>
      <polygon fill="#C8C2BE" points="76.339 74.759 82.764 80.138 83.62 81.153 86.89 75.776"/>
      <polygon fill="#AFABAA" points="126.924 70.296 117.949 71.717 128.505 75.066 129.35 75.367 130.081 75.066 129.721 73.746"/>
      <polygon fill="#B7B2B2" points="86.891 75.775 83.62 81.152 85.681 81.152 86.891 80.846 87.257 80.846 100.234 78.11 87.257 75.775"/>
      <polygon fill="#B4AFB1" points="112.732 72.731 112.372 72.731 106.307 75.776 129.351 75.369 128.506 75.068"/>
      <polygon fill="#9C9DA4" points="139.788 65.223 140.272 67.659 150.699 60.152 140.998 58.837 140.272 58.837 139.788 59.136"/>
      <polygon fill="#90969E" points="137.847 54.472 137.363 57.818 137.847 58.531 139.789 59.136 140.273 58.837 139.057 55.079"/>
      <polygon fill="#A2A1A4" points="136.997 60.861 133.721 65.933 134.565 66.236 134.931 66.236 136.147 66.643 139.789 67.658 140.273 67.658 139.789 65.224"/>
      <polygon fill="#B3B1B1" points="134.931 66.237 134.566 66.237 133.721 66.237 131.29 69.283 129.351 69.996 129.719 73.744 130.079 75.067 131.29 74.759 139.789 67.659 136.147 66.645"/>
      <polygon fill="#B6B3B2" points="87.257 75.775 100.234 78.11 106.304 75.775 112.372 72.73"/>
      <polygon fill="#DED7D6" points="66.266 80.44 66.266 81.153 66.632 80.44"/>
      <polygon fill="#C8C2C0" points="71.849 75.775 69.423 74.758 66.631 79.427 66.268 80.442 66.631 80.442 67.841 79.832"/>
      <polygon fill="#E1DAD1" points="63.841 76.789 62.631 75.067 62.141 74.758 62.141 74.353 61.781 74.05 61.781 73.744 59.355 70.296 58.499 69.282 58.139 69.282 47.582 77.803 45.159 80.14 66.267 81.154 66.267 80.441"/>
      <polygon fill="#DDD8D2" points="55.715 66.644 41.156 75.067 45.158 80.14 47.584 77.804"/>
      <polygon fill="#CFC8C3" points="75.484 74.759 75.124 74.759 71.848 75.776 74.274 76.79 76.34 78.11 82.765 80.138 76.34 74.759"/>
      <polygon fill="#DED7D6" points="67.842 79.831 66.632 80.44 68.698 79.831"/>
      <polygon fill="#E7DDD6" points="68.698 79.831 76.339 78.109 74.276 76.788"/>
      <polygon fill="#CCC4C0" points="71.849 75.775 67.841 79.832 68.697 79.832 74.275 76.789"/>
      <polygon fill="#BAB8BA" points="116.007 15.217 118.799 13.186 118.439 11.864 114.313 8.823 103.03 1.721 102.664 1.721 114.791 13.894"/>
      <polygon fill="#D6D7D7" points="81.555 2.33 78.4 5.377 92.114 1.318 85.191 1.014"/>
      <polygon fill="#F5F3ED" points="141.853 44.934 132.512 47.372 136.996 50.412 137.361 50.412 138.572 50.718 144.273 45.951 144.273 44.934 144.273 44.633"/>
      <polygon fill="#A3A2AB" points="85.191 1.013 92.114 1.316 98.539 .001"/>
      <polygon fill="#D9D7D4" points="100.233 6.796 100.599 6.796 114.791 13.896 102.664 1.723 100.599 .304"/>
      <polygon fill="#D7D6D6" points="49.283 34.488 69.057 32.153 69.423 31.445 69.907 28.708 69.057 15.217 68.207 15.518 50.009 33.474"/>
      <polygon fill="#BAB6B4" points="40.797 75.067 18.107 76.382 45.159 80.138 41.157 75.067"/>
      <polygon fill="#EBEAE8" points="78.399 5.376 94.9 10.445 92.958 1.721 92.113 1.317"/>
      <polygon fill="#C7C5C7" points="68.208 15.518 52.073 25.362 50.5 27.391 50.01 33.474"/>
      <polygon fill="#F2F2ED" points="69.423 31.446 94.539 11.158 94.899 10.445 78.398 5.376 77.914 6.087 69.907 28.707"/>
      <polygon fill="#F4F2EE" points="98.539 .001 92.114 1.316 92.956 1.724 100.234 6.797 100.599 .305"/>
      <polygon fill="#CBC9CA" points="143.429 43.313 144.273 44.633 149.491 43.619 146.339 40.877 139.787 37.837"/>
      <polygon fill="#E4DFDD" points="116.372 16.231 120.374 26.07 118.798 13.186 116.006 15.217"/>
      <polygon fill="#B4B3B4" points="139.788 37.836 146.337 40.879 138.212 33.779 139.422 37.226"/>
      <polygon fill="#B0B2B6" points="144.274 44.632 144.274 44.933 153.131 53.765 151.915 48.691 150.699 45.646 149.489 43.62"/>
      <polygon fill="#BABBBB" points="121.223 30.126 123.655 31.446 139.421 37.226 138.211 33.781 136.998 32.764 135.416 32.461"/>
      <polygon fill="#B9BABE" points="107.515 29.717 121.224 30.126 120.374 28.095 120.374 26.069 116.372 16.23"/>
      <polygon fill="#9FA3AB" points="136.997 32.763 134.565 30.735 120.372 28.097 135.415 32.46"/>
      <polygon fill="#A2A9B3" points="135.415 32.46 120.373 28.094 121.223 30.125"/>
      <polygon fill="#E1E0E1" points="37.516 53.051 37.516 52.441 32.67 46.662 32.67 46.356 28.665 47.678 28.665 47.979"/>
      <polygon fill="#9FA0A7" points="151.916 48.691 151.916 46.356 150.7 45.646"/>
      <polygon fill="#BCBBBB" points="117.948 10.446 114.312 8.822 118.438 11.865"/>
      <polygon fill="#FBF7EF" points="86.891 29.717 86.891 30.434 87.257 30.434 88.83 30.736 104.239 29.717"/>
      <polygon fill="#A09EA2" points="129.348 75.369 130.57 75.369 130.083 75.067"/>
      <polygon fill="#FEFEFA" points="79.98 51.023 72.705 43.619 71.118 44.633 57.775 55.79"/>
      <polygon fill="#ACA8AB" points="45.643 61.572 46.856 61.876 46.009 61.572"/>
      <polygon fill="#D5D1CC" points="113.947 72.02 127.656 67.961 116.007 58.529"/>
      <polygon fill="#F1EEE9" points="100.965 50.413 116.008 49.397 91.258 33.475 90.532 33.171 90.048 33.171 99.755 50.413"/>
      <polygon fill="#ACA8AB" points="45.643 61.572 46.009 61.572 45.159 61.165"/>
      <polygon fill="#FBFAF6" points="90.048 33.171 89.316 32.763 72.703 43.313 72.703 43.619 99.754 50.413"/>
      <polygon fill="#E4DCD5" points="76.7 73.745 92.114 66.238 92.474 65.631 82.764 64.617"/>
      <polygon fill="#DCD8D4" points="127.656 67.962 133.352 65.223 116.007 58.53"/>
      <polygon fill="#E5DDD5" points="60.201 70.703 60.566 70.703 59.717 70.295"/>
      <polygon fill="#B2AFB0" points="92.113 80.441 96.965 79.831 100.232 78.109 87.255 80.848"/>
      <polygon fill="#FEFDF8" points="99.755 50.413 72.703 43.619 79.981 51.023"/>
      <polygon fill="#B1ADAD" points="34.241 62.89 35.935 63.909 42.006 61.572 42.006 61.165 39.946 61.165"/>
      <polygon fill="#E9E5DF" points="113.948 41.282 114.313 41.59 114.313 41.282"/>
      <polygon fill="#FEFEFA" points="58.501 44.325 55.715 47.979 64.566 40.268"/>
      <polygon fill="#BAB6B5" points="22.592 66.237 21.382 66.948 19.682 68.673 35.935 63.908 34.241 62.889"/>
      <polygon fill="#B3B1B1" points="40.797 73.745 42.007 61.571 35.936 63.908"/>
      <polygon fill="#FBF9F3" points="99.755 50.413 79.981 51.023 80.336 51.428 90.898 55.79 100.965 50.413"/>
      <polygon fill="#E3E1DF" points="115.523 57.514 116.373 49.397 116.007 49.397 100.964 50.414"/>
      <polygon fill="#F0EEE9" points="90.897 55.791 115.523 57.514 100.964 50.414"/>
      <polygon fill="#F0EBE5" points="113.092 40.879 113.582 41.281 113.948 41.281 113.582 40.575"/>
      <polygon fill="#F2EDE9" points="113.582 41.282 113.092 40.88 110.312 39.863"/>
      <polygon fill="#E5DCD5" points="60.926 71.009 61.416 71.009 66.631 73.745 67.481 73.745 75.125 74.355 60.566 70.703"/>
      <polygon fill="#DCE0E2" points="133.722 60.861 134.93 57.11 134.567 56.5 134.567 55.486 132.991 53.458"/>
      <polygon fill="#ABA8A6" points="126.923 70.295 129.721 73.745 129.349 69.994"/>
      <polygon fill="#F0EAE0" points="8.76 55.791 9.61 58.837 14.102 62.889 9.976 56.095"/>
      <polygon fill="#AFACAD" points="18.107 73.338 18.107 76.383 40.797 75.067 18.957 69.281"/>
      <polygon fill="#B4B3AF" points="133.722 66.238 134.567 66.238 133.722 65.935"/>
      <polygon fill="#FEFCF9" points="7.55 54.775 8.034 54.775 8.034 55.485 8.4 54.471"/>
      <polygon fill="#AFA9AB" points="80.335 86.525 85.679 81.155 83.622 81.155"/>
      <polygon fill="#E3DFDB" points="16.532 62.586 14.826 63.909 14.826 64.617 24.533 63.909 27.815 49.396"/>
      <polygon fill="#E5E2DE" points="139.788 37.836 139.422 37.226 123.653 31.447 143.43 43.312"/>
      <polygon fill="#F2F1ED" points="92.957 1.722 94.899 10.446 100.232 6.796"/>
      <polygon fill="#B9B4B4" points="69.424 74.759 71.847 75.774 75.123 74.759"/>
      <polygon fill="#EDEEF0" points="131.78 51.427 132.99 53.458 132.512 49.399"/>
      <polygon fill="#F2EEE8" points="129.72 45.95 121.224 31.144 119.158 42.298 125.229 44.633"/>
      <polygon fill="#FEFEFB" points="68.208 37.227 70.271 35.808 69.424 33.78"/>
      <polygon fill="#9DA0A4" points="136.998 59.547 137.363 60.152 139.424 59.135"/>
      <polygon fill="#979BA1" points="135.787 53.459 136.997 53.052 136.631 52.037"/>
      <polygon fill="#C7C5C9" points="33.51 46.661 32.671 46.661 37.517 52.44 37.151 47.979"/>
      <polygon fill="#FDFCF1" points="43.947 45.647 49.283 45.341 43.581 43.924"/>
      <polygon fill="#E3E0DC" points="115.523 57.817 116.007 58.53 133.349 65.223 133.72 60.862 132.989 53.457 131.781 51.428 130.931 51.023 115.523 57.513"/>
      <polygon fill="#FDFCF5" points="46.009 48.994 45.643 49.397 44.433 49.705 49.65 48.994 48.069 48.691"/>
      <polygon fill="#FFFDF4" points="49.649 48.995 51.219 48.995 50.859 46.66 49.649 45.646 48.799 45.949 48.067 48.691"/>
      <polygon fill="#FEFAF3" points="51.218 48.994 53.284 48.691 50.858 46.662"/>
      <polygon fill="#9C9999" points="42.369 60.558 42.735 60.558 42.735 60.153 42.369 60.153"/>
      <polygon fill="#FDFBF2" points="54.141 48.691 54.141 49.397 55.714 47.978"/>
      <polygon fill="#FEFDF8" points="53.65 50.006 53.65 50.719 54.866 52.037 56.082 51.428 64.567 40.268 55.716 47.978 54.14 49.397"/>
      <polygon fill="#FFFDF4" points="47.222 47.678 46.009 48.994 48.066 48.69 48.798 45.951"/>
      <polygon fill="#FDFCF5" points="42.367 50.006 41.517 50.413 41.157 50.719 39.091 54.473 45.159 53.051"/>
      <polygon fill="#FCFDF7" points="48.067 52.441 48.439 52.037 52.925 50.719 42.731 50.006 42.366 50.006 45.157 53.051"/>
      <polygon fill="#F9F7F1" points="42.733 58.123 44.798 55.078 45.159 53.052 39.091 54.471 38.731 55.078 41.517 58.123"/>
      <polygon fill="#FEFCF4" points="46.857 47.678 43.946 48.69 43.581 48.994 43.581 49.398 43.946 49.707 44.431 49.707 45.644 49.398 46.009 48.994 47.222 47.678"/>
      <polygon fill="#FFFDF4" points="46.857 47.678 47.222 47.678 48.798 45.951"/>
      <polygon fill="#FCFDF7" points="53.285 48.691 51.219 48.994 49.649 48.994 44.431 49.705 43.947 49.705 42.368 50.006 42.734 50.006 52.925 50.719 53.651 50.719 53.651 50.006 54.141 49.397 54.141 48.691"/>
      <polygon fill="#FCFDF7" points="42.368 50.007 43.947 49.706 43.581 49.397"/>
      <polygon fill="#A9A7A6" points="45.158 58.836 49.284 60.558 50.01 60.558 49.65 59.85 48.44 59.135 46.858 58.836"/>
      <polygon fill="#BAB9B9" points="49.649 59.851 52.438 60.556 53.651 60.556 55.348 59.851 48.439 59.135"/>
      <polygon fill="#BAB9B9" points="50.01 60.557 51.217 61.165 52.439 60.557 49.65 59.852"/>
      <polygon fill="#BAB9B9" points="49.284 60.557 51.217 61.165 50.01 60.557"/>
      <polygon fill="#FEFCF8" points="55.349 52.441 56.925 55.792 57.775 55.792 71.118 44.633 56.081 51.427 54.865 52.037"/>
      <polygon fill="#C4C2C2" points="43.216 58.53 43.216 60.152 43.582 60.152 49.284 60.559 45.158 58.836 44.432 58.53"/>
      <polygon fill="#FCF9F5" points="48.067 54.472 46.007 56.806 45.642 58.531 46.857 58.837 48.439 59.136 48.799 58.124"/>
      <polygon fill="#C1C1C3" points="41.517 58.123 38.731 55.078 37.515 58.53 39.575 58.123"/>
      <polygon fill="#FEFDF8" points="48.067 54.472 48.067 52.441 45.157 53.05 44.797 55.079 46.007 56.806"/>
      <polygon fill="#FEFAF5" points="48.799 58.123 55.348 52.442 54.864 52.038 48.439 52.038 48.067 52.442 48.067 54.471"/>
      <polygon fill="#FEFDF7" points="52.924 50.72 48.438 52.036 54.866 52.036 53.65 50.72"/>
      <polygon fill="#A5A6A9" points="41.517 58.123 39.575 58.123 43.217 60.151 43.217 58.53 42.733 58.123"/>
      <polygon fill="#9C9999" points="43.216 60.152 42.735 60.152 42.735 60.557 43.582 60.557 43.582 60.152"/>
      <polygon fill="#9C9999" points="42.734 60.557 42.368 60.557 42.368 60.861 45.157 61.165 43.581 60.557"/>
      <polygon fill="#E9E7EA" points="44.432 58.53 45.642 58.53 46.008 56.805 44.798 55.078 42.732 58.123 43.216 58.53"/>
      <polygon fill="#EBE6DD" points="44.432 58.53 45.158 58.836 46.858 58.836 45.642 58.53"/>
      <polygon fill="#FEFCF8" points="48.799 58.123 48.439 59.135 56.924 56.095 56.924 55.791 55.348 52.442"/>
      <polygon fill="#F9F6EF" points="48.439 59.135 55.348 59.85 57.29 56.805 56.924 56.094"/>
      <polygon fill="#ADA8A8" points="56.925 65.935 57.773 66.947 56.925 65.224"/>
      <polygon fill="#F9F3E9" points="82.766 64.209 82.766 64.617 92.473 65.631 90.897 56.5"/>
      <polygon fill="#F9F5F0" points="115.523 57.514 130.931 51.024 116.373 49.397"/>
      <polygon fill="#FCF7EE" points="79.98 51.023 57.775 55.79 56.925 55.79 56.925 56.094 57.291 56.804 82.767 64.21 80.335 51.427"/>
      <polygon fill="#FCF5EC" points="90.897 55.791 80.335 51.426 82.767 64.209 90.897 56.5"/>
      <polygon fill="#D3D1CD" points="90.897 55.791 90.897 56.5 92.473 65.63 115.523 57.818 115.523 57.514"/>
      <polygon fill="#E9E5E1" points="107.881 38.852 108.731 39.257 109.457 39.561 110.313 39.862 113.093 40.878 113.583 40.575 109.091 32.155 107.881 31.447 106.665 38.243 107.515 38.852"/>
      <polygon fill="#FCF7F2" points="116.372 49.397 130.931 51.023 115.157 42.605 116.006 49.397"/>
      <polygon fill="#F9F5F1" points="86.891 30.434 89.317 32.764 90.048 33.171 90.533 33.171 91.259 33.475 107.514 38.852 106.664 38.242 88.833 30.735 87.257 30.434"/>
      <polygon fill="#D4D5D2" points="113.947 41.283 114.313 41.283 116.733 41.892 117.949 41.892 116.733 40.268 109.089 32.154 113.581 40.574"/>
      <polygon fill="#ECE8E4" points="113.947 41.283 113.581 41.283 110.311 39.861 109.455 39.56 108.729 39.257 107.882 38.852 107.516 38.852 91.257 33.475 116.007 49.397 115.157 42.605 114.791 41.892 114.313 41.591"/>
      <polygon fill="#E9E5DF" points="114.313 41.59 114.791 41.891 115.52 41.891 116.733 41.891 114.313 41.281"/>
      <polygon fill="#E0DEDB" points="115.523 41.892 125.23 44.633 119.159 42.299 117.949 41.892 116.733 41.892"/>
      <polygon fill="#ABA8A9" points="52.44 60.558 51.218 61.165 55.35 64.923 56.082 64.617 56.082 63.909 53.65 60.558"/>
      <polygon fill="#AFACA8" points="51.218 63.599 51.714 63.908 51.714 63.599"/>
      <polygon fill="#AFACA8" points="50.858 63.599 51.218 63.599 50.858 63.197"/>
      <polygon fill="#AEABAB" points="50.499 63.195 50.009 62.89 49.649 62.89 48.067 62.181 47.583 62.181 47.223 61.875 46.857 61.875 45.641 61.572 45.157 61.165 42.368 60.861 42.008 61.165 50.859 63.6 50.859 63.195"/>
      <polygon fill="#AFACA8" points="51.713 63.907 52.074 63.907 51.713 63.599"/>
      <polygon fill="#9C9999" points="42.009 60.558 42.369 60.558 42.369 60.153 42.009 60.153"/>
      <polygon fill="#A4A2A2" points="42.007 60.557 39.947 61.165 42.007 61.165 42.368 60.861 42.368 60.557"/>
      <polygon fill="#BEBABA" points="53.65 60.558 56.082 63.909 56.566 63.196 56.082 62.89 56.082 60.558 55.35 59.85"/>
      <polygon fill="#B4B5B7" points="42.733 60.151 43.217 60.151 39.575 58.123 37.515 58.53 36.308 59.546 36.308 60.558 42.007 60.151 42.367 60.151"/>
      <polygon fill="#E1DBD3" points="56.081 60.558 72.34 71.31 57.291 56.804 55.349 59.85"/>
      <polygon fill="#B1AFAE" points="56.08 64.616 56.564 65.631 56.924 65.934 56.924 65.223 56.08 63.908"/>
      <polygon fill="#ABA8AA" points="55.349 64.922 56.081 65.223 56.565 65.63 56.081 64.616"/>
      <polygon fill="#ADABAC" points="49.283 60.558 43.581 60.151 43.581 60.558 45.157 61.165 46.007 61.572 46.857 61.876 47.223 61.876 47.583 62.182 48.067 62.182 49.649 62.89 50.009 62.89 50.499 63.196 50.859 63.196 51.219 63.601 51.715 63.601 52.075 63.909 52.441 63.909 53.285 64.21 55.348 64.923 51.219 61.165"/>
    </g>
  </g>
</svg>
