<svg xmlns="http://www.w3.org/2000/svg" width="60" height="54" viewBox="0 0 60 54">
  <g fill="#FFF" fill-rule="evenodd" transform="translate(-1)">
    <path d="M24.9645842,0.897098674 C22.5580959,-0.172719143 19.9660727,0.597237425 18.6573755,2.78009513 C13.1429835,12.3931677 10.9601518,17.3359928 7.53439283,27.9736704 C6.97279215,29.8312957 6.81014341,30.9265498 7.01090746,31.6228258 L5.07196431,37.3633466 C3.30840753,38.0545484 1.83447246,39.4394893 1.08485186,41.1497015 C0.490216611,42.5143454 0.429234718,44.1254149 0.912054656,45.6832049 C1.04928018,46.1228288 1.21445302,46.5548023 1.37708875,46.9716052 C1.71252169,47.8355912 2.02763166,48.651307 2.06067924,49.4848476 C2.09117669,50.2853407 1.8599282,50.9993766 1.35679181,51.6702815 C1.16365863,51.9243965 1.14587279,52.270004 1.31105214,52.5418789 C1.4533584,52.7782087 1.7100171,52.920515 1.97935487,52.920515 C2.0200138,52.920515 2.06067274,52.917974 2.10133167,52.9103503 C2.24618155,52.8874798 5.67931768,52.3004689 9.4531171,48.282846 C12.713443,44.8141512 11.7605278,41.2869075 11.2979917,40.1029194 L14.2228977,34.8782792 C15.0767353,34.547927 15.7120555,33.4577537 16.2812806,32.4667166 C16.3803843,32.2939194 16.4744137,32.1312837 16.5709738,31.9711851 C22.1564702,22.3073701 24.3599241,17.3743032 27.7980434,6.82379831 C28.5400526,4.40455933 27.3736682,1.96762558 24.9646037,0.897742712 L24.9645842,0.897098674 Z M2.52085378,41.774613 C3.11040829,40.4303312 4.27933632,39.3401513 5.67956488,38.8039739 L9.85221217,40.6565249 C10.1063272,41.2689525 10.7009755,43.1291084 9.65654187,45.3043288 C9.44816647,45.3322826 9.18896416,45.3729415 8.85604882,45.4263056 C8.64767342,45.4593401 8.375766,45.5025427 8.15977274,45.5355772 C8.07591126,45.4212248 7.97680755,45.2839993 7.84975001,45.1162828 C7.66678482,44.8672485 7.481276,44.6207513 7.40504539,44.5063988 C7.35168135,44.3920464 7.27036349,44.2903991 7.17125978,44.214162 C6.8561498,43.972752 6.6096591,44.0108673 5.56780161,44.1760401 C5.42295173,44.1989132 5.23998653,44.2268671 5.08243805,44.2497336 C5.00366381,44.140462 4.9045536,44.0083237 4.78512043,43.8456879 C4.61994107,43.6220638 4.36836963,43.2815436 4.31754271,43.195145 L4.25909793,43.2256425 L4.071052,42.9054518 C3.81947404,42.7275673 3.71274597,42.6538738 2.19820401,42.9816889 C2.25156805,42.5547701 2.35829612,42.1482133 2.52093185,41.7746065 L2.52085378,41.774613 Z M3.48651968,50.8061003 C3.59833499,50.3613956 3.64407466,49.9014553 3.62628232,49.4262337 C3.58307976,48.3309796 3.20444427,47.3526282 2.83853991,46.4073243 C2.6784478,45.9981913 2.52851718,45.6093683 2.4090775,45.223141 C2.34046474,45.0071412 2.29218144,44.7860542 2.25406613,44.5675239 C2.62254014,44.486206 2.97831556,44.4125125 3.23495473,44.3667728 C3.3162726,44.4785881 3.41283919,44.6107264 3.53227236,44.7708185 C3.71523755,45.0198528 3.90074637,45.2663501 3.97697699,45.3832461 C4.03034102,45.4975985 4.11165889,45.5992459 4.2107691,45.675483 C4.52333545,45.9143559 4.76983267,45.8787777 5.81169015,45.7135983 C5.95654003,45.6907317 6.13950523,45.6627779 6.29959733,45.6399048 C6.37837157,45.7491765 6.47748179,45.8813148 6.59691496,46.0439505 C6.76209431,46.2675746 7.01366576,46.6080948 7.06449268,46.6919498 L7.11785671,46.663996 L7.2881168,46.9663943 C7.44059105,47.0832904 7.56764859,47.1366544 7.80143419,47.1366544 C7.95390193,47.1366544 8.16482096,47.1112442 8.44689636,47.0705853 C8.40370031,47.1188686 8.36812212,47.1671519 8.32237594,47.2179723 C6.45967643,49.1975744 4.69865677,50.2547066 3.48650016,50.8061068 L3.48651968,50.8061003 Z M10.10124,39.060548 L6.66559277,37.5358055 L8.30970987,32.6668822 L12.6119453,34.577852 L10.10124,39.060548 Z M26.3166726,6.35580424 C22.9242214,16.767093 20.748936,21.6409605 15.2346741,31.1805217 C15.1406511,31.3380767 15.0390038,31.5108739 14.9373565,31.6938391 C14.675617,32.1512488 14.0885931,33.1702462 13.7811466,33.3862916 L8.48787406,31.0356849 C8.47771258,30.7510723 8.5412381,30.0547962 9.02914528,28.4411246 C12.411448,17.9407114 14.5663714,13.0590374 20.0070569,3.57086907 C21.0438922,1.84289699 22.9268886,1.7005582 24.3321264,2.32566489 C25.7399663,2.95079759 26.8987133,4.44500358 26.3168027,6.35597338 L26.3166726,6.35580424 Z" transform="rotate(13 9.933 109.26)"/>
    <g transform="translate(44.74 33.276)">
      <path d="M8.87342754 15.560883L7.50041373 15.560883 7.50041373 14.8750349C7.50041373 10.7134986 10.8884768 7.32543544 15.0500132 7.32543544L15.7358613 7.32543544 15.7358613 8.69844925 15.0500132 8.69844925C11.6451498 8.69844925 8.87342754 11.4702044 8.87342754 14.8750352L8.87342754 15.560883zM1.32382808 8.69844925L.637980009 8.69844925.637980009 7.32543544 1.32382808 7.32543544C4.72869151 7.32543544 7.50041373 4.55368027 7.50041373 1.14884979L7.50041373.463001718 8.87342754.463001718 8.87342754 1.14884979C8.87342754 5.31038614 5.48799977 8.69844925 1.32382808 8.69844925z"/>
      <path d="M8.87342754 15.560883L7.50041373 15.560883 7.50041373 14.8750349C7.50041373 11.4701715 4.72865857 8.69844925 1.32382808 8.69844925L.637980009 8.69844925.637980009 7.32543544 1.32382808 7.32543544C5.4866821 7.32543544 8.87342754 10.7134986 8.87342754 14.8750346L8.87342754 15.560883zM15.7358613 8.69844925L15.0500132 8.69844925C10.8884768 8.69844925 7.50041373 5.31038614 7.50041373 1.14884979L7.50041373.463001718 8.87342754.463001718 8.87342754 1.14884979C8.87342754 4.55371322 11.6451827 7.32543544 15.0500132 7.32543544L15.7358613 7.32543544 15.7358613 8.69844925z"/>
    </g>
    <g transform="translate(.965 45.174)">
      <path d="M4.86852747 8.12685549L3.96738075 8.12685549 3.96822611 7.67671455C3.96822611 5.44114424 5.78656203 3.62285156 8.0220891 3.62285156L8.47223005 3.62285156 8.47223005 4.52399827 8.0220891 4.52399827C6.28314404 4.52315291 4.86850801 5.9377911 4.86850801 7.67671455L4.86852747 8.12685549zM.814664476 4.52313345L.36452353 4.52313345.36452353 3.62282994.814664476 3.62282994C2.55360954 3.62282994 3.96824557 2.20819391 3.96824557.46924884L3.96824557.0191078941 4.86939229.0191078941 4.86939229.46924884C4.86854692 2.70481915 3.05021317 4.52311183.814664476 4.52311183L.814664476 4.52313345z"/>
      <path d="M4.86852747 8.12685549L3.96738075 8.12685549 3.96822611 7.67671455C3.96822611 5.93776948 2.55359009 4.52313345.814645018 4.52313345L.364504071 4.52313345.364504071 3.62282994.814645018 3.62282994C3.05021533 3.62282994 4.86850801 5.44116586 4.86850801 7.67669293L4.86852747 8.12685549zM8.47224951 4.52313345L8.02210856 4.52313345C5.78653825 4.52313345 3.96824557 2.70479753 3.96824557.469270461L3.96824557.0191295147 4.86939229.0191295147 4.86939229.469270461C4.86854692 2.20821553 6.28318511 3.62285156 8.02210856 3.62285156L8.47224951 3.62285156 8.47224951 4.52313345z"/>
    </g>
    <path d="M56.0548088 22.4083244C56.0548088 23.5118672 54.4002296 23.5118672 54.4002296 22.4083244 54.4002296 21.3047816 56.0548088 21.3047816 56.0548088 22.4083244M46.8818359 36.1650391C46.8818359 38.3721644 43.5711678 38.3721644 43.5711678 36.1650391 43.5711678 33.9579137 46.8818359 33.9579137 46.8818359 36.1650391"/>
    <g transform="translate(10)">
      <path d="M7.57128906 21.4071053C7.57128906 23.6142306 4.26062094 23.6142306 4.26062094 21.4071053 4.26062094 19.1984303 7.57128906 19.1984303 7.57128906 21.4071053M2.32824625 20.8007812C2.32824625 21.904324.673667141 21.904324.673667141 20.8007812.673667141 19.6972385 2.32824625 19.6972385 2.32824625 20.8007812"/>
      <g transform="translate(3.154 .035)">
        <polygon points="7.594 11.065 8.974 11.065 8.974 4.168 7.594 4.168"/>
        <polygon points="4.835 8.306 11.732 8.306 11.732 6.927 4.835 6.927"/>
        <polygon points="7.594 1.409 8.974 1.409 8.974 .029 7.594 .029"/>
        <polygon points="14.492 8.306 15.872 8.306 15.872 6.927 14.492 6.927"/>
        <polygon points="7.594 15.205 8.974 15.205 8.974 13.825 7.594 13.825"/>
        <polygon points=".697 8.306 2.077 8.306 2.077 6.927 .697 6.927"/>
      </g>
    </g>
    <path d="M59.5927734,30.328125 C59.5927734,31.4316678 57.9366447,31.4316678 57.9366447,30.328125 C57.9366447,29.2245822 59.5927734,29.2245822 59.5927734,30.328125"/>
  </g>
</svg>
