<svg xmlns="http://www.w3.org/2000/svg" width="59" height="59" viewBox="0 0 59 59">
  <g fill="#FFF" fill-rule="evenodd" transform="translate(.208 2.856)">
    <path d="M23.9759867,0.861573567 C21.6647953,-0.165879465 19.1754162,0.573586823 17.9185435,2.67000336 C12.6225213,11.9023983 10.5261298,16.6494875 7.23603088,26.8659131 C6.69666958,28.6499764 6.54046173,29.7018584 6.73327552,30.3705619 L4.87111452,35.8837581 C3.1773946,36.5475883 1.76182735,37.8776855 1.04189173,39.5201733 C0.470804033,40.8307773 0.412237023,42.3780485 0.875937291,43.87415 C1.00772868,44.2963648 1.16636068,44.7112322 1.32255604,45.1115296 C1.64470583,45.9413018 1.94733745,46.7247152 1.97907634,47.5252476 C2.0083661,48.2940412 1.78627505,48.9798012 1.30306286,49.6241383 C1.11757775,49.8681904 1.10049623,50.2001118 1.25913447,50.4612205 C1.39580541,50.6881917 1.64230042,50.8248626 1.90097242,50.8248626 C1.94002126,50.8248626 1.9790701,50.8224222 2.01811893,50.8151004 C2.15723276,50.7931356 5.4544167,50.2293703 9.07877367,46.3708453 C12.2099907,43.0395108 11.2948109,39.651946 10.8505913,38.5148438 L13.659671,33.4970993 C14.4796966,33.1798291 15.0898581,32.1328266 15.6365418,31.1810346 C15.731721,31.0150802 15.8220269,30.8588848 15.9147633,30.7051261 C21.279074,21.4239983 23.3952711,16.6862808 26.6972409,6.55357589 C27.4098665,4.23013878 26.289671,1.88970761 23.9760054,0.8621921 L23.9759867,0.861573567 Z M2.42102797,40.1203384 C2.98723612,38.82929 4.1098746,37.7822814 5.45465412,37.2673365 L9.46206457,39.0465265 C9.70611668,39.634702 10.2772169,41.4211957 9.27414281,43.5102773 C9.07401908,43.5371242 8.82508118,43.576173 8.50534929,43.6274239 C8.30522555,43.6591503 8.04408567,43.700642 7.83664574,43.7323684 C7.75610517,43.6225443 7.66092597,43.4907529 7.53889991,43.329678 C7.36318014,43.0905055 7.18501747,42.8537695 7.11180559,42.7439454 C7.06055477,42.6341214 6.98245709,42.5364993 6.88727789,42.4632811 C6.58464627,42.231431 6.34791659,42.268037 5.34731667,42.426669 C5.20820284,42.4486363 5.03248307,42.4754831 4.88117351,42.4974442 C4.80551872,42.3924997 4.71033328,42.2655941 4.59562966,42.1093987 C4.43699141,41.8946301 4.19538219,41.5675945 4.14656802,41.4846173 L4.09043765,41.513907 L3.90983834,41.2063959 C3.66822287,41.0355557 3.56572123,40.9647804 2.11115513,41.279614 C2.16240595,40.8696012 2.26490759,40.4791441 2.42110294,40.1203321 L2.42102797,40.1203384 Z M3.3484535,48.7941787 C3.45584093,48.3670844 3.49976931,47.9253577 3.48268154,47.4689548 C3.4411898,46.4170729 3.07754828,45.4774641 2.72613373,44.5695942 C2.57238127,44.1766629 2.4283879,43.8032373 2.31367803,43.4323046 C2.24778233,43.2248584 2.20141106,43.0125265 2.16480511,42.8026499 C2.51868755,42.7245522 2.86037426,42.653777 3.10685053,42.6098486 C3.1849482,42.717236 3.27769076,42.8441416 3.39239437,42.9978941 C3.56811415,43.2370667 3.74627681,43.4738026 3.8194887,43.5860696 C3.87073952,43.6958936 3.9488372,43.7935157 4.04402264,43.8667339 C4.34421137,44.0961474 4.58094729,44.0619781 5.58154722,43.9033398 C5.72066105,43.8813788 5.89638082,43.8545319 6.05013328,43.8325646 C6.12578806,43.9375091 6.22097351,44.0644147 6.33567713,44.2206101 C6.49431538,44.4353787 6.7359246,44.7624143 6.78473877,44.8429486 L6.83598959,44.8161017 L6.99950738,45.1065251 C7.14594364,45.2187921 7.2679697,45.2700429 7.4924974,45.2700429 C7.63892742,45.2700429 7.84149405,45.2456389 8.11239927,45.2065901 C8.07091378,45.2529614 8.03674449,45.2993327 7.99280986,45.3481406 C6.20387324,47.2493504 4.51258996,48.2646202 3.34843475,48.7941849 L3.3484535,48.7941787 Z M9.70123089,37.5137503 L6.4016353,36.0493876 L7.98064536,31.3732736 L12.1125123,33.208569 L9.70123089,37.5137503 Z M25.2745324,6.10411439 C22.0164223,16.1031161 19.9272782,20.7839784 14.631381,29.9457731 C14.5410814,30.0970889 14.4434593,30.2630433 14.3458372,30.4387631 C14.0944626,30.8780594 13.5306849,31.8567045 13.2354132,32.0641944 L8.15175425,29.8066717 C8.14199516,29.5333299 8.20300507,28.8646263 8.67159113,27.314856 C11.9199546,17.2302593 13.9895431,12.5418995 19.2147774,3.42946266 C20.2105541,1.76991827 22.0189839,1.6332161 23.3685742,2.23356856 C24.7206636,2.83394601 25.8335243,4.26898144 25.2746573,6.10427684 L25.2745324,6.10411439 Z" transform="rotate(13 9.54 104.934)"/>
    <g transform="translate(42.969 31.959)">
      <path d="M8.52203981 14.944672L7.20339735 14.944672 7.20339735 14.2859835C7.20339735 10.289244 10.4572932 7.03534819 14.4540327 7.03534819L15.1127212 7.03534819 15.1127212 8.35399066 14.4540327 8.35399066C11.1840018 8.35399066 8.52203981 11.0159843 8.52203981 14.2859838L8.52203981 14.944672zM1.27140449 8.35399066L.612716001 8.35399066.612716001 7.03534819 1.27140449 7.03534819C4.54143532 7.03534819 7.20339735 4.37335454 7.20339735 1.10335534L7.20339735.44466685 8.52203981.44466685 8.52203981 1.10335534C8.52203981 5.10009484 5.27067498 8.35399066 1.27140449 8.35399066z"/>
      <path d="M8.52203981 14.944672L7.20339735 14.944672 7.20339735 14.2859835C7.20339735 11.0159527 4.54140369 8.35399066 1.27140449 8.35399066L.612716001 8.35399066.612716001 7.03534819 1.27140449 7.03534819C5.26940949 7.03534819 8.52203981 10.289244 8.52203981 14.2859832L8.52203981 14.944672zM15.1127212 8.35399066L14.4540327 8.35399066C10.4572932 8.35399066 7.20339735 5.10009484 7.20339735 1.10335534L7.20339735.44466685 8.52203981.44466685 8.52203981 1.10335534C8.52203981 4.37338617 11.1840335 7.03534819 14.4540327 7.03534819L15.1127212 7.03534819 15.1127212 8.35399066z"/>
    </g>
    <g transform="translate(.927 43.385)">
      <path d="M4.67573378 7.80503202L3.81027247 7.80503202 3.81108436 7.37271665C3.81108436 5.22567492 5.55741418 3.47938664 7.70441437 3.47938664L8.13672974 3.47938664 8.13672974 4.34484794 7.70441437 4.34484794C6.03433153 4.34403605 4.67571509 5.70265457 4.67571509 7.37271665L4.67573378 7.80503202zM.782403763 4.34401737L.350088398 4.34401737.350088398 3.47936587.782403763 3.47936587C2.45248661 3.47936587 3.81110305 2.12074943 3.81110305.450666586L3.81110305.0183512215 4.67656435.0183512215 4.67656435.450666586C4.67575247 2.59770831 2.92942472 4.3439966.782403763 4.3439966L.782403763 4.34401737z"/>
      <path d="M4.67573378 7.80503202L3.81027247 7.80503202 3.81108436 7.37271665C3.81108436 5.70263381 2.45246792 4.34401737.782385075 4.34401737L.35006971 4.34401737.35006971 3.47936587.782385075 3.47936587C2.9294268 3.47936587 4.67571509 5.22569569 4.67571509 7.37269589L4.67573378 7.80503202zM8.13674843 4.34401737L7.70443306 4.34401737C5.55739134 4.34401737 3.81110305 2.59768755 3.81110305.450687351L3.81110305.0183719859 4.67656435.0183719859 4.67656435.450687351C4.67575247 2.12077019 6.03437098 3.47938664 7.70443306 3.47938664L8.13674843 3.47938664 8.13674843 4.34401737z"/>
    </g>
    <path d="M53.8350383 21.5209547C53.8350383 22.5807972 52.2459805 22.5807972 52.2459805 21.5209547 52.2459805 20.4611122 53.8350383 20.4611122 53.8350383 21.5209547M45.0253152 34.7329035C45.0253152 36.8526267 41.8457496 36.8526267 41.8457496 34.7329035 41.8457496 32.6131804 45.0253152 32.6131804 45.0253152 34.7329035"/>
    <g transform="translate(9.604)">
      <path d="M7.27146602 20.5593839C7.27146602 22.6791071 4.09190035 22.6791071 4.09190035 20.5593839 4.09190035 18.4381725 7.27146602 18.4381725 7.27146602 20.5593839M2.2360477 19.9770703C2.2360477 21.0369128.646989922 21.0369128.646989922 19.9770703.646989922 18.9172278 2.2360477 18.9172278 2.2360477 19.9770703"/>
      <g transform="translate(3.03 .034)">
        <polygon points="7.293 10.627 8.618 10.627 8.618 4.003 7.293 4.003"/>
        <polygon points="4.644 7.978 11.268 7.978 11.268 6.652 4.644 6.652"/>
        <polygon points="7.293 1.353 8.618 1.353 8.618 .028 7.293 .028"/>
        <polygon points="13.918 7.978 15.244 7.978 15.244 6.652 13.918 6.652"/>
        <polygon points="7.293 14.603 8.618 14.603 8.618 13.278 7.293 13.278"/>
        <polygon points=".669 7.978 1.994 7.978 1.994 6.652 .669 6.652"/>
      </g>
    </g>
    <path d="M57.2328996,29.1271312 C57.2328996,30.1869738 55.6423536,30.1869738 55.6423536,29.1271312 C55.6423536,28.0672887 57.2328996,28.0672887 57.2328996,29.1271312"/>
  </g>
</svg>
