<svg xmlns="http://www.w3.org/2000/svg" width="31" height="31" viewBox="0 0 31 31">
  <path fill="#FFF" fill-rule="evenodd" d="M14.960842,0.53758867 C13.5186753,-0.103474115 11.9653208,0.357903975 11.1810413,1.66592934 C7.87636187,7.42633358 6.56822874,10.3882035 4.51523085,16.7625778 C4.1786733,17.8757154 4.08120074,18.5320203 4.20151515,18.9492471 L3.03954018,22.3891171 C1.98267121,22.8033033 1.0993675,23.633196 0.650132892,24.6579999 C0.293778306,25.4757301 0.257232916,26.4411251 0.546578524,27.3745936 C0.628815398,27.6380277 0.727800617,27.8968775 0.825265385,28.1466367 C1.02628452,28.6643597 1.21512446,29.1531579 1.2349293,29.6526372 C1.25320589,30.1323135 1.11462269,30.5601825 0.813101782,30.9622062 C0.69736042,31.1144786 0.686701673,31.3215756 0.785690791,31.4844902 C0.870972463,31.6261052 1.02478356,31.7113788 1.18619302,31.7113788 C1.21055921,31.7113788 1.2349254,31.7098562 1.25929159,31.7052879 C1.34609762,31.6915833 3.40351651,31.339831 5.665089,28.9323664 C7.61894572,26.8538339 7.04788015,24.7402173 6.77069035,24.0307407 L8.52353574,20.8999998 C9.03522577,20.7020441 9.41596214,20.0487838 9.75708883,19.4549285 C9.81647997,19.3513839 9.8728302,19.2539283 9.93069698,19.157993 C13.277988,13.3671827 14.5984797,10.4111601 16.6588849,4.08902192 C17.1035582,2.63935073 16.4045642,1.17907636 14.9608537,0.537974594 L14.960842,0.53758867 Z M1.51070391,25.0324632 C1.8640137,24.2269344 2.56453198,23.5736702 3.40366465,23.2523786 L5.90425974,24.3624756 C6.0565465,24.7294582 6.41290888,25.8441122 5.78699793,27.1475611 C5.66212217,27.1643117 5.50678672,27.1886756 5.30727634,27.2206528 C5.18240058,27.2404479 5.01945118,27.266336 4.89001017,27.2861312 C4.83975344,27.2176082 4.78036231,27.1353791 4.70421893,27.034879 C4.59457107,26.8856512 4.48339885,26.7379436 4.43771517,26.6694206 C4.40573503,26.6008977 4.35700264,26.5399879 4.29761151,26.4943046 C4.10877157,26.3496455 3.96105397,26.3724852 3.33668686,26.4714611 C3.24988084,26.4851672 3.14023298,26.5019179 3.04581691,26.5156201 C2.99860887,26.4501417 2.93921384,26.370961 2.86763961,26.2735054 C2.7686505,26.139504 2.61788809,25.9354554 2.5874284,25.8836831 L2.55240346,25.901958 L2.4397108,25.7100913 C2.2889445,25.6034983 2.22498422,25.5593392 1.31734551,25.7557746 C1.34932565,25.4999537 1.41328593,25.2563342 1.5107507,25.0324593 L1.51070391,25.0324632 Z M2.08941073,30.4443663 C2.1564197,30.1778877 2.18383069,29.9022794 2.17316805,29.6175142 C2.14727751,28.9612094 1.92036783,28.3749556 1.7010877,27.8085048 C1.60514728,27.5633416 1.51529645,27.3303487 1.44371833,27.0989112 C1.40259989,26.9694785 1.37366455,26.8369974 1.35082271,26.7060483 C1.57164279,26.6573205 1.78485282,26.6131615 1.93865222,26.5857531 C1.98738461,26.6527557 2.04525529,26.7319364 2.11682951,26.8278678 C2.22647738,26.9770957 2.33764959,27.1248032 2.38333328,27.1948504 C2.41531342,27.2633734 2.4640458,27.3242831 2.52344083,27.3699664 C2.71075642,27.5131052 2.85847793,27.4917859 3.48284503,27.3928061 C3.56965105,27.3791038 3.67929892,27.3623532 3.77523934,27.348647 C3.82244737,27.4141255 3.8818424,27.4933062 3.95341663,27.5907617 C4.05240575,27.7247632 4.20316815,27.9288118 4.23362784,27.9790598 L4.26560798,27.9623092 L4.3676419,28.1435142 C4.45901707,28.2135614 4.53516044,28.2455385 4.6752641,28.2455385 C4.76663537,28.2455385 4.89303548,28.230312 5.06207837,28.2059481 C5.03619173,28.2348807 5.01487034,28.2638133 4.98745545,28.2942663 C3.87117196,29.4804955 2.81582344,30.1139568 2.08939903,30.4443702 L2.08941073,30.4443663 Z M6.0534978,23.4061245 L3.99457405,22.492459 L4.97986489,19.5748729 L7.55811991,20.7199759 L6.0534978,23.4061245 Z M15.7711251,3.80858765 C13.738088,10.0473039 12.4344772,12.9678526 9.12987576,18.6842069 C9.07352943,18.778618 9.01261395,18.8821626 8.95169847,18.9918001 C8.79484256,19.265892 8.44304933,19.8765018 8.25880193,20.0059618 L5.0866356,18.5974169 C5.080546,18.4268696 5.11861574,18.0096428 5.41101004,17.0426886 C7.43796535,10.7505667 8.72937353,7.8253401 11.9898819,2.13978174 C12.6112393,1.10433573 13.7396864,1.01904261 14.581821,1.39362286 C15.425515,1.76821871 16.119932,2.66358598 15.7712031,3.80868901 L15.7711251,3.80858765 Z" transform="rotate(13 14.194 46.47)"/>
</svg>
