<svg xmlns="http://www.w3.org/2000/svg" width="59" height="59" viewBox="0 0 59 59">
  <g fill="none" fill-rule="evenodd">
    <path fill="#676767" d="M41.2597845,6.7973662 C38.9736206,5.78103928 36.5111986,6.51249802 35.2679363,8.58621284 C30.0292638,17.7186318 27.9555737,22.4143156 24.7011027,32.5201094 C24.1675821,34.2848534 24.0130658,35.3253447 24.2037916,35.986807 L22.3617956,41.4403017 C20.6864167,42.0969435 19.2861784,43.4126372 18.5740388,45.0373389 C18.0091353,46.3337506 17.9512025,47.8642666 18.4098815,49.3441672 C18.5402457,49.7618099 18.6971599,50.1721847 18.8516638,50.5681474 C19.1703251,51.3889341 19.4696796,52.1638641 19.5010748,52.9557277 C19.5300474,53.7161961 19.3103613,54.3945302 18.8323817,55.0318899 C18.6489052,55.2732992 18.6320087,55.6016262 18.7889291,55.8599074 C18.92412,56.0844208 19.1679458,56.2196117 19.4238167,56.2196117 C19.4624426,56.2196117 19.5010686,56.2171977 19.5396946,56.2099552 C19.677302,56.1882283 22.9387813,55.6305679 26.5238908,51.8138261 C29.6212004,48.5185661 28.7159309,45.1676846 28.2765217,44.0428959 L31.0551824,39.0794877 C31.8663281,38.7656531 32.4698823,37.7299885 33.0106461,36.7885032 C33.1047946,36.6243459 33.1941226,36.469842 33.2858547,36.3177483 C38.5920762,27.1371241 40.6853574,22.4507105 43.9515707,12.4277309 C44.6564795,10.1294538 43.5484143,7.81436677 41.2598031,6.79797804 L41.2597845,6.7973662 Z M19.9382406,45.6310048 C20.4983174,44.3539371 21.608799,43.3182662 22.9390162,42.8088976 L26.9030311,44.5688211 C27.1444404,45.1506274 27.7093563,46.9177755 26.7171443,48.9842348 C26.5191877,49.0107909 26.2729455,49.0494169 25.9566759,49.1001127 C25.7587193,49.1314956 25.5004072,49.172538 25.2952136,49.2039208 C25.2155452,49.095286 25.1213967,48.9649218 25.000692,48.8055911 C24.8268751,48.5690085 24.6506417,48.3348362 24.5782226,48.2262014 C24.5275268,48.1175666 24.4502748,48.0210016 24.3561263,47.9485763 C24.0567718,47.7192368 23.8226057,47.7554464 22.8328411,47.9123606 C22.6952337,47.93409 22.5214167,47.9606462 22.3717457,47.9823694 C22.2969101,47.8785613 22.2027554,47.75303 22.0892939,47.598526 C21.9323736,47.3860831 21.6933807,47.0625889 21.6450951,46.9805102 L21.5895726,47.0094828 L21.4109289,46.7053016 C21.1719299,46.5363114 21.0705382,46.4663026 19.6317233,46.7777269 C19.6824192,46.3721541 19.7838108,45.9859251 19.9383148,45.6309987 L19.9382406,45.6310048 Z M20.8556232,54.2109177 C20.9618478,53.7884483 21.0053005,53.351505 20.9883977,52.9000445 C20.9473553,51.8595531 20.5876516,50.9301192 20.2400424,50.0320805 C20.0879549,49.6434042 19.9455208,49.2740224 19.8320532,48.9071064 C19.766871,48.7019066 19.7210019,48.491874 19.6847924,48.2842701 C20.0348427,48.2070182 20.3728293,48.1370093 20.6166365,48.0935566 C20.6938885,48.1997812 20.7856268,48.3253126 20.8990883,48.4774001 C21.0729052,48.7139827 21.2491386,48.948155 21.3215577,49.0592063 C21.3722535,49.1678411 21.4495055,49.264406 21.5436602,49.3368313 C21.8405982,49.5637605 22.0747706,49.5299612 23.0645352,49.3730409 C23.2021426,49.3513176 23.3759595,49.3247615 23.528047,49.303032 C23.6028825,49.4068401 23.6970372,49.5323715 23.8104987,49.6868754 C23.9674191,49.8993184 24.206412,50.2228125 24.2546976,50.3024748 L24.3053934,50.2759186 L24.4671405,50.5631971 C24.611991,50.6742483 24.7326957,50.7249442 24.954792,50.7249442 C25.0996364,50.7249442 25.3000094,50.7008045 25.5679811,50.6621785 C25.5269448,50.7080476 25.4931455,50.7539167 25.4496867,50.8021961 C23.6801221,52.6828181 22.0071535,53.6870937 20.8556047,54.2109239 L20.8556232,54.2109177 Z M27.1396075,43.0526431 L23.8757427,41.6041377 L25.4376539,36.9786605 L29.5247776,38.7940818 L27.1396075,43.0526431 Z M42.5442685,11.9831365 C39.3214399,21.8738608 37.2549188,26.5040349 32.0163699,35.5666181 C31.9270481,35.7162953 31.8304831,35.8804527 31.7339182,36.0542696 C31.4852657,36.4888089 30.927593,37.4568564 30.6355188,37.6620994 L25.6069099,35.4290231 C25.5972565,35.1586412 25.6576057,34.4971789 26.1211175,32.9641908 C29.3343051,22.9887983 31.3814823,18.351208 36.5501336,9.33744808 C37.5351271,7.6958746 39.3239737,7.56065275 40.6589496,8.1545041 C41.9963975,8.74838017 43.0972072,10.1678759 42.5443921,11.9832972 L42.5442685,11.9831365 Z" transform="rotate(13 31.133 31.282)"/>
    <path fill="#676767" d="M56.8007352 41.5717125L57.4522909 41.5717125 57.4522909 42.8760756 56.8007352 42.8760756C53.5661149 42.8760756 50.9329788 45.509243 50.9329788 48.7438323L50.9329788 49.3953876 49.6286157 49.3953876 49.6286157 48.743832C49.6286157 45.5092117 46.9954483 42.8760756 43.7608593 42.8760756L43.1093037 42.8760756 43.1093037 41.5717125 43.7608593 41.5717125C46.9954796 41.5717125 49.6286157 38.9385451 49.6286157 35.7039561L49.6286157 35.0524005 50.9329788 35.0524005 50.9329788 35.7039561C50.9329788 38.9385764 53.5661462 41.5717125 56.8007352 41.5717125zM53.8142091 42.2238941C52.256666 41.5072732 50.9977177 40.2484028 50.2809964 38.6909151 49.5646044 40.2484928 48.3060249 41.5074187 46.7481955 42.2240183 48.3057671 42.9406936 49.5644193 44.1995919 50.2808969 45.7570894 50.9976011 44.1995019 52.2565939 42.9405481 53.8142091 42.2238941zM8.96522011 50.2122874L8.96522011 50.213109 8.53758621 50.213109C6.8855884 50.2123059 5.54168417 51.5562122 5.54168417 53.2081895L5.54170265 53.6358234 4.68561327 53.6358234 4.68641637 53.2081895C4.68641637 51.5561917 3.34251214 50.2122874 1.69051433 50.2122874L1.26288043 50.2122874 1.26288043 49.3569991 1.69053281 49.3569991C3.34253063 49.3569991 4.68643486 48.0130949 4.68643486 46.3610971L4.68643486 45.9334632 5.54252424 45.9334632 5.54252424 46.1472904 5.54252424 46.3611176C5.54172114 48.0131154 6.88562742 49.3570196 8.5376047 49.3570196L8.9652386 49.3570196 8.9652386 50.2122874zM6.77461536 49.7846496C6.06395401 49.4172499 5.48166317 48.8349987 5.11421176 48.1243727 4.74659277 48.8350046 4.16422081 49.4172526 3.45352091 49.7846459 4.16426952 50.1520952 4.74661466 50.7344495 5.11405476 51.4451991 5.48150341 50.7344435 6.06386075 50.1520925 6.77461536 49.7846496zM53.2520683 24.2879082C53.2520683 25.3362738 51.6802182 25.3362738 51.6802182 24.2879082 51.6802182 23.2395425 53.2520683 23.2395425 53.2520683 24.2879082M44.5377441 37.3567871C44.5377441 39.4535562 41.3926094 39.4535562 41.3926094 37.3567871 41.3926094 35.260018 44.5377441 35.260018 44.5377441 37.3567871M16.6927246 23.33675C16.6927246 25.4335191 13.5475899 25.4335191 13.5475899 23.33675 13.5475899 21.2385088 16.6927246 21.2385088 16.6927246 23.33675M11.7118339 22.7607422C11.7118339 23.8091078 10.1399838 23.8091078 10.1399838 22.7607422 10.1399838 21.7123765 11.7118339 21.7123765 11.7118339 22.7607422M19.7106544 10.9247868L17.0899648 10.9247868 17.0899648 9.61381287 19.7106544 9.61381287 19.7106544 6.99312322 21.0216283 6.99312322 21.0216283 9.61381287 23.642318 9.61381287 23.642318 10.9247868 21.0216283 10.9247868 21.0216283 13.5454764 19.7106544 13.5454764 19.7106544 10.9247868zM56.6131348 31.8117187C56.6131348 32.8600844 55.0398125 32.8600844 55.0398125 31.8117187 55.0398125 30.7633531 56.6131348 30.7633531 56.6131348 31.8117187M21.0900879 4.52914878C21.0900879 5.47306183 19.6748471 5.47306183 19.6748471 4.52914878 19.6748471 3.58523573 21.0900879 3.58523573 21.0900879 4.52914878M21.0900879 15.7464339C21.0900879 16.690347 19.6748471 16.690347 19.6748471 15.7464339 19.6748471 14.8025209 21.0900879 14.8025209 21.0900879 15.7464339M26.845459 10.2474105C26.845459 11.1913236 25.4302182 11.1913236 25.4302182 10.2474105 25.4302182 9.30349745 26.845459 9.30349745 26.845459 10.2474105M15.4338379 10.2474105C15.4338379 11.1913236 14.0185971 11.1913236 14.0185971 10.2474105 14.0185971 9.30349745 15.4338379 9.30349745 15.4338379 10.2474105"/>
  </g>
</svg>
