<svg xmlns="http://www.w3.org/2000/svg" width="59" height="59" viewBox="0 0 59 59">
  <g fill="#676767" fill-rule="evenodd" transform="translate(0 3)">
    <path d="M23.716355,0.852243741 C21.4301911,-0.164083186 18.9677691,0.567375554 17.7245067,2.64109037 C12.4858343,11.7735093 10.4121442,16.4691931 7.15767319,26.5749869 C6.62415254,28.3397309 6.46963624,29.3802223 6.66036208,30.0416846 L4.8183661,35.4951793 C3.14298716,36.151821 1.74274884,37.4675148 1.03060927,39.0922164 C0.46570578,40.3886281 0.407772982,41.9191441 0.866451923,43.3990447 C0.996816169,43.8166874 1.15373037,44.2270622 1.30823431,44.6230249 C1.6268956,45.4438117 1.92625008,46.2187416 1.95764528,47.0106052 C1.98661786,47.7710736 1.76693179,48.4494077 1.28895222,49.0867674 C1.1054757,49.3281767 1.08857915,49.6565038 1.24549953,49.9147849 C1.38069048,50.1392983 1.62451624,50.2744892 1.88038713,50.2744892 C1.91901311,50.2744892 1.9576391,50.2720753 1.99626508,50.2648328 C2.13387247,50.2431058 5.39535179,49.6854454 8.98046125,45.8687037 C12.0777709,42.5734436 11.1725014,39.2225621 10.7330922,38.0977734 L13.5117528,33.1343652 C14.3228985,32.8205306 14.9264527,31.784866 15.4672165,30.8433808 C15.561365,30.6792234 15.650693,30.5247195 15.7424251,30.3726258 C21.0486467,21.1920016 23.1419279,16.5055881 26.4081412,6.48260839 C27.11305,4.18433136 26.0049848,1.8692443 23.7163735,0.852855576 L23.716355,0.852243741 Z M2.39481109,39.6858824 C2.95488788,38.4088146 4.06536951,37.3731438 5.39558664,36.8637752 L9.35960156,38.6236987 C9.60101088,39.2055049 10.1659267,40.972653 9.17371478,43.0391123 C8.97575815,43.0656685 8.72951595,43.1042944 8.41324638,43.1549903 C8.21528975,43.1863731 7.9569777,43.2274155 7.75178411,43.2587984 C7.67211569,43.1501636 7.57796717,43.0197993 7.45726251,42.8604687 C7.28344558,42.6238861 7.1072122,42.3897137 7.03479312,42.2810789 C6.98409728,42.1724441 6.90684531,42.0758791 6.81269679,42.0034539 C6.51334231,41.7741144 6.27917614,41.8103239 5.28941153,41.9672381 C5.15180414,41.9889676 4.97798721,42.0155237 4.82831615,42.037247 C4.75348062,41.9334389 4.65932592,41.8079075 4.5458644,41.6534035 C4.38894402,41.4409606 4.14995114,41.1174665 4.10166557,41.0353878 L4.04614304,41.0643604 L3.8674994,40.7601792 C3.62850034,40.591189 3.52710868,40.5211801 2.08829381,40.8326045 C2.13898965,40.4270316 2.24038131,40.0408027 2.39488525,39.6858762 L2.39481109,39.6858824 Z M3.31219369,48.2657952 C3.41841824,47.8433259 3.46187093,47.4063825 3.4449682,46.954922 C3.40392577,45.9144307 3.04422206,44.9849968 2.69661291,44.086958 C2.54452541,43.6982818 2.40209132,43.3288999 2.28862362,42.961984 C2.2234415,42.7567842 2.17757237,42.5467515 2.14136283,42.3391477 C2.49141314,42.2618957 2.82939978,42.1918869 3.073207,42.1484342 C3.15045897,42.2546587 3.24219723,42.3801901 3.35565874,42.5322776 C3.52947568,42.7688602 3.70570905,43.0030326 3.77812814,43.1140838 C3.82882397,43.2227186 3.90607594,43.3192836 4.00023064,43.3917089 C4.29716868,43.6186381 4.53134103,43.5848388 5.52110564,43.4279184 C5.65871303,43.4061951 5.83252997,43.379639 5.98461747,43.3579096 C6.059453,43.4617177 6.1536077,43.587249 6.26706921,43.741753 C6.42398959,43.9541959 6.66298247,44.2776901 6.71126804,44.3573523 L6.76196388,44.3307962 L6.92371096,44.6180746 C7.0685615,44.7291259 7.18926616,44.7798217 7.41136248,44.7798217 C7.55620684,44.7798217 7.75657991,44.755682 8.02455154,44.717056 C7.9835153,44.7629252 7.94971602,44.8087943 7.90625715,44.8570737 C6.13669261,46.7376956 4.46372393,47.7419713 3.31217515,48.2658014 L3.31219369,48.2657952 Z M9.596178,37.1075206 L6.33231314,35.6590153 L7.89422438,31.0335381 L11.981348,32.8489594 L9.596178,37.1075206 Z M25.000839,6.03801403 C21.7780104,15.9287383 19.7114892,20.5589125 14.4729404,29.6214956 C14.3836186,29.7711729 14.2870536,29.9353302 14.1904887,30.1091472 C13.9418362,30.5436864 13.3841635,31.5117339 13.0920892,31.716977 L8.06348036,29.4839006 C8.05382695,29.2135187 8.11417619,28.5520564 8.57768801,27.0190683 C11.7908756,17.0436759 13.8380528,12.4060856 19.0067041,3.39232562 C19.9916976,1.75075214 21.7805442,1.61553029 23.1155201,2.20938164 C24.452968,2.80325771 25.5537777,4.2227534 25.0009626,6.03817471 L25.000839,6.03801403 Z" transform="rotate(13 9.437 103.797)"/>
    <g transform="translate(42.503 31.613)">
      <path d="M8.42975616 14.7828388L7.12539304 14.7828388 7.12539304 14.1312832C7.12539304 10.1778236 10.344053 6.95916367 14.2975125 6.95916367L14.9490682 6.95916367 14.9490682 8.26352679 14.2975125 8.26352679C11.0628923 8.26352679 8.42975616 10.8966942 8.42975616 14.1312835L8.42975616 14.7828388zM1.25763668 8.26352679L.606081009 8.26352679.606081009 6.95916367 1.25763668 6.95916367C4.49225693 6.95916367 7.12539304 4.32599626 7.12539304 1.0914073L7.12539304.439851632 8.42975616.439851632 8.42975616 1.0914073C8.42975616 5.04486683 5.21359978 8.26352679 1.25763668 8.26352679z"/>
      <path d="M8.42975616 14.7828388L7.12539304 14.7828388 7.12539304 14.1312832C7.12539304 10.8966629 4.49222564 8.26352679 1.25763668 8.26352679L.606081009 8.26352679.606081009 6.95916367 1.25763668 6.95916367C5.21234799 6.95916367 8.42975616 10.1778236 8.42975616 14.1312828L8.42975616 14.7828388zM14.9490682 8.26352679L14.2975125 8.26352679C10.344053 8.26352679 7.12539304 5.04486683 7.12539304 1.0914073L7.12539304.439851632 8.42975616.439851632 8.42975616 1.0914073C8.42975616 4.32602756 11.0629236 6.95916367 14.2975125 6.95916367L14.9490682 6.95916367 14.9490682 8.26352679z"/>
    </g>
    <g transform="translate(.917 42.915)">
      <path d="M4.62510109 7.72051272L3.76901171 7.72051272 3.76981481 7.29287882C3.76981481 5.16908702 5.49723393 3.44170898 7.62098465 3.44170898L8.04861855 3.44170898 8.04861855 4.29779836 7.62098465 4.29779836C5.96898683 4.29699526 4.62508261 5.64090154 4.62508261 7.29287882L4.62510109 7.72051272zM.773931252 4.29697678L.346297354 4.29697678.346297354 3.44168844.773931252 3.44168844C2.42592907 3.44168844 3.76983329 2.09778421 3.76983329.445786398L3.76983329.0181524994 4.62592267.0181524994 4.62592267.445786398C4.62511958 2.56957819 2.89770251 4.29695624.773931252 4.29695624L.773931252 4.29697678z"/>
      <path d="M4.62510109 7.72051272L3.76901171 7.72051272 3.76981481 7.29287882C3.76981481 5.640881 2.42591058 4.29697678.773912767 4.29697678L.346278868 4.29697678.346278868 3.44168844.773912767 3.44168844C2.89770456 3.44168844 4.62508261 5.16910756 4.62508261 7.29285828L4.62510109 7.72051272zM8.04863703 4.29697678L7.62100313 4.29697678C5.49721134 4.29697678 3.76983329 2.56955765 3.76983329.445806938L3.76983329.018173039 4.62592267.018173039 4.62592267.445806938C4.62511958 2.09780475 5.96902586 3.44170898 7.62100313 3.44170898L8.04863703 3.44170898 8.04863703 4.29697678z"/>
    </g>
    <path d="M53.2520683 21.2879082C53.2520683 22.3362738 51.6802182 22.3362738 51.6802182 21.2879082 51.6802182 20.2395425 53.2520683 20.2395425 53.2520683 21.2879082M44.5377441 34.3567871C44.5377441 36.4535562 41.3926094 36.4535562 41.3926094 34.3567871 41.3926094 32.260018 44.5377441 32.260018 44.5377441 34.3567871"/>
    <g transform="translate(9.5)">
      <path d="M7.19272461 20.33675C7.19272461 22.4335191 4.04758989 22.4335191 4.04758989 20.33675 4.04758989 18.2385088 7.19272461 18.2385088 7.19272461 20.33675M2.21183394 19.7607422C2.21183394 20.8091078.639983784 20.8091078.639983784 19.7607422.639983784 18.7123765 2.21183394 18.7123765 2.21183394 19.7607422"/>
      <g transform="translate(2.997 .034)">
        <polygon points="7.214 10.512 8.525 10.512 8.525 3.959 7.214 3.959"/>
        <polygon points="4.593 7.891 11.146 7.891 11.146 6.58 4.593 6.58"/>
        <polygon points="7.214 1.339 8.525 1.339 8.525 .028 7.214 .028"/>
        <polygon points="13.768 7.891 15.079 7.891 15.079 6.58 13.768 6.58"/>
        <polygon points="7.214 14.445 8.525 14.445 8.525 13.134 7.214 13.134"/>
        <polygon points=".662 7.891 1.973 7.891 1.973 6.58 .662 6.58"/>
      </g>
    </g>
    <path d="M56.6131348,28.8117187 C56.6131348,29.8600844 55.0398125,29.8600844 55.0398125,28.8117187 C55.0398125,27.7633531 56.6131348,27.7633531 56.6131348,28.8117187"/>
  </g>
</svg>
