<svg xmlns="http://www.w3.org/2000/svg" width="29" height="19" viewBox="0 0 29 19">
  <path fill="currentColor" fill-rule="evenodd" d="M2.70004883,3 C2.31994565,3 2,3.31994565 2,3.70004883 L2,14.9008301 C2,15.2809333 2.31994565,15.6008789 2.70004883,15.6008789 L21.8347168,15.6008789 C22.21482,15.6008789 22.5347656,15.2809333 22.5347656,14.9008301 L22.5347656,3.70004883 C22.5347656,3.31994565 22.21482,3 21.8347168,3 L2.70004883,3 Z M2.93339844,3.93339844 L21.6013672,3.93339844 L21.6013672,5.09286598 L12.2673828,11.7652647 L2.93339844,5.09286598 L2.93339844,3.93339844 Z M2.93339844,6.23772583 L7.70983159,9.65046387 L2.93339844,14.0477039 L2.93339844,6.23772583 Z M21.6013672,6.23772583 L21.6013672,14.0477039 L16.824934,9.65046387 L21.6013672,6.23772583 Z M8.48991934,10.2046692 L11.9973973,12.7131775 C12.1587376,12.8271174 12.3756804,12.8271174 12.5370183,12.7131775 L16.0444963,10.2046692 L20.8937345,14.6674805 L3.64033108,14.6674805 L8.48991934,10.2046692 Z"/>
</svg>
