<svg xmlns="http://www.w3.org/2000/svg" width="31" height="31" viewBox="0 0 31 31">
  <g fill="#FFF" transform="translate(-.2 3)">
    <path d="M29.9641239 15.9800579L29.9641239 8.56033338 16.181221 14.4665534 16.181221 21.8883455 29.9641239 15.9800579zM30.5808689 16.678412L15.9131057 22.9660107C15.621156 23.0911602 15.2963608 22.8770104 15.2963608 22.5593675L15.2963608 14.1748023C15.2963608 13.9978105 15.4018433 13.8378501 15.5645275 13.768137L30.2322907 7.4827386C30.5242341 7.35763564 30.8489841 7.57178512 30.8489841 7.88940392L30.8489841 16.2717687C30.8489841 16.4487401 30.7435256 16.6086863 30.5808689 16.678412zM17.477107 1.97532044C17.477107 1.75996179 16.7184309 1.43412348 15.7390109 1.43412348 14.7578043 1.43412348 13.9987694 1.75988262 13.9987694 1.97532044 13.9987694 2.1903645 14.7592527 2.5165174 15.7390109 2.5165174 16.7200845 2.5165174 17.477107 2.19192771 17.477107 1.97532044zM18.191107 1.97532044C18.191107 2.75158123 17.0741108 3.2305174 15.7390109 3.2305174 14.4052503 3.2305174 13.2847694 2.74997027 13.2847694 1.97532044 13.2847694 1.20041397 14.40387.720123477 15.7390109.720123477 17.0722955.720123477 18.191107 1.2006337 18.191107 1.97532044z"/>
    <path d="M13.2864747 4.37153917L13.2864747 1.97559548 14.0004747 1.97559548C14.0004747 2.19063955 14.760958 2.51679244 15.7407162 2.51679244 16.7217898 2.51679244 17.4788123 2.19220276 17.4788123 1.97559548L18.1928123 1.97559548 18.1928123 4.37153917C18.1928123 5.14779595 17.0758115 5.62673613 15.7407162 5.62673613 14.4055753 5.62673613 13.2864747 5.14644564 13.2864747 4.37153917zM13.2864747 1.97559548C13.2864747 1.49959548 14.0004747 1.49959548 14.0004747 1.97559548L14.0004747 2.8873443C13.561185 2.67062284 13.2864747 2.35916201 13.2864747 1.97559548zM14.0004747 4.37153917C14.0004747 4.58697699 14.7595096 4.91273613 15.7407162 4.91273613 16.7217856 4.91273613 17.4788123 4.58814327 17.4788123 4.37153917L17.4788123 2.88872085C17.0317494 3.10900604 16.4139631 3.23079244 15.7407162 3.23079244 15.0673648 3.23079244 14.4483732 3.10831286 14.0004747 2.8873443L14.0004747 4.37153917zM17.4788123 1.97559548C17.4788123 1.49959548 18.1928123 1.49959548 18.1928123 1.97559548 18.1928123 2.36041354 17.9183092 2.67216372 17.4788123 2.88872085L17.4788123 1.97559548zM18.191107 8.26291919C18.191107 6.58787466 13.2869148 6.58787466 13.2869148 8.26291919 13.2869148 9.93581834 18.191107 9.93581834 18.191107 8.26291919zM17.477107 8.26291919C17.477107 8.98381834 14.0009148 8.98381834 14.0009148 8.26291919 14.0009148 7.53987466 17.477107 7.53987466 17.477107 8.26291919z"/>
    <path d="M13.2864747 8.5C13.2864747 8.30283434 13.4463091 8.143 13.6434747 8.143 13.8406404 8.143 14.0004747 8.30283434 14.0004747 8.5L14.0004747 10.6569375C14.0004747 10.8736174 14.7578634 11.1981345 15.7407162 11.1981345 16.7217856 11.1981345 17.4788123 10.8735416 17.4788123 10.6569375L17.4788123 8.26099385C17.4788123 8.06382819 17.6386467 7.90399385 17.8358123 7.90399385 18.032978 7.90399385 18.1928123 8.06382819 18.1928123 8.26099385L18.1928123 10.6569375C18.1928123 11.4331943 17.0758115 11.9121345 15.7407162 11.9121345 14.4037678 11.9121345 13.2864747 11.4334098 13.2864747 10.6569375L13.2864747 8.5zM25.527189 5.11911981C25.527189 3.44836603 20.6229968 3.44836603 20.6229968 5.11911981 20.6229968 6.79201897 25.527189 6.79201897 25.527189 5.11911981zM24.813189 5.11911981C24.813189 5.84001897 21.3369968 5.84001897 21.3369968 5.11911981 21.3369968 4.40036603 24.813189 4.40036603 24.813189 5.11911981z"/>
    <path d="M20.6204059 5.11971534L21.3344058 5.11939486C21.3344058 5.33561194 22.0928714 5.66059182 23.0725019 5.66059182 24.0537085 5.66059182 24.8127434 5.33483268 24.8127434 5.11939486L25.5267433 5.11907438 25.5288943 7.51533855C25.5288943 8.29155865 24.410227 8.77053551 23.0746528 8.77053551 21.7414643 8.77053551 20.6227334 8.29010921 20.6225567 7.51552212L20.6204059 5.11971534zM20.6204058 5.11939486C20.6204058 4.64339486 21.3339783 4.64307457 21.3344057 5.11907438L21.3352257 6.03257705C20.8953754 5.81598307 20.6204058 5.50417801 20.6204058 5.11939486zM21.3365565 7.51501806C21.3365567 7.73070357 22.0952244 8.05653551 23.0746528 8.05653551 24.0560624 8.05653551 24.8148943 7.73162841 24.8148944 7.51565903L24.8135617 6.03108991C24.3658168 6.2521219 23.7467036 6.37459182 23.0725019 6.37459182 22.4001029 6.37459182 21.7824403 6.2527974 21.3352257 6.03257705L21.3365565 7.51501806zM24.8127436 5.11971534C24.8123162 4.64371554 25.5267434 4.64339486 25.5267434 5.11939486 25.5267434 5.50299938 25.2524989 5.81440591 24.8135617 6.03108991L24.8127436 5.11971534zM10.8588757 5.11911981C10.8588757 3.44836603 5.95253811 3.44836603 5.95253811 5.11911981 5.95253811 6.79201897 10.8588757 6.79201897 10.8588757 5.11911981zM10.1448757 5.11911981C10.1448757 5.84001897 6.66653811 5.84001897 6.66653811 5.11911981 6.66653811 4.40036603 10.1448757 4.40036603 10.1448757 5.11911981z"/>
    <path d="M5.86716305 7.51556907L5.86501782 5.11979102 6.74987785 5.11939486C6.74987785 5.14131975 6.84987882 5.24258649 7.09587614 5.34791453 7.42803292 5.49013324 7.89767123 5.57516172 8.40468924 5.57516172 8.91207188 5.57516172 9.381709 5.48985473 9.71396058 5.34726051 9.95951956 5.24187263 10.0595006 5.14056054 10.0595006 5.11939486L10.9443607 5.1189987 10.9465062 7.51533855C10.9465062 8.35855431 9.78478466 8.85596561 8.40683461 8.85596561 7.02947124 8.85596561 5.86737519 8.3572765 5.86716305 7.51556907zM5.86501765 5.11939486C5.86501765 4.52948806 6.74934946 4.52909214 6.74987767 5.1189987L6.75081602 6.16693966C6.21165152 5.93741233 5.86501765 5.57999407 5.86501765 5.11939486zM6.75202304 7.51494239C6.75202322 7.53650423 6.85200429 7.63781632 7.09756327 7.7432042 7.42981485 7.88579842 7.89945197 7.97110541 8.40683461 7.97110541 8.91385262 7.97110541 9.38349093 7.88607692 9.71564771 7.74385822 9.96164503 7.63853018 10.061646 7.53726344 10.0616462 7.51573471L10.0604372 6.16559821C9.6122367 6.357009 9.03069658 6.46002192 8.40468924 6.46002192 7.77943232 6.46002192 7.1986962 6.35760641 6.75081602 6.16693966L6.75202304 7.51494239zM10.0595008 5.11979102C10.0589726 4.52988446 10.9443608 4.52948806 10.9443608 5.11939486 10.9443608 5.5786599 10.5984733 5.93582179 10.0604372 6.16559821L10.0595008 5.11979102zM.628597588 7.88885382C.628597588 7.57119851.953416143 7.35704858 1.24536908 7.48222196L15.9152776 13.7718726C16.0779201 13.8416047 16.1833663 14.0015435 16.1833663 14.1785044L16.1833663 22.5608692C16.1833663 22.878534 15.85853 23.0926841 15.5665746 22.9674924L10.3298775 20.7219756 7.2594031 19.4048344 2.97894415 17.5704208.883848034 16.5921849C.728124444 16.5194749.628597588 16.3631628.628597588 16.1913007L.628597588 7.88885382zM1.51345779 8.5599234L1.51345779 15.9096279 3.34038025 16.7628683 7.60807817 18.5915674 10.6786578 19.9087537 15.2985061 21.8897633 15.2985061 14.4701946 1.51345779 8.5599234z"/>
    <polygon points="1.138 8.366 .784 7.554 6.139 5.222 6.493 6.034"/>
    <polygon points="9.559 4.698 9.206 3.887 13.432 2.046 13.786 2.858"/>
    <polygon points="24.96 6.045 25.308 5.231 30.613 7.502 30.265 8.316"/>
    <polygon points="17.515 2.859 17.863 2.045 21.99 3.811 22.261 3.937 21.889 4.74 21.629 4.62"/>
  </g>
</svg>
