<svg xmlns="http://www.w3.org/2000/svg" width="54" height="45" viewBox="0 0 54 45">
  <g fill="none" fill-rule="evenodd" stroke="#636363" stroke-linecap="round" stroke-linejoin="round" stroke-width="1.05" transform="translate(.53 1.319)">
    <polygon points=".653 35.53 18.061 42.991 18.061 33.041 .653 25.583"/>
    <path d="M20.546912,18.565134 C20.546912,19.987954 15.5721663,19.987954 15.5721663,18.565134 C15.5721663,17.1448598 20.546912,17.1448598 20.546912,18.565134"/>
    <path d="M15.5715788 21.4085546C15.5715788 21.9950198 16.6832935 22.4743803 18.0602245 22.4743803 19.4346097 22.4743803 20.5463245 21.9950068 20.5463245 21.4085546L20.5463245 18.5654604C20.5463245 19.1519257 19.432064 19.6312862 18.0602245 19.6312862 16.6858393 19.6312862 15.5715788 19.1519126 15.5715788 18.5654604L15.5715788 21.4085546zM20.546912 26.0261755C20.546912 26.6151866 19.4326514 27.0920013 18.060812 27.0920013 16.6864268 27.0920013 15.5721663 26.61518 15.5721663 26.0261755 15.5721663 25.4397103 16.683881 24.9603498 18.060812 24.9603498 19.4326514 24.9603498 20.546912 25.4397233 20.546912 26.0261755z"/>
    <path d="M15.5715788 28.8695961C15.5715788 29.4586071 16.6832935 29.9354218 18.0602245 29.9354218 19.4346097 29.9354218 20.5463245 29.4586006 20.5463245 28.8695961L20.5463245 26.0265019C20.5463245 26.615513 19.432064 27.0923277 18.0602245 27.0923277 16.6858393 27.0923277 15.5715788 26.6155064 15.5715788 26.0265019L15.5715788 28.8695961zM29.2514604 22.2956548C29.2514604 23.7184747 24.2767147 23.7184747 24.2767147 22.2956548 24.2767147 20.8753806 29.2514604 20.8753806 29.2514604 22.2956548"/>
    <path d="M24.27678 25.1390753C24.27678 25.7255406 25.3884947 26.2049011 26.7654257 26.2049011 28.1398109 26.2049011 29.2540714 25.7280798 29.2540714 25.1390753L29.2540714 22.2959812C29.2540714 22.8824464 28.1423567 23.3618069 26.7654257 23.3618069 25.3910405 23.3618069 24.27678 22.8849857 24.27678 22.2959812L24.27678 25.1390753zM11.8443218 22.2956548C11.8443218 23.7184747 6.8695761 23.7184747 6.8695761 22.2956548 6.8695761 20.8753806 11.8443218 20.8753806 11.8443218 22.2956548"/>
    <path d="M6.86898862,25.1390753 C6.86898862,25.7255406 7.98324915,26.2049011 9.35508859,26.2049011 C10.726928,26.2049011 11.8411886,25.7280798 11.8411886,25.1390753 L11.8411886,22.2959812 C11.8411886,22.8824464 10.726928,23.3618069 9.35508859,23.3618069 C7.98070338,23.3618069 6.86898862,22.8849857 6.86898862,22.2959812 L6.86898862,25.1390753 Z"/>
    <polygon points="18.061 33.041 18.061 42.99 52.871 28.071 52.871 18.122"/>
    <polygon points="52.871 18.122 35.466 25.583 35.466 15.634 52.871 8.175"/>
    <path d="M37.9520923,1.15734266 C37.9520923,1.7463537 36.8403775,2.22316843 35.4659923,2.22316843 C34.0916071,2.22316843 32.9773466,1.74379488 32.9773466,1.15734266 C32.9773466,0.570877381 34.0890613,0.0915168872 35.4659923,0.0915168872 C36.8403775,0.0915168872 37.9520923,0.570890437 37.9520923,1.15734266 Z"/>
    <path d="M32.9793701 4.00076321C32.9793701 4.58722849 34.0910849 5.06658898 35.4680159 5.06658898 36.8424011 5.06658898 37.9541158 4.58976772 37.9541158 4.00076321L37.9541158 1.15766904C37.9541158 1.74668008 36.8424011 2.22349481 35.4680159 2.22349481 34.0936307 2.22349481 32.9793701 1.74412126 32.9793701 1.15766904L32.9793701 4.00076321zM37.9520923 8.61838418C37.9520923 10.0386584 32.9798923 10.0386584 32.9798923 8.61838418 32.9798923 7.19556421 37.9520923 7.19556421 37.9520923 8.61838418"/>
    <path d="M32.9793701 11.4591937C32.9793701 12.0482047 34.0910849 12.5250195 35.4680159 12.5250195 36.8424011 12.5250195 37.9541158 12.0481982 37.9541158 11.4591937L37.9541158 8.61609952C37.9541158 9.20511056 36.8424011 9.68192529 35.4680159 9.68192529 34.0936307 9.68192529 32.9793701 9.20510403 32.9793701 8.61609952L32.9793701 11.4591937zM46.6572935 4.88786342C46.6572935 6.30813762 41.6850935 6.30813762 41.6850935 4.88786342 41.6850935 3.47013498 46.6572935 3.47013498 46.6572935 4.88786342"/>
    <path d="M41.6845713 7.73128397C41.6845713 8.31774924 42.7962861 8.79710974 44.1706713 8.79710974 45.5450565 8.79710974 46.659317 8.32028848 46.659317 7.73128397L46.6567647 4.8881898C46.6567647 5.47465508 45.54505 5.95401557 44.168119 5.95401557 42.7962796 5.95401557 41.682019 5.47719431 41.682019 4.8881898L41.6845713 7.73128397zM29.2514604 4.88786342C29.2514604 6.30813762 24.2767147 6.30813762 24.2767147 4.88786342 24.2767147 3.47013498 29.2514604 3.47013498 29.2514604 4.88786342"/>
    <path d="M24.27678 7.73128397C24.27678 8.31774924 25.3884947 8.79710974 26.7654257 8.79710974 28.1398109 8.79710974 29.2540714 8.32028848 29.2540714 7.73128397L29.2515257 4.8881898C29.2515257 5.47465508 28.1398109 5.95401557 26.7628799 5.95401557 25.3884947 5.95401557 24.2742342 5.47719431 24.2742342 4.8881898L24.27678 7.73128397zM18.0605509 8.17450769L18.0605509 17.5017887C19.4349361 17.5017887 20.5466509 17.97861 20.5466509 18.5676145L20.5466509 19.1872269 25.6106288 21.3571302C25.9574073 21.2780875 26.347529 21.2321855 26.7656868 21.2321855 28.140072 21.2321855 29.2543325 21.7090067 29.2543325 22.2980112L29.2543325 22.9201694 35.468277 25.5847338 35.468277 15.637984 18.0605509 8.17450769z"/>
    <path d="M29.2514604 22.9177346L29.2514604 25.1386184C29.2514604 25.7250837 28.1397456 26.2044442 26.7628147 26.2044442 25.3884295 26.2044442 24.2741689 25.7276229 24.2741689 25.1386184L24.2741689 22.2955242C24.2741689 21.8875495 24.8198367 21.5356468 25.6052109 21.3571824 23.7234357 20.551416 21.9156182 19.7762641 20.541233 19.1872791L20.541233 21.4081629C20.541233 21.9946282 19.4269724 22.4739887 18.055133 22.4739887 16.6807478 22.4739887 15.5664872 21.9946151 15.5664872 21.4081629L15.5664872 19.1898249 10.5050551 21.3571824C11.2954816 21.535673 11.836097 21.8875495 11.836097 22.2955242L11.836097 25.1386184C11.836097 25.7250837 10.7218365 26.2044442 9.34999707 26.2044442 7.97561186 26.2044442 6.86389709 25.7276229 6.86389709 25.1386184L6.86389709 22.9177346.64740691 25.582299C.64740691 25.582299 18.0551983 33.0433406 18.0525872 33.0433406L35.4603786 25.582299C35.4680289 25.582299 32.6326243 24.3660122 29.2515257 22.9177346L29.2514604 22.9177346zM46.6572935 5.50994326L46.6572935 7.73082703C46.6572935 8.31729231 45.5455787 8.79665281 44.1711935 8.79665281 42.7968083 8.79665281 41.6850935 8.31983155 41.6850935 7.73082703L41.6850935 4.88773287C41.6850935 4.47720587 42.2256568 4.12785549 43.0161355 3.94939103 41.1318145 3.14362466 39.3290885 2.36847271 37.9521576 1.77948778L37.9521576 4.00037155C37.9521576 4.58683683 36.8404428 5.06619732 35.4660576 5.06619732 34.0916724 5.06619732 32.9774118 4.58937606 32.9774118 4.00037155L32.9774118 1.77948778 27.9159797 3.94939103C28.7038604 4.1278816 29.2470216 4.47975816 29.2470216 4.88773287L29.2470216 7.73082703C29.2470216 8.31729231 28.1353069 8.79665281 26.7583759 8.79665281 25.3839907 8.79665281 24.2697302 8.31983155 24.2697302 7.73082703L24.2697302 5.50994326 18.05324 8.17450769C18.05324 8.17450769 35.4610313 15.6355492 35.4584203 15.6355492L52.8740448 8.17450769C52.8740448 8.17450769 50.0385879 6.95822084 46.6575546 5.50994326L46.6572935 5.50994326z"/>
  </g>
</svg>
