<svg xmlns="http://www.w3.org/2000/svg" width="59" height="59" viewBox="0 0 59 59">
  <g fill="none" fill-rule="evenodd" stroke="#636363" stroke-linecap="round" stroke-linejoin="round" stroke-width="1.05" transform="translate(3 8)">
    <polygon points=".653 35.53 18.061 42.991 18.061 33.041 .653 25.583"/>
    <path d="M20.546912,18.565134 C20.546912,19.987954 15.5721663,19.987954 15.5721663,18.565134 C15.5721663,17.1448598 20.546912,17.1448598 20.546912,18.565134"/>
    <path d="M15.5715788 21.4085546C15.5715788 21.9950198 16.6832935 22.4743803 18.0602245 22.4743803 19.4346097 22.4743803 20.5463245 21.9950068 20.5463245 21.4085546L20.5463245 18.5654604C20.5463245 19.1519257 19.432064 19.6312862 18.0602245 19.6312862 16.6858393 19.6312862 15.5715788 19.1519126 15.5715788 18.5654604L15.5715788 21.4085546zM20.546912 26.0261755C20.546912 26.6151866 19.4326514 27.0920013 18.060812 27.0920013 16.6864268 27.0920013 15.5721663 26.61518 15.5721663 26.0261755 15.5721663 25.4397103 16.683881 24.9603498 18.060812 24.9603498 19.4326514 24.9603498 20.546912 25.4397233 20.546912 26.0261755z"/>
    <path d="M15.5715788 28.8695961C15.5715788 29.4586071 16.6832935 29.9354218 18.0602245 29.9354218 19.4346097 29.9354218 20.5463245 29.4586006 20.5463245 28.8695961L20.5463245 26.0265019C20.5463245 26.615513 19.432064 27.0923277 18.0602245 27.0923277 16.6858393 27.0923277 15.5715788 26.6155064 15.5715788 26.0265019L15.5715788 28.8695961zM29.2514604 22.2956548C29.2514604 23.7184747 24.2767147 23.7184747 24.2767147 22.2956548 24.2767147 20.8753806 29.2514604 20.8753806 29.2514604 22.2956548"/>
    <path d="M24.27678 25.1390753C24.27678 25.7255406 25.3884947 26.2049011 26.7654257 26.2049011 28.1398109 26.2049011 29.2540714 25.7280798 29.2540714 25.1390753L29.2540714 22.2959812C29.2540714 22.8824464 28.1423567 23.3618069 26.7654257 23.3618069 25.3910405 23.3618069 24.27678 22.8849857 24.27678 22.2959812L24.27678 25.1390753zM11.8443218 22.2956548C11.8443218 23.7184747 6.8695761 23.7184747 6.8695761 22.2956548 6.8695761 20.8753806 11.8443218 20.8753806 11.8443218 22.2956548"/>
    <path d="M6.86898862,25.1390753 C6.86898862,25.7255406 7.98324915,26.2049011 9.35508859,26.2049011 C10.726928,26.2049011 11.8411886,25.7280798 11.8411886,25.1390753 L11.8411886,22.2959812 C11.8411886,22.8824464 10.726928,23.3618069 9.35508859,23.3618069 C7.98070338,23.3618069 6.86898862,22.8849857 6.86898862,22.2959812 L6.86898862,25.1390753 Z"/>
    <polygon points="18.061 33.041 18.061 42.99 52.871 28.071 52.871 18.122"/>
    <path d="M29.2514604,22.9177346 L29.2514604,25.1386184 C29.2514604,25.7250837 28.1397456,26.2044442 26.7628147,26.2044442 C25.3884295,26.2044442 24.2741689,25.7276229 24.2741689,25.1386184 L24.2741689,22.2955242 C24.2741689,21.8875495 24.8198367,21.5356468 25.6052109,21.3571824 C23.7234357,20.551416 21.9156182,19.7762641 20.541233,19.1872791 L20.541233,21.4081629 C20.541233,21.9946282 19.4269724,22.4739887 18.055133,22.4739887 C16.6807478,22.4739887 15.5664872,21.9946151 15.5664872,21.4081629 L15.5664872,19.1898249 L10.5050551,21.3571824 C11.2954816,21.535673 11.836097,21.8875495 11.836097,22.2955242 L11.836097,25.1386184 C11.836097,25.7250837 10.7218365,26.2044442 9.34999707,26.2044442 C7.97561186,26.2044442 6.86389709,25.7276229 6.86389709,25.1386184 L6.86389709,22.9177346 L0.64740691,25.582299 C0.64740691,25.582299 18.0551983,33.0433406 18.0525872,33.0433406 L35.4603786,25.582299 C35.4680289,25.582299 32.6326243,24.3660122 29.2515257,22.9177346 L29.2514604,22.9177346 Z"/>
    <g transform="translate(18)">
      <polygon points="34.871 18.122 17.466 25.583 17.466 15.634 34.871 8.175"/>
      <path d="M19.9520923,1.15734266 C19.9520923,1.7463537 18.8403775,2.22316843 17.4659923,2.22316843 C16.0916071,2.22316843 14.9773466,1.74379488 14.9773466,1.15734266 C14.9773466,0.570877381 16.0890613,0.0915168872 17.4659923,0.0915168872 C18.8403775,0.0915168872 19.9520923,0.570890437 19.9520923,1.15734266 Z"/>
      <path d="M14.9793701 4.00076321C14.9793701 4.58722849 16.0910849 5.06658898 17.4680159 5.06658898 18.8424011 5.06658898 19.9541158 4.58976772 19.9541158 4.00076321L19.9541158 1.15766904C19.9541158 1.74668008 18.8424011 2.22349481 17.4680159 2.22349481 16.0936307 2.22349481 14.9793701 1.74412126 14.9793701 1.15766904L14.9793701 4.00076321zM19.9520923 8.61838418C19.9520923 10.0386584 14.9798923 10.0386584 14.9798923 8.61838418 14.9798923 7.19556421 19.9520923 7.19556421 19.9520923 8.61838418"/>
      <path d="M14.9793701 11.4591937C14.9793701 12.0482047 16.0910849 12.5250195 17.4680159 12.5250195 18.8424011 12.5250195 19.9541158 12.0481982 19.9541158 11.4591937L19.9541158 8.61609952C19.9541158 9.20511056 18.8424011 9.68192529 17.4680159 9.68192529 16.0936307 9.68192529 14.9793701 9.20510403 14.9793701 8.61609952L14.9793701 11.4591937zM28.6572935 4.88786342C28.6572935 6.30813762 23.6850935 6.30813762 23.6850935 4.88786342 23.6850935 3.47013498 28.6572935 3.47013498 28.6572935 4.88786342"/>
      <path d="M23.6845713 7.73128397C23.6845713 8.31774924 24.7962861 8.79710974 26.1706713 8.79710974 27.5450565 8.79710974 28.659317 8.32028848 28.659317 7.73128397L28.6567647 4.8881898C28.6567647 5.47465508 27.54505 5.95401557 26.168119 5.95401557 24.7962796 5.95401557 23.682019 5.47719431 23.682019 4.8881898L23.6845713 7.73128397zM11.2514604 4.88786342C11.2514604 6.30813762 6.27671469 6.30813762 6.27671469 4.88786342 6.27671469 3.47013498 11.2514604 3.47013498 11.2514604 4.88786342"/>
      <path d="M6.27677997 7.73128397C6.27677997 8.31774924 7.38849474 8.79710974 8.76542571 8.79710974 10.1398109 8.79710974 11.2540714 8.32028848 11.2540714 7.73128397L11.2515257 4.8881898C11.2515257 5.47465508 10.1398109 5.95401557 8.76287994 5.95401557 7.38849474 5.95401557 6.27423421 5.47719431 6.27423421 4.8881898L6.27677997 7.73128397zM.0605508902 8.17450769L.0605508902 17.5017887C1.4349361 17.5017887 2.54665087 17.97861 2.54665087 18.5676145L2.54665087 19.1872269 7.61062881 21.3571302C7.95740731 21.2780875 8.34752905 21.2321855 8.76568681 21.2321855 10.140072 21.2321855 11.2543325 21.7090067 11.2543325 22.2980112L11.2543325 22.9201694 17.468277 25.5847338 17.468277 15.637984.0605508902 8.17450769z"/>
      <path d="M28.6572935,5.50994326 L28.6572935,7.73082703 C28.6572935,8.31729231 27.5455787,8.79665281 26.1711935,8.79665281 C24.7968083,8.79665281 23.6850935,8.31983155 23.6850935,7.73082703 L23.6850935,4.88773287 C23.6850935,4.47720587 24.2256568,4.12785549 25.0161355,3.94939103 C23.1318145,3.14362466 21.3290885,2.36847271 19.9521576,1.77948778 L19.9521576,4.00037155 C19.9521576,4.58683683 18.8404428,5.06619732 17.4660576,5.06619732 C16.0916724,5.06619732 14.9774118,4.58937606 14.9774118,4.00037155 L14.9774118,1.77948778 L9.91597967,3.94939103 C10.7038604,4.1278816 11.2470216,4.47975816 11.2470216,4.88773287 L11.2470216,7.73082703 C11.2470216,8.31729231 10.1353069,8.79665281 8.7583759,8.79665281 C7.3839907,8.79665281 6.26973017,8.31983155 6.26973017,7.73082703 L6.26973017,5.50994326 L0.0532399834,8.17450769 C0.0532399834,8.17450769 17.4610313,15.6355492 17.4584203,15.6355492 L34.8740448,8.17450769 C34.8740448,8.17450769 32.0385879,6.95822084 28.6575546,5.50994326 L28.6572935,5.50994326 Z"/>
    </g>
  </g>
</svg>
