<svg xmlns="http://www.w3.org/2000/svg" width="31" height="31" viewBox="0 0 31 31">
  <g fill="none" fill-rule="evenodd" stroke="#FFF" transform="translate(-.2 4)">
    <polygon stroke-linecap="round" stroke-linejoin="round" stroke-width=".885" points="30.407 15.272 15.739 21.559 15.739 13.175 30.407 6.889"/>
    <path stroke-linecap="round" stroke-linejoin="round" stroke-width=".714" d="M17.834107,0.975320436 C17.834107,1.47169418 16.8972383,1.8735174 15.7390109,1.8735174 C14.5807835,1.8735174 13.6417694,1.4695378 13.6417694,0.975320436 C13.6417694,0.48109207 14.5786381,0.0771234772 15.7390109,0.0771234772 C16.8972383,0.0771234772 17.834107,0.481103072 17.834107,0.975320436 Z"/>
    <path stroke-linecap="round" stroke-linejoin="round" stroke-width=".714" d="M13.6434747 3.37153917C13.6434747 3.86576754 14.5803434 4.26973613 15.7407162 4.26973613 16.8989436 4.26973613 17.8358123 3.86790741 17.8358123 3.37153917L17.8358123.975595484C17.8358123 1.47196922 16.8989436 1.87379244 15.7407162 1.87379244 14.5824888 1.87379244 13.6434747 1.46981285 13.6434747.975595484L13.6434747 3.37153917zM17.834107 7.26291919C17.834107 8.45981834 13.6439148 8.45981834 13.6439148 7.26291919 13.6439148 6.06387466 17.834107 6.06387466 17.834107 7.26291919"/>
    <path stroke-linecap="round" stroke-linejoin="round" stroke-width=".714" d="M13.6434747 9.65693754C13.6434747 10.1533113 14.5803434 10.5551345 15.7407162 10.5551345 16.8989436 10.5551345 17.8358123 10.1533058 17.8358123 9.65693754L17.8358123 7.26099385C17.8358123 7.75736759 16.8989436 8.15919081 15.7407162 8.15919081 14.5824888 8.15919081 13.6434747 7.75736209 13.6434747 7.26099385L13.6434747 9.65693754zM25.170189 4.11911981C25.170189 5.31601897 20.9799968 5.31601897 20.9799968 4.11911981 20.9799968 2.92436603 25.170189 2.92436603 25.170189 4.11911981"/>
    <path stroke-linecap="round" stroke-linejoin="round" stroke-width=".714" d="M20.9795567 6.51533855C20.9795567 7.00956691 21.9164254 7.41353551 23.0746528 7.41353551 24.2328802 7.41353551 25.1718943 7.01170679 25.1718943 6.51533855L25.1697434 4.11939486C25.1697434 4.61362323 24.2328747 5.01759182 23.0725019 5.01759182 21.9164199 5.01759182 20.9774058 4.6157631 20.9774058 4.11939486L20.9795567 6.51533855zM10.5018757 4.11911981C10.5018757 5.31601897 6.30953811 5.31601897 6.30953811 4.11911981 6.30953811 2.92436603 10.5018757 2.92436603 10.5018757 4.11911981"/>
    <path stroke-linecap="round" stroke-linejoin="round" stroke-width=".885" d="M6.30959312,6.51533855 C6.30959312,7.00956691 7.24646184,7.41353551 8.40683461,7.41353551 C9.56506201,7.41353551 10.5040761,7.01170679 10.5040761,6.51533855 L10.5019307,4.11939486 C10.5019307,4.61362323 9.56506201,5.01759182 8.40468924,5.01759182 C7.24646184,5.01759182 6.30744775,4.6157631 6.30744775,4.11939486 L6.30959312,6.51533855 Z"/>
    <polygon stroke-linecap="round" stroke-linejoin="round" stroke-width=".885" points="1.071 6.889 1.071 15.191 3.166 16.17 7.434 17.998 10.504 19.315 15.741 21.561 15.741 13.179"/>
    <path stroke-linecap="round" stroke-linejoin="round" stroke-width=".885" d="M1.06486661,6.88885382 C1.06486661,6.88885382 15.7348302,13.1764526 15.7326298,13.1764526 L30.4091945,6.88885382"/>
    <path stroke-width=".885" d="M.960960527 6.9598932L6.31586145 4.62791427M9.38248074 3.29244762L13.6089854 1.4518683M25.1337049 4.63823004L30.4389854 6.90890565"/>
    <polyline stroke-width=".885" points="17.689 1.452 21.804 3.213 22.075 3.339"/>
  </g>
</svg>
