<svg xmlns="http://www.w3.org/2000/svg" width="59" height="59" viewBox="0 0 59 59">
  <g fill="none" fill-rule="evenodd" transform="translate(-3.556 -3.293)">
    <g fill="#636363" transform="translate(22.215 17.179)">
      <path d="M10.3708116.624442221C9.97639737.624442221 9.58349577.624442221 9.18908155.702731364 4.6985074 1.17542338.91697127 4.7988913.207933246 9.28946545-.26475877 12.2038953.522568396 15.0400474 2.25676952 17.2469519 4.22581538 19.6886898 5.25098983 22.5248419 5.25098983 25.2827162 5.25098983 25.7554082 5.56562498 26.070032 6.03830565 26.070032L14.7048301 26.070032C15.1775222 26.070032 15.492146 25.7553969 15.492146 25.2827162 15.492146 22.2884959 16.43753 19.610412 18.1702299 17.5615757 19.7463741 15.6708077 20.6119677 13.3073476 20.6119677 10.8656097 20.6917355 5.27309593 16.0431158.624453566 10.3708116.624453566L10.3708116.624442221zM16.9884998 16.5394152C15.1760096 18.6665292 14.0740699 21.5026813 13.9160017 24.4969016L6.82562147 24.4969016C6.66756461 21.5824718 5.56561363 18.7463197 3.51677736 16.2247914 2.02042351 14.3340233 1.38966329 11.8922854 1.7840775 9.44903493 2.33504732 5.6674988 5.56561363 2.5950007 9.34714976 2.20058648 9.66178491 2.20058648 10.0561878 2.12229734 10.3708116 2.12229734 15.1760096 2.12229734 19.1156139 6.06190168 19.1156139 10.8670996 19.1156139 12.9942137 18.3282981 14.9632596 16.9884998 16.5394038L16.9884998 16.5394152zM14.442412 27.0498091L6.38417594 27.0498091C5.91922048 27.0498091 5.60974612 27.3592946 5.60974612 27.8242389 5.60974612 28.2891832 5.91923164 28.5986687 6.38417594 28.5986687L14.4438999 28.5986687C14.9088553 28.5986687 15.2183297 28.2891832 15.2183297 27.8242389 15.2183297 27.3592946 14.8303709 27.0498091 14.4424492 27.0498091L14.442412 27.0498091zM14.442412 29.7228836L6.38417594 29.7228836C5.91922048 29.7228836 5.60974612 30.0323692 5.60974612 30.4973135 5.60974612 30.9622577 5.91923164 31.2717432 6.38417594 31.2717432L14.4438999 31.2717432C14.9088553 31.2717432 15.2183297 30.9622577 15.2183297 30.4973135 15.2183297 30.0338087 14.8303709 29.7228836 14.4424492 29.7228836L14.442412 29.7228836z"/>
      <path d="M13.5739726,10.3508174 C13.4285094,10.6344735 13.3639806,10.8323465 13.2425789,10.9844685 C11.553893,13.1850906 11.5517056,13.1828031 9.83567689,10.9181296 C9.74818021,10.8014646 9.66615207,10.6779369 9.48240904,10.4217314 C8.93992961,11.1789102 8.47072866,11.838868 7.99715287,12.4931071 C7.63622906,12.9929365 7.23374432,13.1027389 6.83563442,12.5537271 C6.19909607,11.6775958 5.5745885,10.788883 4.96429915,9.89445139 C4.79586803,9.64853987 4.67009155,9.34200831 4.95554948,9.08809037 C5.27272495,8.80786562 5.58990042,8.89479248 5.82832888,9.21047424 C6.33034109,9.876151 6.807198,10.5624157 7.38686352,11.3653454 C7.85497076,10.7156815 8.28917305,10.1506569 8.6807207,9.55818169 C9.18820145,8.78384635 9.68146399,8.67061268 10.2228497,9.50899938 C10.3015967,9.6336708 10.3945619,9.74690448 10.4820586,9.8670008 C11.5670175,11.3550514 11.5670175,11.3550514 12.6355707,9.88987629 C13.6056902,8.5528039 13.7019365,8.5528039 14.6753371,9.90245781 C15.0493854,10.4217314 15.4332771,10.9352862 15.7909198,11.4671413 C16.0523161,11.8605998 16.5510472,12.3272597 16.0359105,12.7607503 C15.4901499,13.223979 15.2134417,12.5800339 14.9312649,12.2083072 C14.5222179,11.671877 14.1339514,11.1182901 13.5739726,10.3508174"/>
    </g>
    <path fill="#636463" d="M3.83574521,61.4655351 C3.28650491,60.889283 3.69956063,60.3580506 3.93478855,59.8380731 C5.38217179,56.6473021 6.82392758,53.4509036 8.31182855,50.2803915 C8.65510374,49.5465704 8.69562147,49.0007066 8.22741662,48.2590071 C-2.92508773,30.5156192 7.05690451,8.00689635 27.7141923,4.25900661 C43.7209455,1.35523617 59.4537325,12.7125801 61.5561523,28.7733569 C61.5854151,29.0130868 61.8561516,31.3313077 61.8561516,32.293457 C61.8561516,33.6066782 62.0561523,37.293457 60.6832193,41.6208308 C59.3102862,45.9482046 59.0158513,45.9598625 57.7603379,47.986638 C57.1615759,48.9523105 56.5054138,49.8819672 55.737828,50.7148316 C54.9578617,51.5612019 54.5144177,51.392378 54.0732247,50.1689678 C55.0850424,48.1937286 56.5639394,46.5021135 57.4823412,44.4615957 C61.751334,34.995079 61.1323131,25.8527041 55.3337762,17.2696989 C50.6449748,10.3287872 43.8897693,6.38731276 35.5757568,5.54544444 C19.825616,3.95062168 7.12330856,15.1458947 5.3664149,29.0828673 C4.52229559,35.7817982 5.86050607,41.9630025 9.61965074,47.5769587 C10.3422169,48.6608079 10.395115,49.5848372 9.80648248,50.7328395 C8.68211556,52.9320516 7.76934121,55.2336836 6.71025284,57.4655351 C6.46264451,57.9855126 6.26230686,58.5595137 5.57800747,59.0142127 C7.50147401,58.4874822 9.06028101,57.5105548 10.7226333,56.8059965 C11.9955652,56.2691366 13.2786266,55.7367787 14.5042878,55.0952481 C15.4947212,54.5763961 16.3478444,54.656306 17.2673717,55.2888328 C20.7507707,57.6850061 24.6112097,59.1447698 28.801418,59.6692492 C35.397929,60.4942352 41.5948903,59.3473584 47.2775015,55.7840494 C48.1947778,55.2089228 49.0130108,54.4660978 50.0619697,54.1093167 C50.3050761,54.0721755 50.5369275,54.1025637 50.757524,54.2117365 C51.6117728,55.3462329 50.5459315,55.8223162 49.9257851,56.2792661 C47.500349,58.0620461 44.8486889,59.4418998 41.9809342,60.3850624 C40.1036128,61.0018323 38.5561523,61.293457 36.0561523,61.5934563 C33.0561523,61.7267901 30.7268215,61.6841497 29.0681597,61.4655351 C24.4862801,61.2021699 20.4029936,59.4756645 16.5414291,57.1290129 C15.7276981,56.6371727 15.0175124,56.9500596 14.3062012,57.2798288 C11.9820593,58.3512976 9.64553706,59.3935036 7.32364621,60.4649724 C6.38273455,60.8971615 5.42719149,61.2235543 4.42887972,61.4655351 L3.83574521,61.4655351 Z"/>
    <path fill="#636463" d="M50.1601127,54.345445 C49.2439618,53.0331209 47.6885313,52.8485401 46.3728307,52.265535 C45.8461002,52.0303071 45.4049072,52.6549554 44.9547102,52.9261991 C31.2180753,61.1918154 13.6176249,53.8063341 9.93613921,38.2238916 C6.94458036,25.555349 15.7369271,12.4489898 28.6058074,10.3960917 C41.3598875,8.36120136 52.8455376,15.9594007 55.5906136,28.3420682 C56.8838044,34.1811229 55.968779,39.7500594 52.8669219,44.8755518 C52.1747441,46.0224286 51.9518966,46.9250735 52.7161059,48.0663228 C53.1494205,48.713481 53.4172877,49.4743138 53.7594374,50.185625 C54.4313564,51.7140437 55.1145303,53.2424624 55.7740688,54.7787596 C55.9541476,55.2041957 56.3919642,55.6712751 55.8967475,56.1169701 C55.4780643,56.49401 55.0683851,56.0854563 54.6733373,55.9413933 C53.3396287,55.4461766 52.1567362,54.5829239 50.7239844,54.3353156 C50.5360271,54.3398175 50.3469444,54.343194 50.1601127,54.345445 Z M54.4213395,54.5785345 C53.2440744,51.974145 52.2941588,49.7107798 51.1945527,47.523948 C50.7252224,46.5864128 50.8467756,45.9437567 51.3982669,45.1131433 C54.4415984,40.5098793 55.6211144,35.4136496 54.7162185,29.9944036 C52.8974228,19.0737507 44.559775,11.7738069 33.5006865,11.1874254 C19.0583678,10.420965 7.60760795,24.3388043 11.15516,38.3534358 C14.9109282,53.1896768 32.0026561,59.916745 44.8850423,51.5937286 C45.7854362,51.0129745 46.4731121,50.9015508 47.4376591,51.3787596 C49.5986045,52.4479773 51.8203265,53.3967675 54.4213395,54.5785345 Z"/>
  </g>
</svg>
