<svg xmlns="http://www.w3.org/2000/svg" width="31" height="31" viewBox="0 0 31 31">
  <g fill="#FFF" fill-rule="evenodd" transform="translate(7 2.5)">
    <path d="M8.8875309.488069782C8.57925312.488069782 8.27215761.488069782 7.96387983.549261296 4.45400578.918721722 1.49832237 3.75085757.944131732 7.26073162.574671306 9.53867682 1.19005346 11.7554394 2.545521 13.4803762 4.08454536 15.388861 4.88583113 17.6056236 4.88583113 19.7612035 4.88583113 20.1306639 5.13175286 20.3765768 5.50120442 20.3765768L12.2750397 20.3765768C12.6445001 20.3765768 12.8904129 20.130655 12.8904129 19.7612035 12.8904129 17.4208933 13.6293338 15.3276784 14.9836279 13.7262891 16.2155568 12.2484474 16.8921127 10.4011452 16.8921127 8.49266046 16.9544599 4.12150027 13.321056.488078649 8.8875309.488078649L8.8875309.488069782zM14.0599769 12.927359C12.6433178 14.5899309 11.7820317 16.8066935 11.6584841 19.1470036L6.1165777 19.1470036C5.993039 16.8690584 5.13174399 14.6522958 3.53035472 12.6814461 2.36079079 11.2036044 1.8677828 9.29511964 2.17606058 7.38545259 2.60670365 4.42976918 5.13174399 2.02827641 8.0874274 1.71999863 8.33334913 1.71999863 8.64161804 1.65880711 8.8875309 1.65880711 12.6433178 1.65880711 15.7225488 4.73803809 15.7225488 8.493825 15.7225488 10.1563969 15.1071755 11.6954213 14.0599769 12.9273501L14.0599769 12.927359zM12.0699312 21.6001432L5.77153982 21.6001432C5.40812635 21.6001432 5.16623835 21.8234549 5.16623835 22.158939 5.16623835 22.4944232 5.40813507 22.7177349 5.77153982 22.7177349L12.0710942 22.7177349C12.4345076 22.7177349 12.6763956 22.4944232 12.6763956 22.158939 12.6763956 21.8234549 12.3731634 21.6001432 12.0699603 21.6001432L12.0699312 21.6001432zM12.0699312 23.9503282L5.77153982 23.9503282C5.40812635 23.9503282 5.16623835 24.1736399 5.16623835 24.5091241 5.16623835 24.8446082 5.40813507 25.0679199 5.77153982 25.0679199L12.0710942 25.0679199C12.4345076 25.0679199 12.6763956 24.8446082 12.6763956 24.5091241 12.6763956 24.1746786 12.3731634 23.9503282 12.0699603 23.9503282L12.0699312 23.9503282z"/>
    <path d="M11.391151,8.09029407 C11.2774556,8.31200227 11.2270193,8.46666162 11.1321307,8.58556158 C9.81223819,10.3055881 9.81052848,10.3038001 8.4692647,8.53371047 C8.40087649,8.44252403 8.33676254,8.34597369 8.1931473,8.14572112 C7.76914039,8.73753897 7.40240861,9.25336812 7.03225742,9.76472735 C6.75015605,10.1553986 6.43557028,10.2412212 6.12440392,9.81210854 C5.62687968,9.12731628 5.13875883,8.4326902 4.66175106,7.73359419 C4.53010375,7.54138749 4.4317957,7.3017996 4.65491224,7.103335 C4.9028195,6.88430876 5.15072676,6.95225159 5.33708464,7.19899136 C5.729462,7.71929043 6.10217775,8.25568123 6.55524965,8.88325847 C6.92112657,8.37547518 7.26050307,7.93384675 7.56654031,7.4707627 C7.96319194,6.86553508 8.34873048,6.7770306 8.77188253,7.43232136 C8.83343192,7.52976569 8.90609439,7.61827017 8.97448261,7.71213856 C9.82249642,8.87521261 9.82249642,8.87521261 10.6576874,7.73001825 C11.4159417,6.68495018 11.4911688,6.68495018 12.2519876,7.73985208 C12.5443472,8.14572112 12.8444005,8.54712024 13.1239373,8.96282311 C13.3282471,9.27035383 13.7180599,9.63509957 13.3154243,9.97391976 C12.8888528,10.3359836 12.6725751,9.83267019 12.4520231,9.54212517 C12.1323082,9.12284636 11.8288356,8.69015778 11.391151,8.09029407"/>
  </g>
</svg>
