<svg xmlns="http://www.w3.org/2000/svg" width="27" height="15" viewBox="0 0 27 15">
  <path fill="#2B71B8" fill-rule="evenodd" d="M6.3413236,4.28120994 C4.91307991,4.28120994 3.74393565,5.70636764 3.74393565,7.44736109 C3.74393565,9.18835454 4.91307991,10.6135122 6.3413236,10.6135122 L9.53810876,10.6135122 C10.7618781,10.6135122 11.7952389,9.57177545 12.0667658,8.17801135 L13.4029221,8.17801135 C13.674529,9.57177545 14.7078498,10.6135122 15.9315792,10.6135122 L19.1283643,10.6135122 C20.556608,10.6135122 21.7257523,9.18835454 21.7257523,7.44736109 C21.7257523,5.70636764 20.556608,4.28120994 19.1283643,4.28120994 L15.9315792,4.28120994 C14.7109267,4.28120994 13.6830404,5.32772032 13.4091159,6.71671082 L12.0604721,6.71671082 C11.7865276,5.32772032 10.7586613,4.28120994 9.53800886,4.28120994 L6.3413236,4.28120994 Z M6.3413236,5.74251047 L9.53810876,5.74251047 C10.1062974,5.74251047 10.5847162,6.13732952 10.8055941,6.71671082 L8.73887251,6.71671082 C8.7177997,6.71575854 8.69750811,6.71575854 8.6764353,6.71671082 C8.51721941,6.72717617 8.36814533,6.81375092 8.26201206,6.95740651 C8.15508759,7.10201437 8.09967531,7.29133803 8.10826068,7.4854231 C8.11606483,7.67950329 8.18786862,7.86122088 8.30571811,7.99059469 C8.42434881,8.12093296 8.57966262,8.18847914 8.7388825,8.17801379 L10.8056041,8.17801379 C10.5855054,8.75929479 10.1070866,9.15221414 9.53811875,9.15221414 L6.34133359,9.15221414 C5.55618317,9.15221414 4.94274008,8.40444231 4.94274008,7.44736353 C4.94274008,6.49028474 5.55618317,5.74251291 6.34133359,5.74251291 L6.3413236,5.74251047 Z M15.9316791,5.74251047 L19.1284642,5.74251047 C19.9136147,5.74251047 20.5270577,6.49028231 20.5270577,7.44736109 C20.5270577,8.40443987 19.9136147,9.15221171 19.1284642,9.15221171 L15.9316791,9.15221171 C15.3627113,9.15221171 14.8842924,8.75929235 14.6641937,8.17801135 L16.7309153,8.17801135 C16.8916916,8.18086576 17.0462182,8.10475636 17.1601637,7.96775943 C17.2748923,7.83076251 17.3388899,7.64335072 17.3388899,7.44736596 C17.3388899,7.2513812 17.2748923,7.06396941 17.1601637,6.92697249 C17.0462162,6.78997556 16.8916737,6.71386616 16.7309153,6.71672057 L14.6641937,6.71672057 C14.8850716,6.13733926 15.3634905,5.74252021 15.9316791,5.74252021 L15.9316791,5.74251047 Z" transform="scale(-1 1) rotate(43 0 -24.882)"/>
</svg>
