<svg xmlns="http://www.w3.org/2000/svg" width="171" height="67" viewBox="0 0 171 67">
  <g fill="none" fill-rule="evenodd" transform="translate(-.406 .21)">
    <g transform="translate(53.123 21.213)">
      <path fill="#6D6E70" d="M11.6624437 17.4433334C10.0217296 17.501105 8.60923452 17.6310892 7.4249162 17.8332899 6.24059788 18.0354906 5.26427206 18.3099017 4.49590944 18.6565315 3.72754683 19.0031612 3.15850485 19.4162221 2.78876645 19.8957266 2.41902805 20.3752311 2.23416162 20.9211648 2.23416162 21.533544 2.23416162 22.1112603 2.32948337 22.6109773 2.52012973 23.0327102 2.7107761 23.4544431 2.96496744 23.8010676 3.28271138 24.0725943 3.60045532 24.3441209 3.96729963 24.54343 4.38325534 24.6705276 4.79921104 24.7976252 5.23249173 24.861173 5.68311041 24.861173 6.35326126 24.861173 6.96851984 24.7889596 7.52890461 24.6445305 8.08928938 24.5001014 8.6092262 24.2979038 9.0887307 24.0379315 9.56823519 23.7779592 10.0159586 23.4688856 10.4319143 23.1107015 10.84787 22.7525174 11.2580424 22.3654534 11.6624437 21.9494976L11.6624437 17.4433334zM1.52357418 10.9787208C2.42481154 10.0774835 3.37225198 9.39578854 4.36592394 8.93361554 5.35959589 8.47144253 6.48612569 8.2403595 7.74554712 8.2403595 8.66989313 8.2403595 9.47868375 8.38767493 10.1719433 8.68231022 10.8652028 8.97694551 11.4400218 9.39867205 11.8964176 9.94750249 12.3528135 10.4963329 12.6965495 11.1606967 12.927636 11.9406136 13.1587225 12.7205305 13.274264 13.5899805 13.274264 14.5489894L13.274264 25.7797373 12.6156708 25.7797373C12.269041 25.7797373 12.0552892 25.6179791 11.974409 25.294458L11.7317693 23.0760387C11.258042 23.5382117 10.7872103 23.9541612 10.3192602 24.3238996 9.85131 24.693638 9.36314709 25.0056001 8.85475678 25.2597952 8.34636648 25.5139904 7.79754427 25.710411 7.20827369 25.8490629 6.61900311 25.9877148 5.97197061 26.0570397 5.26715679 26.0570397 4.67788621 26.0570397 4.10595569 25.9703835 3.55134809 25.7970687 2.99674049 25.6237538 2.5028005 25.3580083 2.06951331 24.9998242 1.63622612 24.6416401 1.28960157 24.1823626 1.02962925 23.6219778.769656939 23.0615931.639672731 22.3885637.639672731 21.6028696.639672731 20.8749472.847647463 20.1990293 1.26360317 19.5750957 1.67955887 18.9511622 2.33236844 18.408117 3.22205147 17.945944 4.1117345 17.483771 5.25270699 17.1140382 6.64500316 16.8367344 8.03729933 16.5594306 9.7097628 16.3976724 11.6624437 16.3514551L11.6624437 14.5489894C11.6624437 12.9544926 11.3187077 11.726864 10.6312254 10.8660667 9.94374304 10.0052695 8.92408915 9.57487737 7.57223311 9.57487737 6.74032171 9.57487737 6.03262991 9.69041889 5.4491365 9.92150539 4.86564308 10.1525919 4.37170309 10.4067832 3.96730171 10.684087 3.56290034 10.9613908 3.23360701 11.2155822 2.97941186 11.4466687 2.72521671 11.6777552 2.5114649 11.7932967 2.33815002 11.7932967 2.21105245 11.7932967 2.10706508 11.7644113 2.02618481 11.7066397 1.94530453 11.6488681 1.87597962 11.5737661 1.818208 11.4813315L1.52357418 10.9787208zM19.6002254 25.7797373L19.6002254 10.337459 17.1738292 10.1814764C16.8503081 10.1468134 16.68855 10.0023865 16.68855 9.74819138L16.68855 9.07226674 19.6002254 9.07226674 19.6002254 6.88851022C19.6002254 5.90639259 19.727321 5.04271975 19.9815162 4.29746578 20.2357113 3.55221181 20.59389 2.93117616 21.0560631 2.43434018 21.5182361 1.9375042 22.0728353 1.56488281 22.7198775 1.31646482 23.3669197 1.06804683 24.0832772.943839697 24.8689713.943839697 25.2271553.943839697 25.5882226.975613614 25.9521838 1.0391624 26.3161451 1.10271119 26.6425498 1.19225587 26.931408 1.30779912L26.8794138 2.10504356C26.8563051 2.20903249 26.8072 2.27546886 26.7320969 2.30435467 26.6569938 2.33324048 26.5501178 2.34479464 26.4114659 2.33901747 26.272814 2.33324031 26.0937247 2.31590908 25.8741925 2.28702327 25.6546603 2.25813746 25.400469 2.24369477 25.1116109 2.24369477 24.5454489 2.24369477 24.0226236 2.32746237 23.5431191 2.49500008 23.0636146 2.6625378 22.6505537 2.93117182 22.3039239 3.30091023 21.9572942 3.67064863 21.6886601 4.15303446 21.4980138 4.74808221 21.3073674 5.34312995 21.2120457 6.07393005 21.2120457 6.94050443L21.2120457 9.07226674 26.8100882 9.07226674 26.8100882 10.3027962 21.2640399 10.3027962 21.2640399 25.7797373 19.6002254 25.7797373zM31.9575143 12.6945295C32.2232637 11.9897157 32.5265602 11.362903 32.8674128 10.8140725 33.2082654 10.2652421 33.6011065 9.80018749 34.0459481 9.41889476 34.4907896 9.03760203 34.9876181 8.7458597 35.5364485 8.54365901 36.085279 8.34145832 36.6947605 8.2403595 37.3649113 8.2403595 37.7230954 8.2403595 38.0754971 8.27213341 38.4221268 8.3356822 38.7687566 8.39923099 39.0749416 8.51188397 39.3406911 8.67364452L39.2020398 9.81751698C39.1442682 10.0023862 39.0345038 10.0948194 38.8727432 10.0948194 38.7340913 10.0948194 38.5232281 10.0543799 38.2401471 9.97349959 37.9570661 9.89261932 37.5844447 9.85217979 37.1222717 9.85217979 36.4521209 9.85217979 35.8599706 9.95327861 35.3458031 10.1554793 34.8316357 10.35768 34.3694696 10.6609765 33.9592911 11.0653779 33.5491125 11.4697792 33.1909338 11.9694963 32.8847442 12.564544 32.5785546 13.1595918 32.2983664 13.8441753 32.0441713 14.618315L32.0441713 25.7797373 30.3803568 25.7797373 30.3803568 8.53499331 31.2642582 8.53499331C31.4606817 8.53499331 31.5993316 8.57543284 31.6802118 8.65631312 31.7610921 8.7371934 31.8130858 8.87584322 31.8361944 9.07226674L31.9575143 12.6945295z"/>
      <path fill="#571C55" d="M64.6098736,0.0252754462 L64.6098736,25.7797373 L60.3290176,25.7797373 L60.3290176,0.0252754462 L64.6098736,0.0252754462 Z M78.284349,18.1885836 C77.0480362,18.2463553 76.0081626,18.3532312 75.1646968,18.5092146 C74.3212311,18.6651979 73.6453132,18.8645071 73.1369229,19.1071479 C72.6285326,19.3497887 72.2645768,19.6328654 72.0450447,19.9563865 C71.8255125,20.2799076 71.715748,20.6323093 71.715748,21.013602 C71.715748,21.7646331 71.9381655,22.3019012 72.383007,22.6254223 C72.8278485,22.9489434 73.4084446,23.1107015 74.1248128,23.1107015 C75.0029415,23.1107015 75.7626269,22.9518319 76.403892,22.634088 C77.045157,22.316344 77.6719698,21.8339582 78.284349,21.186916 L78.284349,18.1885836 Z M68.4747761,10.4761102 C70.5198916,8.60430956 72.9809259,7.66842327 75.8579529,7.66842327 C76.8978421,7.66842327 77.8279513,7.838847 78.6483084,8.17969959 C79.4686655,8.52055218 80.1619146,8.99427241 80.7280765,9.60087447 C81.2942385,10.2074765 81.7246306,10.9324996 82.0192659,11.7759653 C82.3139012,12.619431 82.4612166,13.5437632 82.4612166,14.5489894 L82.4612166,25.7797373 L80.5200997,25.7797373 C80.1156983,25.7797373 79.8037362,25.719078 79.5842041,25.5977575 C79.3646719,25.4764371 79.1913596,25.2309114 79.064262,24.861173 L78.6829712,23.5786493 C78.2323525,23.9830507 77.7932948,24.3383409 77.3657847,24.6445305 C76.9382747,24.9507201 76.4934399,25.2078 76.0312669,25.4157778 C75.5690939,25.6237557 75.0751539,25.7826253 74.5494321,25.8923914 C74.0237103,26.0021575 73.4431142,26.0570397 72.8076263,26.0570397 C72.0565952,26.0570397 71.3633461,25.9559408 70.7278582,25.7537402 C70.0923703,25.5515395 69.5435481,25.248243 69.0813751,24.8438416 C68.6192021,24.4394402 68.2610234,23.9368346 68.0068282,23.3360097 C67.7526331,22.7351848 67.6255374,22.0361586 67.6255374,21.2389102 C67.6255374,20.7882915 67.7006394,20.3405682 67.8508456,19.8957266 C68.0010518,19.4508851 68.2465776,19.02627 68.5874302,18.6218687 C68.9282828,18.2174673 69.3702291,17.8361803 69.9132823,17.4779962 C70.4563356,17.1198121 71.1235879,16.80785 71.9150591,16.5421006 C72.7065304,16.2763511 73.627974,16.0597107 74.6794176,15.892173 C75.7308612,15.7246353 76.932493,15.6235365 78.284349,15.5888735 L78.284349,14.5489894 C78.284349,13.358894 78.0301577,12.4778899 77.5217674,11.9059508 C77.013377,11.3340117 76.2796884,11.0480465 75.3206794,11.0480465 C74.6274199,11.0480465 74.0526009,11.1289255 73.596205,11.2906861 C73.1398092,11.4524466 72.7383024,11.6344245 72.3916727,11.8366252 C72.0450429,12.0388259 71.7301923,12.2208038 71.4471113,12.3825643 C71.1640304,12.5443249 70.8491797,12.6252039 70.50255,12.6252039 C70.2021375,12.6252039 69.9479462,12.5472134 69.7399683,12.39123 C69.5319905,12.2352466 69.3644553,12.0532687 69.2373577,11.8452909 L68.4747761,10.4761102 Z M90.7629577,21.1695846 C91.2482393,21.7588552 91.7768418,22.1748046 92.3487809,22.4174455 C92.92072,22.6600863 93.5244244,22.7814049 94.1599123,22.7814049 C94.8185088,22.7814049 95.4106591,22.6629748 95.9363809,22.4261112 C96.4621027,22.1892475 96.909826,21.8195147 97.2795644,21.3169015 C97.6493028,20.8142884 97.9323796,20.173033 98.1288031,19.393116 C98.3252266,18.6131991 98.4234369,17.6802013 98.4234369,16.5940948 C98.4234369,14.6414138 98.0999206,13.2289188 97.4528784,12.3565672 C96.8058362,11.4842157 95.875727,11.0480465 94.6625229,11.0480465 C93.8421658,11.0480465 93.1258084,11.2358014 92.5134292,11.611317 C91.9010499,11.9868325 91.3175653,12.515435 90.7629577,13.1971402 L90.7629577,21.1695846 Z M90.7629577,10.1814764 C91.4793258,9.43044527 92.2736738,8.83251792 93.1460253,8.38767641 C94.0183769,7.94283489 95.0149224,7.72041747 96.135692,7.72041747 C97.1640269,7.72041747 98.0912476,7.92261512 98.9173818,8.3270165 C99.7435161,8.73141788 100.448319,9.31201401 101.031813,10.0688223 C101.615306,10.8256306 102.06303,11.7412971 102.374996,12.8158493 C102.686963,13.8904016 102.842944,15.0978104 102.842944,16.4381121 C102.842944,17.8824028 102.663855,19.193799 102.305671,20.3723402 C101.947487,21.5508813 101.436215,22.5589811 100.771842,23.3966696 C100.107468,24.2343582 99.307343,24.8842792 98.3714427,25.3464522 C97.4355424,25.8086252 96.3956687,26.0397083 95.2517905,26.0397083 C94.6971829,26.0397083 94.1945773,25.9848261 93.7439586,25.87506 C93.29334,25.7652939 92.8773905,25.6122014 92.4960978,25.4157778 C92.114805,25.2193543 91.765292,24.9796057 91.447548,24.6965247 C91.1298041,24.4134437 90.8265076,24.0985931 90.5376495,23.7519633 L90.3470041,24.94783 C90.2776781,25.2482425 90.159248,25.4619943 89.9917103,25.5890918 C89.8241726,25.7161894 89.5959781,25.7797373 89.30712,25.7797373 L86.4821016,25.7797373 L86.4821016,0.0252754462 L90.7629577,0.0252754462 L90.7629577,10.1814764 Z M117.002699,11.4640001 C116.887155,11.6488693 116.765837,11.7788535 116.638739,11.8539566 C116.511642,11.9290597 116.349884,11.9666107 116.15346,11.9666107 C115.945482,11.9666107 115.723065,11.9088399 115.486201,11.7932967 C115.249337,11.6777534 114.974926,11.5477692 114.66296,11.4033402 C114.350993,11.2589111 113.995703,11.1289269 113.597078,11.0133836 C113.198454,10.8978404 112.727623,10.8400696 112.184569,10.8400696 C111.341104,10.8400696 110.679628,11.019159 110.200124,11.3773431 C109.720619,11.7355271 109.480871,12.2034703 109.480871,12.7811865 C109.480871,13.1624793 109.605078,13.483107 109.853496,13.7430793 C110.101914,14.0030516 110.431207,14.2312461 110.841386,14.4276696 C111.251564,14.6240932 111.716619,14.800294 112.236563,14.9562774 C112.756508,15.1122608 113.285111,15.2826845 113.822387,15.4675537 C114.359663,15.6524229 114.888265,15.8632862 115.40821,16.1001498 C115.928154,16.3370135 116.393209,16.6374214 116.803388,17.0013827 C117.213566,17.3653439 117.542859,17.8015131 117.791277,18.3099034 C118.039695,18.8182938 118.163903,19.4306638 118.163903,20.147032 C118.163903,21.002052 118.01081,21.7906229 117.70462,22.5127682 C117.398431,23.2349135 116.94493,23.8588377 116.344105,24.3845595 C115.743281,24.9102813 115.000926,25.3204537 114.11702,25.615089 C113.233115,25.9097242 112.213461,26.0570397 111.058028,26.0570397 C110.445649,26.0570397 109.847722,26.0021575 109.264228,25.8923914 C108.680735,25.7826253 108.120358,25.6295328 107.583082,25.4331092 C107.045806,25.2366857 106.548978,25.0056027 106.092582,24.7398532 C105.636186,24.4741037 105.234679,24.1852499 104.888049,23.8732832 L105.875939,22.2441315 C106.003037,22.0477079 106.153241,21.897504 106.326556,21.793515 C106.499871,21.6895261 106.719399,21.6375324 106.985149,21.6375324 C107.250898,21.6375324 107.502201,21.7126344 107.739065,21.8628406 C107.975929,22.0130469 108.25034,22.174805 108.562306,22.3481199 C108.874273,22.5214347 109.241118,22.6831929 109.66285,22.8333991 C110.084583,22.9836053 110.618963,23.0587073 111.266005,23.0587073 C111.774395,23.0587073 112.210565,22.998048 112.574526,22.8767276 C112.938487,22.7554072 113.238895,22.5965376 113.475759,22.4001141 C113.712622,22.2036905 113.885935,21.9754961 113.995701,21.7155237 C114.105467,21.4555514 114.160349,21.1869174 114.160349,20.9096136 C114.160349,20.4936579 114.036142,20.1528104 113.787724,19.8870609 C113.539306,19.6213115 113.210013,19.3902284 112.799834,19.1938049 C112.389655,18.9973814 111.921712,18.8211806 111.395991,18.6651972 C110.870269,18.5092138 110.333001,18.33879 109.78417,18.1539208 C109.23534,17.9690516 108.698072,17.7524113 108.17235,17.5039933 C107.646628,17.2555753 107.178685,16.9407247 106.768506,16.559432 C106.358328,16.1781392 106.029035,15.7101961 105.780617,15.1555885 C105.532199,14.6009809 105.407991,13.9308401 105.407991,13.145146 C105.407991,12.4172235 105.552418,11.7239744 105.841277,11.0653779 C106.130135,10.4067813 106.55475,9.83196227 107.115134,9.34090346 C107.675519,8.84984464 108.374545,8.45700348 109.212234,8.16236819 C110.049923,7.8677329 111.017583,7.72041747 112.115244,7.72041747 C113.340002,7.72041747 114.454978,7.92261512 115.460204,8.3270165 C116.46543,8.73141788 117.303106,9.26290886 117.973257,9.92150539 L117.002699,11.4640001 Z"/>
      <path fill="#6D6E70" d="M48.4916708,8.2576909 C49.7279835,8.2576909 50.8342936,8.46855417 51.810634,8.89028703 C52.7869745,9.3120199 53.6102078,9.90994725 54.2803587,10.684087 C54.9505095,11.4582268 55.4617807,12.3912246 55.8141877,13.4831083 C56.1665946,14.574992 56.3427954,15.7968436 56.3427954,17.1486996 C56.3427954,18.5005556 56.1665946,19.7195186 55.8141877,20.8056252 C55.4617807,21.8917317 54.9505095,22.821841 54.2803587,23.5959807 C53.6102078,24.3701205 52.7869745,24.9651593 51.810634,25.381115 C50.8342936,25.7970707 49.7279835,26.0050455 48.4916708,26.0050455 C47.255358,26.0050455 46.1490479,25.7970707 45.1727075,25.381115 C44.196367,24.9651593 43.3702452,24.3701205 42.6943171,23.5959807 C42.0183891,22.821841 41.5042294,21.8917317 41.1518225,20.8056252 C40.7994155,19.7195186 40.6232147,18.5005556 40.6232147,17.1486996 C40.6232147,15.7968436 40.7994155,14.574992 41.1518225,13.4831083 C41.5042294,12.3912246 42.0183891,11.4582268 42.6943171,10.684087 C43.3702452,9.90994725 44.196367,9.3120199 45.1727075,8.89028703 C46.1490479,8.46855417 47.255358,8.2576909 48.4916708,8.2576909 Z M48.4916708,24.7051904 C49.5200057,24.7051904 50.418341,24.5289896 51.1867036,24.1765827 C51.9550662,23.8241758 52.5963216,23.3186816 53.1104891,22.6600851 C53.6246566,22.0014886 54.0088321,21.2071406 54.2630273,20.2770175 C54.5172224,19.3468943 54.6443181,18.3041321 54.6443181,17.1486996 C54.6443181,16.0048214 54.5172224,14.9649477 54.2630273,14.0290474 C54.0088321,13.0931471 53.6246566,12.2930221 53.1104891,11.6286484 C52.5963216,10.9642747 51.9550662,10.4530035 51.1867036,10.0948194 C50.418341,9.73663532 49.5200057,9.55754597 48.4916708,9.55754597 C47.4633358,9.55754597 46.5650005,9.73663532 45.7966379,10.0948194 C45.0282753,10.4530035 44.3870199,10.9642747 43.8728524,11.6286484 C43.3586849,12.2930221 42.9716209,13.0931471 42.7116485,14.0290474 C42.4516762,14.9649477 42.321692,16.0048214 42.321692,17.1486996 C42.321692,18.3041321 42.4516762,19.3468943 42.7116485,20.2770175 C42.9716209,21.2071406 43.3586849,22.0014886 43.8728524,22.6600851 C44.3870199,23.3186816 45.0282753,23.8241758 45.7966379,24.1765827 C46.5650005,24.5289896 47.4633358,24.7051904 48.4916708,24.7051904 Z"/>
    </g>
    <g transform="translate(.39 .273)">
      <polygon fill="#D8D8D8" points="2.959 17.921 10.681 27.062 8.188 36.045 13.658 51.881 9.33 53.828"/>
      <polygon fill="#DD407D" points="25.455 51.881 33.153 53.828 33.153 34.547 27.504 20.081 21.828 31.924 28.265 36.954 28.699 42.309"/>
      <polygon fill="#D8D8D8" points="35.394 33.22 27.504 20.081 33.153 34.547"/>
      <polygon fill="#2B71B8" points="33.153 53.828 37.342 44.469 35.395 33.22 33.153 34.547"/>
      <polygon fill="#2B71B8" points="37.341 17.431 30.463 25.01 33.903 30.736"/>
      <polygon fill="#5D2359" points="38.608 52.839 40.362 35.738 36.348 38.727 37.341 44.469 33.153 53.468 32.373 58.149"/>
      <g transform="translate(9.134 57.849)">
        <path fill="#404042" d="M2.63899885 2.2801452L.430808869 2.59614698.368903575 2.69630826C.351316844 2.72381734-.070764706 3.42917846.0720395518 4.74467694.207105648 6.04536283.674912699 6.64985731.693906369 6.67595567L.770584517 6.77259014 3.27704546 6.73661672 2.63899885 2.2801452zM22.814919 2.69623772L22.7530137 2.59607644 20.5427133 2.28007466 19.9053702 6.73725155 22.4132381 6.7725196 22.4899162 6.67659049C22.507503 6.64978677 22.976717 6.0452923 23.1145969 4.7446064 23.2531804 3.42910792 22.8296919 2.72374681 22.814919 2.69623772"/>
        <path fill="#404042" d="M5.77161776.0359682767C3.49659821.0359682767 1.65210183 1.88683584 1.65210183 4.16726833 1.65210183 6.44911153 3.49659821 8.29786302 5.77161776 8.29786302 8.04593385 8.29786302 9.89043022 6.44911153 9.89043022 4.16726833 9.89043022 1.88683584 8.04593385.0359682767 5.77161776.0359682767M5.77161776.53183714C7.77087737.53183714 9.39800175 2.16474812 9.39800175 4.16726833 9.39800175 6.17190462 7.77087737 7.80340487 5.77161776 7.80340487 3.77235816 7.80340487 2.14664072 6.17190462 2.14664072 4.16726833 2.14664072 2.16474812 3.77235816.53183714 5.77161776.53183714M17.4640505.0359682767C15.189031.0359682767 13.3445346 1.88683584 13.3445346 4.16726833 13.3445346 6.44911153 15.189031 8.29786302 17.4640505 8.29786302 19.740477 8.29786302 21.5849734 6.44911153 21.5849734 4.16726833 21.5849734 1.88683584 19.740477.0359682767 17.4640505.0359682767M17.4640505.53183714C19.4640136.53183714 21.089731 2.16474812 21.089731 4.16726833 21.089731 6.17190462 19.4640136 7.80340487 17.4640505 7.80340487 15.4640874 7.80340487 13.8397769 6.17190462 13.8397769 4.16726833 13.8397769 2.16474812 15.4640874.53183714 17.4640505.53183714"/>
        <path fill="#92406D" d="M18.1982692,5.93236398 C18.1982692,5.93236398 17.1107057,0.661200369 16.0238457,0.216117505 C14.9355788,-0.224733191 12.7611554,0.246448033 11.3816522,0.895380259 C10.000742,1.54431248 9.20933911,1.45473162 9.20933911,1.45473162 C9.20933911,1.45473162 8.41441886,1.54431248 7.03350872,0.895380259 C5.65189511,0.246448033 3.47747166,-0.224733191 2.3899082,0.216117505 C1.30375168,0.661200369 0.216891687,5.93236398 0.216891687,5.93236398 C0.216891687,5.93236398 -0.0778619291,6.14326695 0.040320905,6.85286024 C0.159207208,7.55822135 2.7880718,9.55792011 4.61076062,8.11686735 C6.43344945,6.67087707 7.1805338,4.67188367 7.1805338,4.67188367 C7.1805338,4.67188367 7.53297189,3.75279814 9.20933911,3.75279814 C10.882189,3.75279814 11.2346271,4.67188367 11.2346271,4.67188367 C11.2346271,4.67188367 11.9838218,6.67087707 13.8036968,8.11686735 C15.6263856,9.55792011 18.2559537,7.55822135 18.3762469,6.85286024 C18.4930228,6.14326695 18.1982692,5.93236398 18.1982692,5.93236398" transform="translate(2.384)"/>
        <path fill="#FEFEFE" d="M21.2836775,4.16755047 C21.2836775,6.28222309 19.5728403,7.99483988 17.4666534,7.99483988 C15.3569491,7.99483988 13.6510361,6.28222309 13.6510361,4.16755047 C13.6510361,2.05569929 15.3569491,0.343082506 17.4666534,0.343082506 C19.5728403,0.343082506 21.2836775,2.05569929 21.2836775,4.16755047"/>
        <path fill="#404042" d="M20.3871763,4.16755047 C20.3871763,5.78564887 19.079427,7.09762054 17.4670754,7.09762054 C15.8512066,7.09762054 14.5448642,5.78564887 14.5448642,4.16755047 C14.5448642,2.55015743 15.8512066,1.23889112 17.4670754,1.23889112 C19.079427,1.23889112 20.3871763,2.55015743 20.3871763,4.16755047"/>
        <path fill="#FEFEFE" d="M9.58639081,4.16755047 C9.58639081,6.28222309 7.87766401,7.99483988 5.77147707,7.99483988 C3.66317973,7.99483988 1.95374945,6.28222309 1.95374945,4.16755047 C1.95374945,2.05569929 3.66317973,0.343082506 5.77147707,0.343082506 C7.87766401,0.343082506 9.58639081,2.05569929 9.58639081,4.16755047"/>
        <path fill="#404042" d="M8.69263313,4.16755047 C8.69263313,5.78564887 7.38418033,7.09762054 5.77182881,7.09762054 C4.15807035,7.09762054 2.84961754,5.78564887 2.84961754,4.16755047 C2.84961754,2.55015743 4.15807035,1.23889112 5.77182881,1.23889112 C7.38418033,1.23889112 8.69263313,2.55015743 8.69263313,4.16755047"/>
        <path fill="#404042" d="M2.63899885 2.2801452L.430808869 2.59614698.368903575 2.69630826C.351316844 2.72381734-.070764706 3.42917846.0720395518 4.74467694.207105648 6.04536283.674912699 6.64985731.693906369 6.67595567L.770584517 6.77259014 3.27704546 6.73661672 2.63899885 2.2801452zM22.814919 2.69623772L22.7530137 2.59607644 20.5427133 2.28007466 19.9053702 6.73725155 22.4132381 6.7725196 22.4899162 6.67659049C22.507503 6.64978677 22.976717 6.0452923 23.1145969 4.7446064 23.2531804 3.42910792 22.8296919 2.72374681 22.814919 2.69623772"/>
        <path fill="#404042" d="M5.77161776.0359682767C3.49659821.0359682767 1.65210183 1.88683584 1.65210183 4.16726833 1.65210183 6.44911153 3.49659821 8.29786302 5.77161776 8.29786302 8.04593385 8.29786302 9.89043022 6.44911153 9.89043022 4.16726833 9.89043022 1.88683584 8.04593385.0359682767 5.77161776.0359682767M5.77161776.53183714C7.77087737.53183714 9.39800175 2.16474812 9.39800175 4.16726833 9.39800175 6.17190462 7.77087737 7.80340487 5.77161776 7.80340487 3.77235816 7.80340487 2.14664072 6.17190462 2.14664072 4.16726833 2.14664072 2.16474812 3.77235816.53183714 5.77161776.53183714M17.4640505.0359682767C15.189031.0359682767 13.3445346 1.88683584 13.3445346 4.16726833 13.3445346 6.44911153 15.189031 8.29786302 17.4640505 8.29786302 19.740477 8.29786302 21.5849734 6.44911153 21.5849734 4.16726833 21.5849734 1.88683584 19.740477.0359682767 17.4640505.0359682767M17.4640505.53183714C19.4640136.53183714 21.089731 2.16474812 21.089731 4.16726833 21.089731 6.17190462 19.4640136 7.80340487 17.4640505 7.80340487 15.4640874 7.80340487 13.8397769 6.17190462 13.8397769 4.16726833 13.8397769 2.16474812 15.4640874.53183714 17.4640505.53183714"/>
        <path fill="#FEFEFE" d="M21.2836775,4.16755047 C21.2836775,6.28222309 19.5728403,7.99483988 17.4666534,7.99483988 C15.3569491,7.99483988 13.6510361,6.28222309 13.6510361,4.16755047 C13.6510361,2.05569929 15.3569491,0.343082506 17.4666534,0.343082506 C19.5728403,0.343082506 21.2836775,2.05569929 21.2836775,4.16755047"/>
        <path fill="#404042" d="M20.3871763,4.16755047 C20.3871763,5.78564887 19.079427,7.09762054 17.4670754,7.09762054 C15.8512066,7.09762054 14.5448642,5.78564887 14.5448642,4.16755047 C14.5448642,2.55015743 15.8512066,1.23889112 17.4670754,1.23889112 C19.079427,1.23889112 20.3871763,2.55015743 20.3871763,4.16755047"/>
        <path fill="#FEFEFE" d="M9.58639081,4.16755047 C9.58639081,6.28222309 7.87766401,7.99483988 5.77147707,7.99483988 C3.66317973,7.99483988 1.95374945,6.28222309 1.95374945,4.16755047 C1.95374945,2.05569929 3.66317973,0.343082506 5.77147707,0.343082506 C7.87766401,0.343082506 9.58639081,2.05569929 9.58639081,4.16755047"/>
        <path fill="#404042" d="M8.69263313,4.16755047 C8.69263313,5.78564887 7.38418033,7.09762054 5.77182881,7.09762054 C4.15807035,7.09762054 2.84961754,5.78564887 2.84961754,4.16755047 C2.84961754,2.55015743 4.15807035,1.23889112 5.77182881,1.23889112 C7.38418033,1.23889112 8.69263313,2.55015743 8.69263313,4.16755047"/>
      </g>
      <polygon fill="#DD407D" points="37.341 17.431 40.362 35.739 36.348 38.727 35.394 33.22 33.903 30.736"/>
      <polygon fill="#2B71B8" points="20.686 10.152 21.828 31.924 24.783 25.759"/>
      <polygon fill="#5D2359" points="20.686 10.152 21.828 31.924 20.491 30.879 18.955 33.515 14.145 27.066"/>
      <polygon fill="#DD407D" points=".007 41.498 9.33 53.828 2.959 17.921"/>
      <polygon fill="#5D2359" points="9.33 58.149 9.33 53.828 .007 41.498 3.978 53.828"/>
      <polygon fill="#DD407D" points="9.94 8.529 9.94 14.287 12.471 17.228 12.471 11.947"/>
      <polygon fill="#5D2359" points="16.499 11.589 12.472 17.228 12.472 11.947"/>
      <polygon fill="#D8D8D8" points="9.94 8.529 16.499 11.589 12.471 11.947"/>
      <polygon fill="#2B71B8" points="23.284 6.964 21.278 .069 21.278 4.255"/>
      <polygon fill="#DD407D" points="18.086 4.54 21.278 .069 21.278 4.255"/>
      <polygon fill="#5D2359" points="23.284 6.964 18.086 4.54 21.278 4.255"/>
      <polygon fill="#D8D8D8" points="29.494 6.935 25.551 9.755 27.044 13.535"/>
      <polygon fill="#2B71B8" points="30.097 11.614 29.494 6.936 27.044 13.535"/>
      <polygon fill="#DD407D" points="18.152 50.319 13.658 51.881 11.278 36.954 11.621 23.679 18.955 33.515 14.216 41.644"/>
      <polygon fill="#5D2359" points="11.278 36.954 11.621 23.679 8.188 36.045 13.658 51.881"/>
      <polygon fill="#2B71B8" points="20.491 30.879 14.216 41.644 18.152 50.319 25.455 51.881 25.945 37.54"/>
      <polygon fill="#D8D8D8" points="28.699 42.309 28.265 36.954 20.492 30.879 25.945 37.539 25.455 51.881"/>
    </g>
  </g>
</svg>
