<svg xmlns="http://www.w3.org/2000/svg" width="30" height="18" viewBox="0 0 30 18">
  <path fill="#FFF" fill-rule="evenodd" d="M21.2575009,-0.885950167 C21.0856614,-1.05607818 20.8309006,-1.10651647 20.6060446,-1.01418853 L2.21836964,6.66295458 C1.99438913,6.75699619 1.85075183,6.97415048 1.85160538,7.21607744 C1.85331533,7.45887984 1.99950606,7.6734494 2.22434449,7.76493255 L9.6193783,10.7512664 L12.6057121,18.1454243 C12.6971887,18.3702584 12.9117648,18.5164563 13.1579814,18.5181634 C13.3999303,18.5181634 13.6144998,18.3736813 13.7076901,18.1513992 L21.3848332,-0.234524506 C21.4788748,-0.459358564 21.4284343,-0.714132562 21.2574506,-0.885980808 L21.2575009,-0.885950167 Z M14.6429192,6.57058286 C14.7549139,6.45858823 14.8173216,6.3081269 14.8173216,6.14910381 C14.8173216,5.98923373 14.7549117,5.83961501 14.6429192,5.72762476 C14.4103813,5.49508685 14.032499,5.49508685 13.7999611,5.72762476 L9.93403218,9.59355371 L4.01542277,7.2031735 L19.7262306,0.643306624 L13.1663637,16.3541145 L10.7759835,10.4355051 L14.6429192,6.57058286 Z" transform="rotate(45 11.642 8.73)"/>
</svg>
