<svg xmlns="http://www.w3.org/2000/svg" width="24" height="19" viewBox="0 0 24 19">
  <path fill="#FFF" fill-rule="evenodd" d="M13.1969519,18.075374 C11.0337563,18.075374 6.89868769,17.4500663 3.15107148,13.123579 C-0.598852131,8.74834759 -0.0693018472,5.09620042 0.17105322,4.03911883 L0.219874141,3.89453084 C0.555996281,2.26088552 0.651763354,2.06744776 0.749424425,1.92285015 C1.08554657,1.49096094 1.95119976,0.431879599 2.4319099,0.33612214 C2.48073082,0.33612214 3.48908762,0 4.25899297,0 C5.12465578,0 5.36501085,0.431889213 5.41192816,0.672225052 C6.80521841,4.99861626 6.46910589,5.28781148 6.22875082,5.4793264 L6.13298375,5.52814732 L5.26732094,5.96003653 C5.17155386,6.10462452 4.97814495,6.44074666 4.97814495,6.63226158 C4.73778988,7.92979438 5.60345269,9.46768224 7.47745308,11.247848 C8.58347096,12.3050257 9.25569601,12.4984635 9.8321636,12.6411383 C10.0725187,12.6899592 10.2640528,12.7857263 10.5043887,12.8814933 C10.7447437,13.0260813 11.0808562,12.9772604 11.3212113,12.8326724 L11.9934364,12.4007832 C12.4253256,12.1116072 12.9548566,12.0158401 13.4355668,12.1604281 L16.17523,12.8326532 C16.7516976,12.9772412 17.1854904,13.3622035 17.4258455,13.8898309 C17.6662005,14.4193812 17.6173796,14.9958488 17.3300784,15.5234762 L16.9451353,16.148784 C16.8005473,16.3403181 16.6559593,16.533727 16.4644252,16.6783343 C14.6373421,18.0247072 14.2054721,18.0247072 14.0608745,18.0247072 C13.7266319,18.0754077 13.4862817,18.0754077 13.1970865,18.0754077 L13.1969519,18.075374 Z M1.56424733,2.49940427 C1.51542641,2.59517135 1.41965934,2.98011441 1.17930427,4.08613228 L1.13048335,4.23072028 C0.890128282,5.1433004 0.458258297,8.46135403 3.9189867,12.451825 C7.3797151,16.489021 11.2253,17.0674114 13.197173,17.0674114 L13.8693981,17.0674114 C14.013986,17.0674114 14.5416231,16.7782354 15.7922386,15.8656361 C15.8880057,15.8168152 15.9837727,15.7210481 16.0325937,15.625281 L16.4175367,14.9999733 C16.5621247,14.7596182 16.5621247,14.5192631 16.4663576,14.2300679 C16.3705906,13.9408919 16.1771817,13.7981787 15.88989,13.7493578 L13.1502268,13.0771327 C12.9098718,13.0283118 12.6695167,13.0771327 12.4780018,13.1728998 L11.8057767,13.604789 C11.2762265,13.9409112 10.6040014,13.9897321 10.0275338,13.749377 C9.88294582,13.7005561 9.73835783,13.6536099 9.54682368,13.5578429 C8.92151594,13.3663087 8.10469328,13.1259537 6.80716048,11.9241976 C4.64396488,9.90559956 3.73138476,8.07851648 4.01865714,6.44506344 C4.06747806,6.1089413 4.35477928,5.48364317 4.64396488,5.24328811 L4.6927858,5.19446718 L5.50960846,4.76257797 C5.46078754,4.18611038 4.98005818,2.40786745 4.54818819,0.965737046 C4.49936727,0.965737046 4.45242112,0.916916125 4.30783312,0.916916125 C3.68252538,0.916916125 2.76994526,1.20609211 2.76994526,1.20609211 C2.57465677,1.34692576 1.90053291,2.06800538 1.56442039,2.49987537 L1.56424733,2.49940427 Z"/>
</svg>
